G04 #@! TF.GenerationSoftware,KiCad,Pcbnew,(6.0.9)*
G04 #@! TF.CreationDate,2024-01-26T15:08:13+01:00*
G04 #@! TF.ProjectId,Univerzalni_testovaci_platforma_nejen_pro_IoT_v1,556e6976-6572-47a6-916c-6e695f746573,rev?*
G04 #@! TF.SameCoordinates,Original*
G04 #@! TF.FileFunction,Legend,Top*
G04 #@! TF.FilePolarity,Positive*
%FSLAX46Y46*%
G04 Gerber Fmt 4.6, Leading zero omitted, Abs format (unit mm)*
G04 Created by KiCad (PCBNEW (6.0.9)) date 2024-01-26 15:08:13*
%MOMM*%
%LPD*%
G01*
G04 APERTURE LIST*
%ADD10C,0.150000*%
%ADD11C,0.120000*%
%ADD12C,0.500000*%
%ADD13C,0.127000*%
G04 APERTURE END LIST*
D10*
G04 #@! TO.C,R5*
X192333333Y-67152380D02*
X192000000Y-66676190D01*
X191761904Y-67152380D02*
X191761904Y-66152380D01*
X192142857Y-66152380D01*
X192238095Y-66200000D01*
X192285714Y-66247619D01*
X192333333Y-66342857D01*
X192333333Y-66485714D01*
X192285714Y-66580952D01*
X192238095Y-66628571D01*
X192142857Y-66676190D01*
X191761904Y-66676190D01*
X193238095Y-66152380D02*
X192761904Y-66152380D01*
X192714285Y-66628571D01*
X192761904Y-66580952D01*
X192857142Y-66533333D01*
X193095238Y-66533333D01*
X193190476Y-66580952D01*
X193238095Y-66628571D01*
X193285714Y-66723809D01*
X193285714Y-66961904D01*
X193238095Y-67057142D01*
X193190476Y-67104761D01*
X193095238Y-67152380D01*
X192857142Y-67152380D01*
X192761904Y-67104761D01*
X192714285Y-67057142D01*
G04 #@! TO.C,R17*
X191257142Y-97652380D02*
X190923809Y-97176190D01*
X190685714Y-97652380D02*
X190685714Y-96652380D01*
X191066666Y-96652380D01*
X191161904Y-96700000D01*
X191209523Y-96747619D01*
X191257142Y-96842857D01*
X191257142Y-96985714D01*
X191209523Y-97080952D01*
X191161904Y-97128571D01*
X191066666Y-97176190D01*
X190685714Y-97176190D01*
X192209523Y-97652380D02*
X191638095Y-97652380D01*
X191923809Y-97652380D02*
X191923809Y-96652380D01*
X191828571Y-96795238D01*
X191733333Y-96890476D01*
X191638095Y-96938095D01*
X192542857Y-96652380D02*
X193209523Y-96652380D01*
X192780952Y-97652380D01*
G04 #@! TO.C,R76*
X121372380Y-137657857D02*
X120896190Y-137991190D01*
X121372380Y-138229285D02*
X120372380Y-138229285D01*
X120372380Y-137848333D01*
X120420000Y-137753095D01*
X120467619Y-137705476D01*
X120562857Y-137657857D01*
X120705714Y-137657857D01*
X120800952Y-137705476D01*
X120848571Y-137753095D01*
X120896190Y-137848333D01*
X120896190Y-138229285D01*
X120372380Y-137324523D02*
X120372380Y-136657857D01*
X121372380Y-137086428D01*
X120372380Y-135848333D02*
X120372380Y-136038809D01*
X120420000Y-136134047D01*
X120467619Y-136181666D01*
X120610476Y-136276904D01*
X120800952Y-136324523D01*
X121181904Y-136324523D01*
X121277142Y-136276904D01*
X121324761Y-136229285D01*
X121372380Y-136134047D01*
X121372380Y-135943571D01*
X121324761Y-135848333D01*
X121277142Y-135800714D01*
X121181904Y-135753095D01*
X120943809Y-135753095D01*
X120848571Y-135800714D01*
X120800952Y-135848333D01*
X120753333Y-135943571D01*
X120753333Y-136134047D01*
X120800952Y-136229285D01*
X120848571Y-136276904D01*
X120943809Y-136324523D01*
G04 #@! TO.C,J11*
X105390476Y-108622380D02*
X105390476Y-109336666D01*
X105342857Y-109479523D01*
X105247619Y-109574761D01*
X105104761Y-109622380D01*
X105009523Y-109622380D01*
X106390476Y-109622380D02*
X105819047Y-109622380D01*
X106104761Y-109622380D02*
X106104761Y-108622380D01*
X106009523Y-108765238D01*
X105914285Y-108860476D01*
X105819047Y-108908095D01*
X107342857Y-109622380D02*
X106771428Y-109622380D01*
X107057142Y-109622380D02*
X107057142Y-108622380D01*
X106961904Y-108765238D01*
X106866666Y-108860476D01*
X106771428Y-108908095D01*
G04 #@! TO.C,R65*
X181057142Y-90052380D02*
X180723809Y-89576190D01*
X180485714Y-90052380D02*
X180485714Y-89052380D01*
X180866666Y-89052380D01*
X180961904Y-89100000D01*
X181009523Y-89147619D01*
X181057142Y-89242857D01*
X181057142Y-89385714D01*
X181009523Y-89480952D01*
X180961904Y-89528571D01*
X180866666Y-89576190D01*
X180485714Y-89576190D01*
X181914285Y-89052380D02*
X181723809Y-89052380D01*
X181628571Y-89100000D01*
X181580952Y-89147619D01*
X181485714Y-89290476D01*
X181438095Y-89480952D01*
X181438095Y-89861904D01*
X181485714Y-89957142D01*
X181533333Y-90004761D01*
X181628571Y-90052380D01*
X181819047Y-90052380D01*
X181914285Y-90004761D01*
X181961904Y-89957142D01*
X182009523Y-89861904D01*
X182009523Y-89623809D01*
X181961904Y-89528571D01*
X181914285Y-89480952D01*
X181819047Y-89433333D01*
X181628571Y-89433333D01*
X181533333Y-89480952D01*
X181485714Y-89528571D01*
X181438095Y-89623809D01*
X182914285Y-89052380D02*
X182438095Y-89052380D01*
X182390476Y-89528571D01*
X182438095Y-89480952D01*
X182533333Y-89433333D01*
X182771428Y-89433333D01*
X182866666Y-89480952D01*
X182914285Y-89528571D01*
X182961904Y-89623809D01*
X182961904Y-89861904D01*
X182914285Y-89957142D01*
X182866666Y-90004761D01*
X182771428Y-90052380D01*
X182533333Y-90052380D01*
X182438095Y-90004761D01*
X182390476Y-89957142D01*
G04 #@! TO.C,R28*
X120357142Y-99452380D02*
X120023809Y-98976190D01*
X119785714Y-99452380D02*
X119785714Y-98452380D01*
X120166666Y-98452380D01*
X120261904Y-98500000D01*
X120309523Y-98547619D01*
X120357142Y-98642857D01*
X120357142Y-98785714D01*
X120309523Y-98880952D01*
X120261904Y-98928571D01*
X120166666Y-98976190D01*
X119785714Y-98976190D01*
X120738095Y-98547619D02*
X120785714Y-98500000D01*
X120880952Y-98452380D01*
X121119047Y-98452380D01*
X121214285Y-98500000D01*
X121261904Y-98547619D01*
X121309523Y-98642857D01*
X121309523Y-98738095D01*
X121261904Y-98880952D01*
X120690476Y-99452380D01*
X121309523Y-99452380D01*
X121880952Y-98880952D02*
X121785714Y-98833333D01*
X121738095Y-98785714D01*
X121690476Y-98690476D01*
X121690476Y-98642857D01*
X121738095Y-98547619D01*
X121785714Y-98500000D01*
X121880952Y-98452380D01*
X122071428Y-98452380D01*
X122166666Y-98500000D01*
X122214285Y-98547619D01*
X122261904Y-98642857D01*
X122261904Y-98690476D01*
X122214285Y-98785714D01*
X122166666Y-98833333D01*
X122071428Y-98880952D01*
X121880952Y-98880952D01*
X121785714Y-98928571D01*
X121738095Y-98976190D01*
X121690476Y-99071428D01*
X121690476Y-99261904D01*
X121738095Y-99357142D01*
X121785714Y-99404761D01*
X121880952Y-99452380D01*
X122071428Y-99452380D01*
X122166666Y-99404761D01*
X122214285Y-99357142D01*
X122261904Y-99261904D01*
X122261904Y-99071428D01*
X122214285Y-98976190D01*
X122166666Y-98928571D01*
X122071428Y-98880952D01*
G04 #@! TO.C,R53*
X108157142Y-99452380D02*
X107823809Y-98976190D01*
X107585714Y-99452380D02*
X107585714Y-98452380D01*
X107966666Y-98452380D01*
X108061904Y-98500000D01*
X108109523Y-98547619D01*
X108157142Y-98642857D01*
X108157142Y-98785714D01*
X108109523Y-98880952D01*
X108061904Y-98928571D01*
X107966666Y-98976190D01*
X107585714Y-98976190D01*
X109061904Y-98452380D02*
X108585714Y-98452380D01*
X108538095Y-98928571D01*
X108585714Y-98880952D01*
X108680952Y-98833333D01*
X108919047Y-98833333D01*
X109014285Y-98880952D01*
X109061904Y-98928571D01*
X109109523Y-99023809D01*
X109109523Y-99261904D01*
X109061904Y-99357142D01*
X109014285Y-99404761D01*
X108919047Y-99452380D01*
X108680952Y-99452380D01*
X108585714Y-99404761D01*
X108538095Y-99357142D01*
X109442857Y-98452380D02*
X110061904Y-98452380D01*
X109728571Y-98833333D01*
X109871428Y-98833333D01*
X109966666Y-98880952D01*
X110014285Y-98928571D01*
X110061904Y-99023809D01*
X110061904Y-99261904D01*
X110014285Y-99357142D01*
X109966666Y-99404761D01*
X109871428Y-99452380D01*
X109585714Y-99452380D01*
X109490476Y-99404761D01*
X109442857Y-99357142D01*
G04 #@! TO.C,R41*
X107257142Y-66452380D02*
X106923809Y-65976190D01*
X106685714Y-66452380D02*
X106685714Y-65452380D01*
X107066666Y-65452380D01*
X107161904Y-65500000D01*
X107209523Y-65547619D01*
X107257142Y-65642857D01*
X107257142Y-65785714D01*
X107209523Y-65880952D01*
X107161904Y-65928571D01*
X107066666Y-65976190D01*
X106685714Y-65976190D01*
X108114285Y-65785714D02*
X108114285Y-66452380D01*
X107876190Y-65404761D02*
X107638095Y-66119047D01*
X108257142Y-66119047D01*
X109161904Y-66452380D02*
X108590476Y-66452380D01*
X108876190Y-66452380D02*
X108876190Y-65452380D01*
X108780952Y-65595238D01*
X108685714Y-65690476D01*
X108590476Y-65738095D01*
G04 #@! TO.C,R49*
X107357142Y-86652380D02*
X107023809Y-86176190D01*
X106785714Y-86652380D02*
X106785714Y-85652380D01*
X107166666Y-85652380D01*
X107261904Y-85700000D01*
X107309523Y-85747619D01*
X107357142Y-85842857D01*
X107357142Y-85985714D01*
X107309523Y-86080952D01*
X107261904Y-86128571D01*
X107166666Y-86176190D01*
X106785714Y-86176190D01*
X108214285Y-85985714D02*
X108214285Y-86652380D01*
X107976190Y-85604761D02*
X107738095Y-86319047D01*
X108357142Y-86319047D01*
X108785714Y-86652380D02*
X108976190Y-86652380D01*
X109071428Y-86604761D01*
X109119047Y-86557142D01*
X109214285Y-86414285D01*
X109261904Y-86223809D01*
X109261904Y-85842857D01*
X109214285Y-85747619D01*
X109166666Y-85700000D01*
X109071428Y-85652380D01*
X108880952Y-85652380D01*
X108785714Y-85700000D01*
X108738095Y-85747619D01*
X108690476Y-85842857D01*
X108690476Y-86080952D01*
X108738095Y-86176190D01*
X108785714Y-86223809D01*
X108880952Y-86271428D01*
X109071428Y-86271428D01*
X109166666Y-86223809D01*
X109214285Y-86176190D01*
X109261904Y-86080952D01*
G04 #@! TO.C,C7*
X167557142Y-112066666D02*
X167604761Y-112114285D01*
X167652380Y-112257142D01*
X167652380Y-112352380D01*
X167604761Y-112495238D01*
X167509523Y-112590476D01*
X167414285Y-112638095D01*
X167223809Y-112685714D01*
X167080952Y-112685714D01*
X166890476Y-112638095D01*
X166795238Y-112590476D01*
X166700000Y-112495238D01*
X166652380Y-112352380D01*
X166652380Y-112257142D01*
X166700000Y-112114285D01*
X166747619Y-112066666D01*
X166652380Y-111733333D02*
X166652380Y-111066666D01*
X167652380Y-111495238D01*
G04 #@! TO.C,H3*
X198138095Y-143352380D02*
X198138095Y-142352380D01*
X198138095Y-142828571D02*
X198709523Y-142828571D01*
X198709523Y-143352380D02*
X198709523Y-142352380D01*
X199090476Y-142352380D02*
X199709523Y-142352380D01*
X199376190Y-142733333D01*
X199519047Y-142733333D01*
X199614285Y-142780952D01*
X199661904Y-142828571D01*
X199709523Y-142923809D01*
X199709523Y-143161904D01*
X199661904Y-143257142D01*
X199614285Y-143304761D01*
X199519047Y-143352380D01*
X199233333Y-143352380D01*
X199138095Y-143304761D01*
X199090476Y-143257142D01*
G04 #@! TO.C,C1*
X137657142Y-107966666D02*
X137704761Y-108014285D01*
X137752380Y-108157142D01*
X137752380Y-108252380D01*
X137704761Y-108395238D01*
X137609523Y-108490476D01*
X137514285Y-108538095D01*
X137323809Y-108585714D01*
X137180952Y-108585714D01*
X136990476Y-108538095D01*
X136895238Y-108490476D01*
X136800000Y-108395238D01*
X136752380Y-108252380D01*
X136752380Y-108157142D01*
X136800000Y-108014285D01*
X136847619Y-107966666D01*
X137752380Y-107014285D02*
X137752380Y-107585714D01*
X137752380Y-107300000D02*
X136752380Y-107300000D01*
X136895238Y-107395238D01*
X136990476Y-107490476D01*
X137038095Y-107585714D01*
G04 #@! TO.C,U4*
X186138095Y-41952380D02*
X186138095Y-42761904D01*
X186185714Y-42857142D01*
X186233333Y-42904761D01*
X186328571Y-42952380D01*
X186519047Y-42952380D01*
X186614285Y-42904761D01*
X186661904Y-42857142D01*
X186709523Y-42761904D01*
X186709523Y-41952380D01*
X187614285Y-42285714D02*
X187614285Y-42952380D01*
X187376190Y-41904761D02*
X187138095Y-42619047D01*
X187757142Y-42619047D01*
G04 #@! TO.C,R47*
X107357142Y-81752380D02*
X107023809Y-81276190D01*
X106785714Y-81752380D02*
X106785714Y-80752380D01*
X107166666Y-80752380D01*
X107261904Y-80800000D01*
X107309523Y-80847619D01*
X107357142Y-80942857D01*
X107357142Y-81085714D01*
X107309523Y-81180952D01*
X107261904Y-81228571D01*
X107166666Y-81276190D01*
X106785714Y-81276190D01*
X108214285Y-81085714D02*
X108214285Y-81752380D01*
X107976190Y-80704761D02*
X107738095Y-81419047D01*
X108357142Y-81419047D01*
X108642857Y-80752380D02*
X109309523Y-80752380D01*
X108880952Y-81752380D01*
G04 #@! TO.C,J3*
X102166666Y-108622380D02*
X102166666Y-109336666D01*
X102119047Y-109479523D01*
X102023809Y-109574761D01*
X101880952Y-109622380D01*
X101785714Y-109622380D01*
X102547619Y-108622380D02*
X103166666Y-108622380D01*
X102833333Y-109003333D01*
X102976190Y-109003333D01*
X103071428Y-109050952D01*
X103119047Y-109098571D01*
X103166666Y-109193809D01*
X103166666Y-109431904D01*
X103119047Y-109527142D01*
X103071428Y-109574761D01*
X102976190Y-109622380D01*
X102690476Y-109622380D01*
X102595238Y-109574761D01*
X102547619Y-109527142D01*
G04 #@! TO.C,C17*
X127927142Y-141542857D02*
X127974761Y-141590476D01*
X128022380Y-141733333D01*
X128022380Y-141828571D01*
X127974761Y-141971428D01*
X127879523Y-142066666D01*
X127784285Y-142114285D01*
X127593809Y-142161904D01*
X127450952Y-142161904D01*
X127260476Y-142114285D01*
X127165238Y-142066666D01*
X127070000Y-141971428D01*
X127022380Y-141828571D01*
X127022380Y-141733333D01*
X127070000Y-141590476D01*
X127117619Y-141542857D01*
X128022380Y-140590476D02*
X128022380Y-141161904D01*
X128022380Y-140876190D02*
X127022380Y-140876190D01*
X127165238Y-140971428D01*
X127260476Y-141066666D01*
X127308095Y-141161904D01*
X127022380Y-140257142D02*
X127022380Y-139590476D01*
X128022380Y-140019047D01*
G04 #@! TO.C,R60*
X181157142Y-77252380D02*
X180823809Y-76776190D01*
X180585714Y-77252380D02*
X180585714Y-76252380D01*
X180966666Y-76252380D01*
X181061904Y-76300000D01*
X181109523Y-76347619D01*
X181157142Y-76442857D01*
X181157142Y-76585714D01*
X181109523Y-76680952D01*
X181061904Y-76728571D01*
X180966666Y-76776190D01*
X180585714Y-76776190D01*
X182014285Y-76252380D02*
X181823809Y-76252380D01*
X181728571Y-76300000D01*
X181680952Y-76347619D01*
X181585714Y-76490476D01*
X181538095Y-76680952D01*
X181538095Y-77061904D01*
X181585714Y-77157142D01*
X181633333Y-77204761D01*
X181728571Y-77252380D01*
X181919047Y-77252380D01*
X182014285Y-77204761D01*
X182061904Y-77157142D01*
X182109523Y-77061904D01*
X182109523Y-76823809D01*
X182061904Y-76728571D01*
X182014285Y-76680952D01*
X181919047Y-76633333D01*
X181728571Y-76633333D01*
X181633333Y-76680952D01*
X181585714Y-76728571D01*
X181538095Y-76823809D01*
X182728571Y-76252380D02*
X182823809Y-76252380D01*
X182919047Y-76300000D01*
X182966666Y-76347619D01*
X183014285Y-76442857D01*
X183061904Y-76633333D01*
X183061904Y-76871428D01*
X183014285Y-77061904D01*
X182966666Y-77157142D01*
X182919047Y-77204761D01*
X182823809Y-77252380D01*
X182728571Y-77252380D01*
X182633333Y-77204761D01*
X182585714Y-77157142D01*
X182538095Y-77061904D01*
X182490476Y-76871428D01*
X182490476Y-76633333D01*
X182538095Y-76442857D01*
X182585714Y-76347619D01*
X182633333Y-76300000D01*
X182728571Y-76252380D01*
G04 #@! TO.C,R43*
X107357142Y-71652380D02*
X107023809Y-71176190D01*
X106785714Y-71652380D02*
X106785714Y-70652380D01*
X107166666Y-70652380D01*
X107261904Y-70700000D01*
X107309523Y-70747619D01*
X107357142Y-70842857D01*
X107357142Y-70985714D01*
X107309523Y-71080952D01*
X107261904Y-71128571D01*
X107166666Y-71176190D01*
X106785714Y-71176190D01*
X108214285Y-70985714D02*
X108214285Y-71652380D01*
X107976190Y-70604761D02*
X107738095Y-71319047D01*
X108357142Y-71319047D01*
X108642857Y-70652380D02*
X109261904Y-70652380D01*
X108928571Y-71033333D01*
X109071428Y-71033333D01*
X109166666Y-71080952D01*
X109214285Y-71128571D01*
X109261904Y-71223809D01*
X109261904Y-71461904D01*
X109214285Y-71557142D01*
X109166666Y-71604761D01*
X109071428Y-71652380D01*
X108785714Y-71652380D01*
X108690476Y-71604761D01*
X108642857Y-71557142D01*
G04 #@! TO.C,R7*
X192233333Y-72352380D02*
X191900000Y-71876190D01*
X191661904Y-72352380D02*
X191661904Y-71352380D01*
X192042857Y-71352380D01*
X192138095Y-71400000D01*
X192185714Y-71447619D01*
X192233333Y-71542857D01*
X192233333Y-71685714D01*
X192185714Y-71780952D01*
X192138095Y-71828571D01*
X192042857Y-71876190D01*
X191661904Y-71876190D01*
X192566666Y-71352380D02*
X193233333Y-71352380D01*
X192804761Y-72352380D01*
G04 #@! TO.C,R10*
X191257142Y-79752380D02*
X190923809Y-79276190D01*
X190685714Y-79752380D02*
X190685714Y-78752380D01*
X191066666Y-78752380D01*
X191161904Y-78800000D01*
X191209523Y-78847619D01*
X191257142Y-78942857D01*
X191257142Y-79085714D01*
X191209523Y-79180952D01*
X191161904Y-79228571D01*
X191066666Y-79276190D01*
X190685714Y-79276190D01*
X192209523Y-79752380D02*
X191638095Y-79752380D01*
X191923809Y-79752380D02*
X191923809Y-78752380D01*
X191828571Y-78895238D01*
X191733333Y-78990476D01*
X191638095Y-79038095D01*
X192828571Y-78752380D02*
X192923809Y-78752380D01*
X193019047Y-78800000D01*
X193066666Y-78847619D01*
X193114285Y-78942857D01*
X193161904Y-79133333D01*
X193161904Y-79371428D01*
X193114285Y-79561904D01*
X193066666Y-79657142D01*
X193019047Y-79704761D01*
X192923809Y-79752380D01*
X192828571Y-79752380D01*
X192733333Y-79704761D01*
X192685714Y-79657142D01*
X192638095Y-79561904D01*
X192590476Y-79371428D01*
X192590476Y-79133333D01*
X192638095Y-78942857D01*
X192685714Y-78847619D01*
X192733333Y-78800000D01*
X192828571Y-78752380D01*
G04 #@! TO.C,R66*
X181157142Y-92452380D02*
X180823809Y-91976190D01*
X180585714Y-92452380D02*
X180585714Y-91452380D01*
X180966666Y-91452380D01*
X181061904Y-91500000D01*
X181109523Y-91547619D01*
X181157142Y-91642857D01*
X181157142Y-91785714D01*
X181109523Y-91880952D01*
X181061904Y-91928571D01*
X180966666Y-91976190D01*
X180585714Y-91976190D01*
X182014285Y-91452380D02*
X181823809Y-91452380D01*
X181728571Y-91500000D01*
X181680952Y-91547619D01*
X181585714Y-91690476D01*
X181538095Y-91880952D01*
X181538095Y-92261904D01*
X181585714Y-92357142D01*
X181633333Y-92404761D01*
X181728571Y-92452380D01*
X181919047Y-92452380D01*
X182014285Y-92404761D01*
X182061904Y-92357142D01*
X182109523Y-92261904D01*
X182109523Y-92023809D01*
X182061904Y-91928571D01*
X182014285Y-91880952D01*
X181919047Y-91833333D01*
X181728571Y-91833333D01*
X181633333Y-91880952D01*
X181585714Y-91928571D01*
X181538095Y-92023809D01*
X182966666Y-91452380D02*
X182776190Y-91452380D01*
X182680952Y-91500000D01*
X182633333Y-91547619D01*
X182538095Y-91690476D01*
X182490476Y-91880952D01*
X182490476Y-92261904D01*
X182538095Y-92357142D01*
X182585714Y-92404761D01*
X182680952Y-92452380D01*
X182871428Y-92452380D01*
X182966666Y-92404761D01*
X183014285Y-92357142D01*
X183061904Y-92261904D01*
X183061904Y-92023809D01*
X183014285Y-91928571D01*
X182966666Y-91880952D01*
X182871428Y-91833333D01*
X182680952Y-91833333D01*
X182585714Y-91880952D01*
X182538095Y-91928571D01*
X182490476Y-92023809D01*
G04 #@! TO.C,R14*
X191257142Y-89952380D02*
X190923809Y-89476190D01*
X190685714Y-89952380D02*
X190685714Y-88952380D01*
X191066666Y-88952380D01*
X191161904Y-89000000D01*
X191209523Y-89047619D01*
X191257142Y-89142857D01*
X191257142Y-89285714D01*
X191209523Y-89380952D01*
X191161904Y-89428571D01*
X191066666Y-89476190D01*
X190685714Y-89476190D01*
X192209523Y-89952380D02*
X191638095Y-89952380D01*
X191923809Y-89952380D02*
X191923809Y-88952380D01*
X191828571Y-89095238D01*
X191733333Y-89190476D01*
X191638095Y-89238095D01*
X193066666Y-89285714D02*
X193066666Y-89952380D01*
X192828571Y-88904761D02*
X192590476Y-89619047D01*
X193209523Y-89619047D01*
G04 #@! TO.C,J8*
X183507380Y-144733333D02*
X184221666Y-144733333D01*
X184364523Y-144780952D01*
X184459761Y-144876190D01*
X184507380Y-145019047D01*
X184507380Y-145114285D01*
X183935952Y-144114285D02*
X183888333Y-144209523D01*
X183840714Y-144257142D01*
X183745476Y-144304761D01*
X183697857Y-144304761D01*
X183602619Y-144257142D01*
X183555000Y-144209523D01*
X183507380Y-144114285D01*
X183507380Y-143923809D01*
X183555000Y-143828571D01*
X183602619Y-143780952D01*
X183697857Y-143733333D01*
X183745476Y-143733333D01*
X183840714Y-143780952D01*
X183888333Y-143828571D01*
X183935952Y-143923809D01*
X183935952Y-144114285D01*
X183983571Y-144209523D01*
X184031190Y-144257142D01*
X184126428Y-144304761D01*
X184316904Y-144304761D01*
X184412142Y-144257142D01*
X184459761Y-144209523D01*
X184507380Y-144114285D01*
X184507380Y-143923809D01*
X184459761Y-143828571D01*
X184412142Y-143780952D01*
X184316904Y-143733333D01*
X184126428Y-143733333D01*
X184031190Y-143780952D01*
X183983571Y-143828571D01*
X183935952Y-143923809D01*
G04 #@! TO.C,R63*
X181457142Y-84952380D02*
X181123809Y-84476190D01*
X180885714Y-84952380D02*
X180885714Y-83952380D01*
X181266666Y-83952380D01*
X181361904Y-84000000D01*
X181409523Y-84047619D01*
X181457142Y-84142857D01*
X181457142Y-84285714D01*
X181409523Y-84380952D01*
X181361904Y-84428571D01*
X181266666Y-84476190D01*
X180885714Y-84476190D01*
X182314285Y-83952380D02*
X182123809Y-83952380D01*
X182028571Y-84000000D01*
X181980952Y-84047619D01*
X181885714Y-84190476D01*
X181838095Y-84380952D01*
X181838095Y-84761904D01*
X181885714Y-84857142D01*
X181933333Y-84904761D01*
X182028571Y-84952380D01*
X182219047Y-84952380D01*
X182314285Y-84904761D01*
X182361904Y-84857142D01*
X182409523Y-84761904D01*
X182409523Y-84523809D01*
X182361904Y-84428571D01*
X182314285Y-84380952D01*
X182219047Y-84333333D01*
X182028571Y-84333333D01*
X181933333Y-84380952D01*
X181885714Y-84428571D01*
X181838095Y-84523809D01*
X182742857Y-83952380D02*
X183361904Y-83952380D01*
X183028571Y-84333333D01*
X183171428Y-84333333D01*
X183266666Y-84380952D01*
X183314285Y-84428571D01*
X183361904Y-84523809D01*
X183361904Y-84761904D01*
X183314285Y-84857142D01*
X183266666Y-84904761D01*
X183171428Y-84952380D01*
X182885714Y-84952380D01*
X182790476Y-84904761D01*
X182742857Y-84857142D01*
G04 #@! TO.C,R16*
X191257142Y-95052380D02*
X190923809Y-94576190D01*
X190685714Y-95052380D02*
X190685714Y-94052380D01*
X191066666Y-94052380D01*
X191161904Y-94100000D01*
X191209523Y-94147619D01*
X191257142Y-94242857D01*
X191257142Y-94385714D01*
X191209523Y-94480952D01*
X191161904Y-94528571D01*
X191066666Y-94576190D01*
X190685714Y-94576190D01*
X192209523Y-95052380D02*
X191638095Y-95052380D01*
X191923809Y-95052380D02*
X191923809Y-94052380D01*
X191828571Y-94195238D01*
X191733333Y-94290476D01*
X191638095Y-94338095D01*
X193066666Y-94052380D02*
X192876190Y-94052380D01*
X192780952Y-94100000D01*
X192733333Y-94147619D01*
X192638095Y-94290476D01*
X192590476Y-94480952D01*
X192590476Y-94861904D01*
X192638095Y-94957142D01*
X192685714Y-95004761D01*
X192780952Y-95052380D01*
X192971428Y-95052380D01*
X193066666Y-95004761D01*
X193114285Y-94957142D01*
X193161904Y-94861904D01*
X193161904Y-94623809D01*
X193114285Y-94528571D01*
X193066666Y-94480952D01*
X192971428Y-94433333D01*
X192780952Y-94433333D01*
X192685714Y-94480952D01*
X192638095Y-94528571D01*
X192590476Y-94623809D01*
G04 #@! TO.C,C3*
X164533333Y-98457142D02*
X164485714Y-98504761D01*
X164342857Y-98552380D01*
X164247619Y-98552380D01*
X164104761Y-98504761D01*
X164009523Y-98409523D01*
X163961904Y-98314285D01*
X163914285Y-98123809D01*
X163914285Y-97980952D01*
X163961904Y-97790476D01*
X164009523Y-97695238D01*
X164104761Y-97600000D01*
X164247619Y-97552380D01*
X164342857Y-97552380D01*
X164485714Y-97600000D01*
X164533333Y-97647619D01*
X164866666Y-97552380D02*
X165485714Y-97552380D01*
X165152380Y-97933333D01*
X165295238Y-97933333D01*
X165390476Y-97980952D01*
X165438095Y-98028571D01*
X165485714Y-98123809D01*
X165485714Y-98361904D01*
X165438095Y-98457142D01*
X165390476Y-98504761D01*
X165295238Y-98552380D01*
X165009523Y-98552380D01*
X164914285Y-98504761D01*
X164866666Y-98457142D01*
G04 #@! TO.C,R48*
X107257142Y-84252380D02*
X106923809Y-83776190D01*
X106685714Y-84252380D02*
X106685714Y-83252380D01*
X107066666Y-83252380D01*
X107161904Y-83300000D01*
X107209523Y-83347619D01*
X107257142Y-83442857D01*
X107257142Y-83585714D01*
X107209523Y-83680952D01*
X107161904Y-83728571D01*
X107066666Y-83776190D01*
X106685714Y-83776190D01*
X108114285Y-83585714D02*
X108114285Y-84252380D01*
X107876190Y-83204761D02*
X107638095Y-83919047D01*
X108257142Y-83919047D01*
X108780952Y-83680952D02*
X108685714Y-83633333D01*
X108638095Y-83585714D01*
X108590476Y-83490476D01*
X108590476Y-83442857D01*
X108638095Y-83347619D01*
X108685714Y-83300000D01*
X108780952Y-83252380D01*
X108971428Y-83252380D01*
X109066666Y-83300000D01*
X109114285Y-83347619D01*
X109161904Y-83442857D01*
X109161904Y-83490476D01*
X109114285Y-83585714D01*
X109066666Y-83633333D01*
X108971428Y-83680952D01*
X108780952Y-83680952D01*
X108685714Y-83728571D01*
X108638095Y-83776190D01*
X108590476Y-83871428D01*
X108590476Y-84061904D01*
X108638095Y-84157142D01*
X108685714Y-84204761D01*
X108780952Y-84252380D01*
X108971428Y-84252380D01*
X109066666Y-84204761D01*
X109114285Y-84157142D01*
X109161904Y-84061904D01*
X109161904Y-83871428D01*
X109114285Y-83776190D01*
X109066666Y-83728571D01*
X108971428Y-83680952D01*
G04 #@! TO.C,R29*
X120357142Y-102052380D02*
X120023809Y-101576190D01*
X119785714Y-102052380D02*
X119785714Y-101052380D01*
X120166666Y-101052380D01*
X120261904Y-101100000D01*
X120309523Y-101147619D01*
X120357142Y-101242857D01*
X120357142Y-101385714D01*
X120309523Y-101480952D01*
X120261904Y-101528571D01*
X120166666Y-101576190D01*
X119785714Y-101576190D01*
X120738095Y-101147619D02*
X120785714Y-101100000D01*
X120880952Y-101052380D01*
X121119047Y-101052380D01*
X121214285Y-101100000D01*
X121261904Y-101147619D01*
X121309523Y-101242857D01*
X121309523Y-101338095D01*
X121261904Y-101480952D01*
X120690476Y-102052380D01*
X121309523Y-102052380D01*
X121785714Y-102052380D02*
X121976190Y-102052380D01*
X122071428Y-102004761D01*
X122119047Y-101957142D01*
X122214285Y-101814285D01*
X122261904Y-101623809D01*
X122261904Y-101242857D01*
X122214285Y-101147619D01*
X122166666Y-101100000D01*
X122071428Y-101052380D01*
X121880952Y-101052380D01*
X121785714Y-101100000D01*
X121738095Y-101147619D01*
X121690476Y-101242857D01*
X121690476Y-101480952D01*
X121738095Y-101576190D01*
X121785714Y-101623809D01*
X121880952Y-101671428D01*
X122071428Y-101671428D01*
X122166666Y-101623809D01*
X122214285Y-101576190D01*
X122261904Y-101480952D01*
G04 #@! TO.C,U3*
X102908626Y-51606124D02*
X102908626Y-52415960D01*
X102956263Y-52511235D01*
X103003901Y-52558873D01*
X103099175Y-52606510D01*
X103289725Y-52606510D01*
X103385000Y-52558873D01*
X103432637Y-52511235D01*
X103480275Y-52415960D01*
X103480275Y-51606124D01*
X103861374Y-51606124D02*
X104480661Y-51606124D01*
X104147199Y-51987224D01*
X104290111Y-51987224D01*
X104385386Y-52034861D01*
X104433023Y-52082498D01*
X104480661Y-52177773D01*
X104480661Y-52415960D01*
X104433023Y-52511235D01*
X104385386Y-52558873D01*
X104290111Y-52606510D01*
X104004287Y-52606510D01*
X103909012Y-52558873D01*
X103861374Y-52511235D01*
G04 #@! TO.C,R23*
X120357142Y-66352380D02*
X120023809Y-65876190D01*
X119785714Y-66352380D02*
X119785714Y-65352380D01*
X120166666Y-65352380D01*
X120261904Y-65400000D01*
X120309523Y-65447619D01*
X120357142Y-65542857D01*
X120357142Y-65685714D01*
X120309523Y-65780952D01*
X120261904Y-65828571D01*
X120166666Y-65876190D01*
X119785714Y-65876190D01*
X120738095Y-65447619D02*
X120785714Y-65400000D01*
X120880952Y-65352380D01*
X121119047Y-65352380D01*
X121214285Y-65400000D01*
X121261904Y-65447619D01*
X121309523Y-65542857D01*
X121309523Y-65638095D01*
X121261904Y-65780952D01*
X120690476Y-66352380D01*
X121309523Y-66352380D01*
X121642857Y-65352380D02*
X122261904Y-65352380D01*
X121928571Y-65733333D01*
X122071428Y-65733333D01*
X122166666Y-65780952D01*
X122214285Y-65828571D01*
X122261904Y-65923809D01*
X122261904Y-66161904D01*
X122214285Y-66257142D01*
X122166666Y-66304761D01*
X122071428Y-66352380D01*
X121785714Y-66352380D01*
X121690476Y-66304761D01*
X121642857Y-66257142D01*
G04 #@! TO.C,J6*
X113866666Y-144702380D02*
X113866666Y-145416666D01*
X113819047Y-145559523D01*
X113723809Y-145654761D01*
X113580952Y-145702380D01*
X113485714Y-145702380D01*
X114771428Y-144702380D02*
X114580952Y-144702380D01*
X114485714Y-144750000D01*
X114438095Y-144797619D01*
X114342857Y-144940476D01*
X114295238Y-145130952D01*
X114295238Y-145511904D01*
X114342857Y-145607142D01*
X114390476Y-145654761D01*
X114485714Y-145702380D01*
X114676190Y-145702380D01*
X114771428Y-145654761D01*
X114819047Y-145607142D01*
X114866666Y-145511904D01*
X114866666Y-145273809D01*
X114819047Y-145178571D01*
X114771428Y-145130952D01*
X114676190Y-145083333D01*
X114485714Y-145083333D01*
X114390476Y-145130952D01*
X114342857Y-145178571D01*
X114295238Y-145273809D01*
G04 #@! TO.C,R9*
X192333333Y-77352380D02*
X192000000Y-76876190D01*
X191761904Y-77352380D02*
X191761904Y-76352380D01*
X192142857Y-76352380D01*
X192238095Y-76400000D01*
X192285714Y-76447619D01*
X192333333Y-76542857D01*
X192333333Y-76685714D01*
X192285714Y-76780952D01*
X192238095Y-76828571D01*
X192142857Y-76876190D01*
X191761904Y-76876190D01*
X192809523Y-77352380D02*
X193000000Y-77352380D01*
X193095238Y-77304761D01*
X193142857Y-77257142D01*
X193238095Y-77114285D01*
X193285714Y-76923809D01*
X193285714Y-76542857D01*
X193238095Y-76447619D01*
X193190476Y-76400000D01*
X193095238Y-76352380D01*
X192904761Y-76352380D01*
X192809523Y-76400000D01*
X192761904Y-76447619D01*
X192714285Y-76542857D01*
X192714285Y-76780952D01*
X192761904Y-76876190D01*
X192809523Y-76923809D01*
X192904761Y-76971428D01*
X193095238Y-76971428D01*
X193190476Y-76923809D01*
X193238095Y-76876190D01*
X193285714Y-76780952D01*
G04 #@! TO.C,R24*
X120157142Y-68952380D02*
X119823809Y-68476190D01*
X119585714Y-68952380D02*
X119585714Y-67952380D01*
X119966666Y-67952380D01*
X120061904Y-68000000D01*
X120109523Y-68047619D01*
X120157142Y-68142857D01*
X120157142Y-68285714D01*
X120109523Y-68380952D01*
X120061904Y-68428571D01*
X119966666Y-68476190D01*
X119585714Y-68476190D01*
X120538095Y-68047619D02*
X120585714Y-68000000D01*
X120680952Y-67952380D01*
X120919047Y-67952380D01*
X121014285Y-68000000D01*
X121061904Y-68047619D01*
X121109523Y-68142857D01*
X121109523Y-68238095D01*
X121061904Y-68380952D01*
X120490476Y-68952380D01*
X121109523Y-68952380D01*
X121966666Y-68285714D02*
X121966666Y-68952380D01*
X121728571Y-67904761D02*
X121490476Y-68619047D01*
X122109523Y-68619047D01*
G04 #@! TO.C,U1*
X151238095Y-96002380D02*
X151238095Y-96811904D01*
X151285714Y-96907142D01*
X151333333Y-96954761D01*
X151428571Y-97002380D01*
X151619047Y-97002380D01*
X151714285Y-96954761D01*
X151761904Y-96907142D01*
X151809523Y-96811904D01*
X151809523Y-96002380D01*
X152809523Y-97002380D02*
X152238095Y-97002380D01*
X152523809Y-97002380D02*
X152523809Y-96002380D01*
X152428571Y-96145238D01*
X152333333Y-96240476D01*
X152238095Y-96288095D01*
G04 #@! TO.C,R70*
X182057142Y-102852380D02*
X181723809Y-102376190D01*
X181485714Y-102852380D02*
X181485714Y-101852380D01*
X181866666Y-101852380D01*
X181961904Y-101900000D01*
X182009523Y-101947619D01*
X182057142Y-102042857D01*
X182057142Y-102185714D01*
X182009523Y-102280952D01*
X181961904Y-102328571D01*
X181866666Y-102376190D01*
X181485714Y-102376190D01*
X182390476Y-101852380D02*
X183057142Y-101852380D01*
X182628571Y-102852380D01*
X183628571Y-101852380D02*
X183723809Y-101852380D01*
X183819047Y-101900000D01*
X183866666Y-101947619D01*
X183914285Y-102042857D01*
X183961904Y-102233333D01*
X183961904Y-102471428D01*
X183914285Y-102661904D01*
X183866666Y-102757142D01*
X183819047Y-102804761D01*
X183723809Y-102852380D01*
X183628571Y-102852380D01*
X183533333Y-102804761D01*
X183485714Y-102757142D01*
X183438095Y-102661904D01*
X183390476Y-102471428D01*
X183390476Y-102233333D01*
X183438095Y-102042857D01*
X183485714Y-101947619D01*
X183533333Y-101900000D01*
X183628571Y-101852380D01*
G04 #@! TO.C,R39*
X142822380Y-55242857D02*
X142346190Y-55576190D01*
X142822380Y-55814285D02*
X141822380Y-55814285D01*
X141822380Y-55433333D01*
X141870000Y-55338095D01*
X141917619Y-55290476D01*
X142012857Y-55242857D01*
X142155714Y-55242857D01*
X142250952Y-55290476D01*
X142298571Y-55338095D01*
X142346190Y-55433333D01*
X142346190Y-55814285D01*
X141822380Y-54909523D02*
X141822380Y-54290476D01*
X142203333Y-54623809D01*
X142203333Y-54480952D01*
X142250952Y-54385714D01*
X142298571Y-54338095D01*
X142393809Y-54290476D01*
X142631904Y-54290476D01*
X142727142Y-54338095D01*
X142774761Y-54385714D01*
X142822380Y-54480952D01*
X142822380Y-54766666D01*
X142774761Y-54861904D01*
X142727142Y-54909523D01*
X142822380Y-53814285D02*
X142822380Y-53623809D01*
X142774761Y-53528571D01*
X142727142Y-53480952D01*
X142584285Y-53385714D01*
X142393809Y-53338095D01*
X142012857Y-53338095D01*
X141917619Y-53385714D01*
X141870000Y-53433333D01*
X141822380Y-53528571D01*
X141822380Y-53719047D01*
X141870000Y-53814285D01*
X141917619Y-53861904D01*
X142012857Y-53909523D01*
X142250952Y-53909523D01*
X142346190Y-53861904D01*
X142393809Y-53814285D01*
X142441428Y-53719047D01*
X142441428Y-53528571D01*
X142393809Y-53433333D01*
X142346190Y-53385714D01*
X142250952Y-53338095D01*
G04 #@! TO.C,R22*
X120357142Y-63852380D02*
X120023809Y-63376190D01*
X119785714Y-63852380D02*
X119785714Y-62852380D01*
X120166666Y-62852380D01*
X120261904Y-62900000D01*
X120309523Y-62947619D01*
X120357142Y-63042857D01*
X120357142Y-63185714D01*
X120309523Y-63280952D01*
X120261904Y-63328571D01*
X120166666Y-63376190D01*
X119785714Y-63376190D01*
X120738095Y-62947619D02*
X120785714Y-62900000D01*
X120880952Y-62852380D01*
X121119047Y-62852380D01*
X121214285Y-62900000D01*
X121261904Y-62947619D01*
X121309523Y-63042857D01*
X121309523Y-63138095D01*
X121261904Y-63280952D01*
X120690476Y-63852380D01*
X121309523Y-63852380D01*
X121690476Y-62947619D02*
X121738095Y-62900000D01*
X121833333Y-62852380D01*
X122071428Y-62852380D01*
X122166666Y-62900000D01*
X122214285Y-62947619D01*
X122261904Y-63042857D01*
X122261904Y-63138095D01*
X122214285Y-63280952D01*
X121642857Y-63852380D01*
X122261904Y-63852380D01*
G04 #@! TO.C,R79*
X137357142Y-133652380D02*
X137023809Y-133176190D01*
X136785714Y-133652380D02*
X136785714Y-132652380D01*
X137166666Y-132652380D01*
X137261904Y-132700000D01*
X137309523Y-132747619D01*
X137357142Y-132842857D01*
X137357142Y-132985714D01*
X137309523Y-133080952D01*
X137261904Y-133128571D01*
X137166666Y-133176190D01*
X136785714Y-133176190D01*
X137690476Y-132652380D02*
X138357142Y-132652380D01*
X137928571Y-133652380D01*
X138785714Y-133652380D02*
X138976190Y-133652380D01*
X139071428Y-133604761D01*
X139119047Y-133557142D01*
X139214285Y-133414285D01*
X139261904Y-133223809D01*
X139261904Y-132842857D01*
X139214285Y-132747619D01*
X139166666Y-132700000D01*
X139071428Y-132652380D01*
X138880952Y-132652380D01*
X138785714Y-132700000D01*
X138738095Y-132747619D01*
X138690476Y-132842857D01*
X138690476Y-133080952D01*
X138738095Y-133176190D01*
X138785714Y-133223809D01*
X138880952Y-133271428D01*
X139071428Y-133271428D01*
X139166666Y-133223809D01*
X139214285Y-133176190D01*
X139261904Y-133080952D01*
G04 #@! TO.C,C19*
X132357142Y-116287142D02*
X132309523Y-116334761D01*
X132166666Y-116382380D01*
X132071428Y-116382380D01*
X131928571Y-116334761D01*
X131833333Y-116239523D01*
X131785714Y-116144285D01*
X131738095Y-115953809D01*
X131738095Y-115810952D01*
X131785714Y-115620476D01*
X131833333Y-115525238D01*
X131928571Y-115430000D01*
X132071428Y-115382380D01*
X132166666Y-115382380D01*
X132309523Y-115430000D01*
X132357142Y-115477619D01*
X133309523Y-116382380D02*
X132738095Y-116382380D01*
X133023809Y-116382380D02*
X133023809Y-115382380D01*
X132928571Y-115525238D01*
X132833333Y-115620476D01*
X132738095Y-115668095D01*
X133785714Y-116382380D02*
X133976190Y-116382380D01*
X134071428Y-116334761D01*
X134119047Y-116287142D01*
X134214285Y-116144285D01*
X134261904Y-115953809D01*
X134261904Y-115572857D01*
X134214285Y-115477619D01*
X134166666Y-115430000D01*
X134071428Y-115382380D01*
X133880952Y-115382380D01*
X133785714Y-115430000D01*
X133738095Y-115477619D01*
X133690476Y-115572857D01*
X133690476Y-115810952D01*
X133738095Y-115906190D01*
X133785714Y-115953809D01*
X133880952Y-116001428D01*
X134071428Y-116001428D01*
X134166666Y-115953809D01*
X134214285Y-115906190D01*
X134261904Y-115810952D01*
G04 #@! TO.C,R8*
X192233333Y-74752380D02*
X191900000Y-74276190D01*
X191661904Y-74752380D02*
X191661904Y-73752380D01*
X192042857Y-73752380D01*
X192138095Y-73800000D01*
X192185714Y-73847619D01*
X192233333Y-73942857D01*
X192233333Y-74085714D01*
X192185714Y-74180952D01*
X192138095Y-74228571D01*
X192042857Y-74276190D01*
X191661904Y-74276190D01*
X192804761Y-74180952D02*
X192709523Y-74133333D01*
X192661904Y-74085714D01*
X192614285Y-73990476D01*
X192614285Y-73942857D01*
X192661904Y-73847619D01*
X192709523Y-73800000D01*
X192804761Y-73752380D01*
X192995238Y-73752380D01*
X193090476Y-73800000D01*
X193138095Y-73847619D01*
X193185714Y-73942857D01*
X193185714Y-73990476D01*
X193138095Y-74085714D01*
X193090476Y-74133333D01*
X192995238Y-74180952D01*
X192804761Y-74180952D01*
X192709523Y-74228571D01*
X192661904Y-74276190D01*
X192614285Y-74371428D01*
X192614285Y-74561904D01*
X192661904Y-74657142D01*
X192709523Y-74704761D01*
X192804761Y-74752380D01*
X192995238Y-74752380D01*
X193090476Y-74704761D01*
X193138095Y-74657142D01*
X193185714Y-74561904D01*
X193185714Y-74371428D01*
X193138095Y-74276190D01*
X193090476Y-74228571D01*
X192995238Y-74180952D01*
G04 #@! TO.C,R78*
X124352380Y-133542857D02*
X123876190Y-133876190D01*
X124352380Y-134114285D02*
X123352380Y-134114285D01*
X123352380Y-133733333D01*
X123400000Y-133638095D01*
X123447619Y-133590476D01*
X123542857Y-133542857D01*
X123685714Y-133542857D01*
X123780952Y-133590476D01*
X123828571Y-133638095D01*
X123876190Y-133733333D01*
X123876190Y-134114285D01*
X123352380Y-133209523D02*
X123352380Y-132542857D01*
X124352380Y-132971428D01*
X123780952Y-132019047D02*
X123733333Y-132114285D01*
X123685714Y-132161904D01*
X123590476Y-132209523D01*
X123542857Y-132209523D01*
X123447619Y-132161904D01*
X123400000Y-132114285D01*
X123352380Y-132019047D01*
X123352380Y-131828571D01*
X123400000Y-131733333D01*
X123447619Y-131685714D01*
X123542857Y-131638095D01*
X123590476Y-131638095D01*
X123685714Y-131685714D01*
X123733333Y-131733333D01*
X123780952Y-131828571D01*
X123780952Y-132019047D01*
X123828571Y-132114285D01*
X123876190Y-132161904D01*
X123971428Y-132209523D01*
X124161904Y-132209523D01*
X124257142Y-132161904D01*
X124304761Y-132114285D01*
X124352380Y-132019047D01*
X124352380Y-131828571D01*
X124304761Y-131733333D01*
X124257142Y-131685714D01*
X124161904Y-131638095D01*
X123971428Y-131638095D01*
X123876190Y-131685714D01*
X123828571Y-131733333D01*
X123780952Y-131828571D01*
G04 #@! TO.C,C20*
X132357142Y-107427142D02*
X132309523Y-107474761D01*
X132166666Y-107522380D01*
X132071428Y-107522380D01*
X131928571Y-107474761D01*
X131833333Y-107379523D01*
X131785714Y-107284285D01*
X131738095Y-107093809D01*
X131738095Y-106950952D01*
X131785714Y-106760476D01*
X131833333Y-106665238D01*
X131928571Y-106570000D01*
X132071428Y-106522380D01*
X132166666Y-106522380D01*
X132309523Y-106570000D01*
X132357142Y-106617619D01*
X132738095Y-106617619D02*
X132785714Y-106570000D01*
X132880952Y-106522380D01*
X133119047Y-106522380D01*
X133214285Y-106570000D01*
X133261904Y-106617619D01*
X133309523Y-106712857D01*
X133309523Y-106808095D01*
X133261904Y-106950952D01*
X132690476Y-107522380D01*
X133309523Y-107522380D01*
X133928571Y-106522380D02*
X134023809Y-106522380D01*
X134119047Y-106570000D01*
X134166666Y-106617619D01*
X134214285Y-106712857D01*
X134261904Y-106903333D01*
X134261904Y-107141428D01*
X134214285Y-107331904D01*
X134166666Y-107427142D01*
X134119047Y-107474761D01*
X134023809Y-107522380D01*
X133928571Y-107522380D01*
X133833333Y-107474761D01*
X133785714Y-107427142D01*
X133738095Y-107331904D01*
X133690476Y-107141428D01*
X133690476Y-106903333D01*
X133738095Y-106712857D01*
X133785714Y-106617619D01*
X133833333Y-106570000D01*
X133928571Y-106522380D01*
G04 #@! TO.C,R45*
X108157142Y-76652380D02*
X107823809Y-76176190D01*
X107585714Y-76652380D02*
X107585714Y-75652380D01*
X107966666Y-75652380D01*
X108061904Y-75700000D01*
X108109523Y-75747619D01*
X108157142Y-75842857D01*
X108157142Y-75985714D01*
X108109523Y-76080952D01*
X108061904Y-76128571D01*
X107966666Y-76176190D01*
X107585714Y-76176190D01*
X109014285Y-75985714D02*
X109014285Y-76652380D01*
X108776190Y-75604761D02*
X108538095Y-76319047D01*
X109157142Y-76319047D01*
X110014285Y-75652380D02*
X109538095Y-75652380D01*
X109490476Y-76128571D01*
X109538095Y-76080952D01*
X109633333Y-76033333D01*
X109871428Y-76033333D01*
X109966666Y-76080952D01*
X110014285Y-76128571D01*
X110061904Y-76223809D01*
X110061904Y-76461904D01*
X110014285Y-76557142D01*
X109966666Y-76604761D01*
X109871428Y-76652380D01*
X109633333Y-76652380D01*
X109538095Y-76604761D01*
X109490476Y-76557142D01*
G04 #@! TO.C,R20*
X191157142Y-105252380D02*
X190823809Y-104776190D01*
X190585714Y-105252380D02*
X190585714Y-104252380D01*
X190966666Y-104252380D01*
X191061904Y-104300000D01*
X191109523Y-104347619D01*
X191157142Y-104442857D01*
X191157142Y-104585714D01*
X191109523Y-104680952D01*
X191061904Y-104728571D01*
X190966666Y-104776190D01*
X190585714Y-104776190D01*
X191538095Y-104347619D02*
X191585714Y-104300000D01*
X191680952Y-104252380D01*
X191919047Y-104252380D01*
X192014285Y-104300000D01*
X192061904Y-104347619D01*
X192109523Y-104442857D01*
X192109523Y-104538095D01*
X192061904Y-104680952D01*
X191490476Y-105252380D01*
X192109523Y-105252380D01*
X192728571Y-104252380D02*
X192823809Y-104252380D01*
X192919047Y-104300000D01*
X192966666Y-104347619D01*
X193014285Y-104442857D01*
X193061904Y-104633333D01*
X193061904Y-104871428D01*
X193014285Y-105061904D01*
X192966666Y-105157142D01*
X192919047Y-105204761D01*
X192823809Y-105252380D01*
X192728571Y-105252380D01*
X192633333Y-105204761D01*
X192585714Y-105157142D01*
X192538095Y-105061904D01*
X192490476Y-104871428D01*
X192490476Y-104633333D01*
X192538095Y-104442857D01*
X192585714Y-104347619D01*
X192633333Y-104300000D01*
X192728571Y-104252380D01*
G04 #@! TO.C,R42*
X107357142Y-69052380D02*
X107023809Y-68576190D01*
X106785714Y-69052380D02*
X106785714Y-68052380D01*
X107166666Y-68052380D01*
X107261904Y-68100000D01*
X107309523Y-68147619D01*
X107357142Y-68242857D01*
X107357142Y-68385714D01*
X107309523Y-68480952D01*
X107261904Y-68528571D01*
X107166666Y-68576190D01*
X106785714Y-68576190D01*
X108214285Y-68385714D02*
X108214285Y-69052380D01*
X107976190Y-68004761D02*
X107738095Y-68719047D01*
X108357142Y-68719047D01*
X108690476Y-68147619D02*
X108738095Y-68100000D01*
X108833333Y-68052380D01*
X109071428Y-68052380D01*
X109166666Y-68100000D01*
X109214285Y-68147619D01*
X109261904Y-68242857D01*
X109261904Y-68338095D01*
X109214285Y-68480952D01*
X108642857Y-69052380D01*
X109261904Y-69052380D01*
G04 #@! TO.C,R46*
X108257142Y-79152380D02*
X107923809Y-78676190D01*
X107685714Y-79152380D02*
X107685714Y-78152380D01*
X108066666Y-78152380D01*
X108161904Y-78200000D01*
X108209523Y-78247619D01*
X108257142Y-78342857D01*
X108257142Y-78485714D01*
X108209523Y-78580952D01*
X108161904Y-78628571D01*
X108066666Y-78676190D01*
X107685714Y-78676190D01*
X109114285Y-78485714D02*
X109114285Y-79152380D01*
X108876190Y-78104761D02*
X108638095Y-78819047D01*
X109257142Y-78819047D01*
X110066666Y-78152380D02*
X109876190Y-78152380D01*
X109780952Y-78200000D01*
X109733333Y-78247619D01*
X109638095Y-78390476D01*
X109590476Y-78580952D01*
X109590476Y-78961904D01*
X109638095Y-79057142D01*
X109685714Y-79104761D01*
X109780952Y-79152380D01*
X109971428Y-79152380D01*
X110066666Y-79104761D01*
X110114285Y-79057142D01*
X110161904Y-78961904D01*
X110161904Y-78723809D01*
X110114285Y-78628571D01*
X110066666Y-78580952D01*
X109971428Y-78533333D01*
X109780952Y-78533333D01*
X109685714Y-78580952D01*
X109638095Y-78628571D01*
X109590476Y-78723809D01*
G04 #@! TO.C,C8*
X150233333Y-123757142D02*
X150185714Y-123804761D01*
X150042857Y-123852380D01*
X149947619Y-123852380D01*
X149804761Y-123804761D01*
X149709523Y-123709523D01*
X149661904Y-123614285D01*
X149614285Y-123423809D01*
X149614285Y-123280952D01*
X149661904Y-123090476D01*
X149709523Y-122995238D01*
X149804761Y-122900000D01*
X149947619Y-122852380D01*
X150042857Y-122852380D01*
X150185714Y-122900000D01*
X150233333Y-122947619D01*
X150804761Y-123280952D02*
X150709523Y-123233333D01*
X150661904Y-123185714D01*
X150614285Y-123090476D01*
X150614285Y-123042857D01*
X150661904Y-122947619D01*
X150709523Y-122900000D01*
X150804761Y-122852380D01*
X150995238Y-122852380D01*
X151090476Y-122900000D01*
X151138095Y-122947619D01*
X151185714Y-123042857D01*
X151185714Y-123090476D01*
X151138095Y-123185714D01*
X151090476Y-123233333D01*
X150995238Y-123280952D01*
X150804761Y-123280952D01*
X150709523Y-123328571D01*
X150661904Y-123376190D01*
X150614285Y-123471428D01*
X150614285Y-123661904D01*
X150661904Y-123757142D01*
X150709523Y-123804761D01*
X150804761Y-123852380D01*
X150995238Y-123852380D01*
X151090476Y-123804761D01*
X151138095Y-123757142D01*
X151185714Y-123661904D01*
X151185714Y-123471428D01*
X151138095Y-123376190D01*
X151090476Y-123328571D01*
X150995238Y-123280952D01*
G04 #@! TO.C,J4*
X198582380Y-133033333D02*
X199296666Y-133033333D01*
X199439523Y-133080952D01*
X199534761Y-133176190D01*
X199582380Y-133319047D01*
X199582380Y-133414285D01*
X198915714Y-132128571D02*
X199582380Y-132128571D01*
X198534761Y-132366666D02*
X199249047Y-132604761D01*
X199249047Y-131985714D01*
G04 #@! TO.C,R26*
X118657142Y-73852380D02*
X118323809Y-73376190D01*
X118085714Y-73852380D02*
X118085714Y-72852380D01*
X118466666Y-72852380D01*
X118561904Y-72900000D01*
X118609523Y-72947619D01*
X118657142Y-73042857D01*
X118657142Y-73185714D01*
X118609523Y-73280952D01*
X118561904Y-73328571D01*
X118466666Y-73376190D01*
X118085714Y-73376190D01*
X119038095Y-72947619D02*
X119085714Y-72900000D01*
X119180952Y-72852380D01*
X119419047Y-72852380D01*
X119514285Y-72900000D01*
X119561904Y-72947619D01*
X119609523Y-73042857D01*
X119609523Y-73138095D01*
X119561904Y-73280952D01*
X118990476Y-73852380D01*
X119609523Y-73852380D01*
X120466666Y-72852380D02*
X120276190Y-72852380D01*
X120180952Y-72900000D01*
X120133333Y-72947619D01*
X120038095Y-73090476D01*
X119990476Y-73280952D01*
X119990476Y-73661904D01*
X120038095Y-73757142D01*
X120085714Y-73804761D01*
X120180952Y-73852380D01*
X120371428Y-73852380D01*
X120466666Y-73804761D01*
X120514285Y-73757142D01*
X120561904Y-73661904D01*
X120561904Y-73423809D01*
X120514285Y-73328571D01*
X120466666Y-73280952D01*
X120371428Y-73233333D01*
X120180952Y-73233333D01*
X120085714Y-73280952D01*
X120038095Y-73328571D01*
X119990476Y-73423809D01*
G04 #@! TO.C,R34*
X120357142Y-84252380D02*
X120023809Y-83776190D01*
X119785714Y-84252380D02*
X119785714Y-83252380D01*
X120166666Y-83252380D01*
X120261904Y-83300000D01*
X120309523Y-83347619D01*
X120357142Y-83442857D01*
X120357142Y-83585714D01*
X120309523Y-83680952D01*
X120261904Y-83728571D01*
X120166666Y-83776190D01*
X119785714Y-83776190D01*
X120690476Y-83252380D02*
X121309523Y-83252380D01*
X120976190Y-83633333D01*
X121119047Y-83633333D01*
X121214285Y-83680952D01*
X121261904Y-83728571D01*
X121309523Y-83823809D01*
X121309523Y-84061904D01*
X121261904Y-84157142D01*
X121214285Y-84204761D01*
X121119047Y-84252380D01*
X120833333Y-84252380D01*
X120738095Y-84204761D01*
X120690476Y-84157142D01*
X122166666Y-83585714D02*
X122166666Y-84252380D01*
X121928571Y-83204761D02*
X121690476Y-83919047D01*
X122309523Y-83919047D01*
G04 #@! TO.C,SW1*
X135666666Y-51454761D02*
X135809523Y-51502380D01*
X136047619Y-51502380D01*
X136142857Y-51454761D01*
X136190476Y-51407142D01*
X136238095Y-51311904D01*
X136238095Y-51216666D01*
X136190476Y-51121428D01*
X136142857Y-51073809D01*
X136047619Y-51026190D01*
X135857142Y-50978571D01*
X135761904Y-50930952D01*
X135714285Y-50883333D01*
X135666666Y-50788095D01*
X135666666Y-50692857D01*
X135714285Y-50597619D01*
X135761904Y-50550000D01*
X135857142Y-50502380D01*
X136095238Y-50502380D01*
X136238095Y-50550000D01*
X136571428Y-50502380D02*
X136809523Y-51502380D01*
X137000000Y-50788095D01*
X137190476Y-51502380D01*
X137428571Y-50502380D01*
X138333333Y-51502380D02*
X137761904Y-51502380D01*
X138047619Y-51502380D02*
X138047619Y-50502380D01*
X137952380Y-50645238D01*
X137857142Y-50740476D01*
X137761904Y-50788095D01*
G04 #@! TO.C,R12*
X191257142Y-84952380D02*
X190923809Y-84476190D01*
X190685714Y-84952380D02*
X190685714Y-83952380D01*
X191066666Y-83952380D01*
X191161904Y-84000000D01*
X191209523Y-84047619D01*
X191257142Y-84142857D01*
X191257142Y-84285714D01*
X191209523Y-84380952D01*
X191161904Y-84428571D01*
X191066666Y-84476190D01*
X190685714Y-84476190D01*
X192209523Y-84952380D02*
X191638095Y-84952380D01*
X191923809Y-84952380D02*
X191923809Y-83952380D01*
X191828571Y-84095238D01*
X191733333Y-84190476D01*
X191638095Y-84238095D01*
X192590476Y-84047619D02*
X192638095Y-84000000D01*
X192733333Y-83952380D01*
X192971428Y-83952380D01*
X193066666Y-84000000D01*
X193114285Y-84047619D01*
X193161904Y-84142857D01*
X193161904Y-84238095D01*
X193114285Y-84380952D01*
X192542857Y-84952380D01*
X193161904Y-84952380D01*
G04 #@! TO.C,R75*
X118372380Y-137657857D02*
X117896190Y-137991190D01*
X118372380Y-138229285D02*
X117372380Y-138229285D01*
X117372380Y-137848333D01*
X117420000Y-137753095D01*
X117467619Y-137705476D01*
X117562857Y-137657857D01*
X117705714Y-137657857D01*
X117800952Y-137705476D01*
X117848571Y-137753095D01*
X117896190Y-137848333D01*
X117896190Y-138229285D01*
X117372380Y-137324523D02*
X117372380Y-136657857D01*
X118372380Y-137086428D01*
X117372380Y-135800714D02*
X117372380Y-136276904D01*
X117848571Y-136324523D01*
X117800952Y-136276904D01*
X117753333Y-136181666D01*
X117753333Y-135943571D01*
X117800952Y-135848333D01*
X117848571Y-135800714D01*
X117943809Y-135753095D01*
X118181904Y-135753095D01*
X118277142Y-135800714D01*
X118324761Y-135848333D01*
X118372380Y-135943571D01*
X118372380Y-136181666D01*
X118324761Y-136276904D01*
X118277142Y-136324523D01*
G04 #@! TO.C,C13*
X137757142Y-118342857D02*
X137804761Y-118390476D01*
X137852380Y-118533333D01*
X137852380Y-118628571D01*
X137804761Y-118771428D01*
X137709523Y-118866666D01*
X137614285Y-118914285D01*
X137423809Y-118961904D01*
X137280952Y-118961904D01*
X137090476Y-118914285D01*
X136995238Y-118866666D01*
X136900000Y-118771428D01*
X136852380Y-118628571D01*
X136852380Y-118533333D01*
X136900000Y-118390476D01*
X136947619Y-118342857D01*
X137852380Y-117390476D02*
X137852380Y-117961904D01*
X137852380Y-117676190D02*
X136852380Y-117676190D01*
X136995238Y-117771428D01*
X137090476Y-117866666D01*
X137138095Y-117961904D01*
X136852380Y-117057142D02*
X136852380Y-116438095D01*
X137233333Y-116771428D01*
X137233333Y-116628571D01*
X137280952Y-116533333D01*
X137328571Y-116485714D01*
X137423809Y-116438095D01*
X137661904Y-116438095D01*
X137757142Y-116485714D01*
X137804761Y-116533333D01*
X137852380Y-116628571D01*
X137852380Y-116914285D01*
X137804761Y-117009523D01*
X137757142Y-117057142D01*
G04 #@! TO.C,R38*
X120357142Y-94352380D02*
X120023809Y-93876190D01*
X119785714Y-94352380D02*
X119785714Y-93352380D01*
X120166666Y-93352380D01*
X120261904Y-93400000D01*
X120309523Y-93447619D01*
X120357142Y-93542857D01*
X120357142Y-93685714D01*
X120309523Y-93780952D01*
X120261904Y-93828571D01*
X120166666Y-93876190D01*
X119785714Y-93876190D01*
X120690476Y-93352380D02*
X121309523Y-93352380D01*
X120976190Y-93733333D01*
X121119047Y-93733333D01*
X121214285Y-93780952D01*
X121261904Y-93828571D01*
X121309523Y-93923809D01*
X121309523Y-94161904D01*
X121261904Y-94257142D01*
X121214285Y-94304761D01*
X121119047Y-94352380D01*
X120833333Y-94352380D01*
X120738095Y-94304761D01*
X120690476Y-94257142D01*
X121880952Y-93780952D02*
X121785714Y-93733333D01*
X121738095Y-93685714D01*
X121690476Y-93590476D01*
X121690476Y-93542857D01*
X121738095Y-93447619D01*
X121785714Y-93400000D01*
X121880952Y-93352380D01*
X122071428Y-93352380D01*
X122166666Y-93400000D01*
X122214285Y-93447619D01*
X122261904Y-93542857D01*
X122261904Y-93590476D01*
X122214285Y-93685714D01*
X122166666Y-93733333D01*
X122071428Y-93780952D01*
X121880952Y-93780952D01*
X121785714Y-93828571D01*
X121738095Y-93876190D01*
X121690476Y-93971428D01*
X121690476Y-94161904D01*
X121738095Y-94257142D01*
X121785714Y-94304761D01*
X121880952Y-94352380D01*
X122071428Y-94352380D01*
X122166666Y-94304761D01*
X122214285Y-94257142D01*
X122261904Y-94161904D01*
X122261904Y-93971428D01*
X122214285Y-93876190D01*
X122166666Y-93828571D01*
X122071428Y-93780952D01*
G04 #@! TO.C,R56*
X181157142Y-67252380D02*
X180823809Y-66776190D01*
X180585714Y-67252380D02*
X180585714Y-66252380D01*
X180966666Y-66252380D01*
X181061904Y-66300000D01*
X181109523Y-66347619D01*
X181157142Y-66442857D01*
X181157142Y-66585714D01*
X181109523Y-66680952D01*
X181061904Y-66728571D01*
X180966666Y-66776190D01*
X180585714Y-66776190D01*
X182061904Y-66252380D02*
X181585714Y-66252380D01*
X181538095Y-66728571D01*
X181585714Y-66680952D01*
X181680952Y-66633333D01*
X181919047Y-66633333D01*
X182014285Y-66680952D01*
X182061904Y-66728571D01*
X182109523Y-66823809D01*
X182109523Y-67061904D01*
X182061904Y-67157142D01*
X182014285Y-67204761D01*
X181919047Y-67252380D01*
X181680952Y-67252380D01*
X181585714Y-67204761D01*
X181538095Y-67157142D01*
X182966666Y-66252380D02*
X182776190Y-66252380D01*
X182680952Y-66300000D01*
X182633333Y-66347619D01*
X182538095Y-66490476D01*
X182490476Y-66680952D01*
X182490476Y-67061904D01*
X182538095Y-67157142D01*
X182585714Y-67204761D01*
X182680952Y-67252380D01*
X182871428Y-67252380D01*
X182966666Y-67204761D01*
X183014285Y-67157142D01*
X183061904Y-67061904D01*
X183061904Y-66823809D01*
X183014285Y-66728571D01*
X182966666Y-66680952D01*
X182871428Y-66633333D01*
X182680952Y-66633333D01*
X182585714Y-66680952D01*
X182538095Y-66728571D01*
X182490476Y-66823809D01*
G04 #@! TO.C,R61*
X181257142Y-79752380D02*
X180923809Y-79276190D01*
X180685714Y-79752380D02*
X180685714Y-78752380D01*
X181066666Y-78752380D01*
X181161904Y-78800000D01*
X181209523Y-78847619D01*
X181257142Y-78942857D01*
X181257142Y-79085714D01*
X181209523Y-79180952D01*
X181161904Y-79228571D01*
X181066666Y-79276190D01*
X180685714Y-79276190D01*
X182114285Y-78752380D02*
X181923809Y-78752380D01*
X181828571Y-78800000D01*
X181780952Y-78847619D01*
X181685714Y-78990476D01*
X181638095Y-79180952D01*
X181638095Y-79561904D01*
X181685714Y-79657142D01*
X181733333Y-79704761D01*
X181828571Y-79752380D01*
X182019047Y-79752380D01*
X182114285Y-79704761D01*
X182161904Y-79657142D01*
X182209523Y-79561904D01*
X182209523Y-79323809D01*
X182161904Y-79228571D01*
X182114285Y-79180952D01*
X182019047Y-79133333D01*
X181828571Y-79133333D01*
X181733333Y-79180952D01*
X181685714Y-79228571D01*
X181638095Y-79323809D01*
X183161904Y-79752380D02*
X182590476Y-79752380D01*
X182876190Y-79752380D02*
X182876190Y-78752380D01*
X182780952Y-78895238D01*
X182685714Y-78990476D01*
X182590476Y-79038095D01*
G04 #@! TO.C,R25*
X120257142Y-71552380D02*
X119923809Y-71076190D01*
X119685714Y-71552380D02*
X119685714Y-70552380D01*
X120066666Y-70552380D01*
X120161904Y-70600000D01*
X120209523Y-70647619D01*
X120257142Y-70742857D01*
X120257142Y-70885714D01*
X120209523Y-70980952D01*
X120161904Y-71028571D01*
X120066666Y-71076190D01*
X119685714Y-71076190D01*
X120638095Y-70647619D02*
X120685714Y-70600000D01*
X120780952Y-70552380D01*
X121019047Y-70552380D01*
X121114285Y-70600000D01*
X121161904Y-70647619D01*
X121209523Y-70742857D01*
X121209523Y-70838095D01*
X121161904Y-70980952D01*
X120590476Y-71552380D01*
X121209523Y-71552380D01*
X122114285Y-70552380D02*
X121638095Y-70552380D01*
X121590476Y-71028571D01*
X121638095Y-70980952D01*
X121733333Y-70933333D01*
X121971428Y-70933333D01*
X122066666Y-70980952D01*
X122114285Y-71028571D01*
X122161904Y-71123809D01*
X122161904Y-71361904D01*
X122114285Y-71457142D01*
X122066666Y-71504761D01*
X121971428Y-71552380D01*
X121733333Y-71552380D01*
X121638095Y-71504761D01*
X121590476Y-71457142D01*
G04 #@! TO.C,J12*
X198582380Y-129809523D02*
X199296666Y-129809523D01*
X199439523Y-129857142D01*
X199534761Y-129952380D01*
X199582380Y-130095238D01*
X199582380Y-130190476D01*
X199582380Y-128809523D02*
X199582380Y-129380952D01*
X199582380Y-129095238D02*
X198582380Y-129095238D01*
X198725238Y-129190476D01*
X198820476Y-129285714D01*
X198868095Y-129380952D01*
X198677619Y-128428571D02*
X198630000Y-128380952D01*
X198582380Y-128285714D01*
X198582380Y-128047619D01*
X198630000Y-127952380D01*
X198677619Y-127904761D01*
X198772857Y-127857142D01*
X198868095Y-127857142D01*
X199010952Y-127904761D01*
X199582380Y-128476190D01*
X199582380Y-127857142D01*
G04 #@! TO.C,C10*
X167857142Y-108842857D02*
X167904761Y-108890476D01*
X167952380Y-109033333D01*
X167952380Y-109128571D01*
X167904761Y-109271428D01*
X167809523Y-109366666D01*
X167714285Y-109414285D01*
X167523809Y-109461904D01*
X167380952Y-109461904D01*
X167190476Y-109414285D01*
X167095238Y-109366666D01*
X167000000Y-109271428D01*
X166952380Y-109128571D01*
X166952380Y-109033333D01*
X167000000Y-108890476D01*
X167047619Y-108842857D01*
X167952380Y-107890476D02*
X167952380Y-108461904D01*
X167952380Y-108176190D02*
X166952380Y-108176190D01*
X167095238Y-108271428D01*
X167190476Y-108366666D01*
X167238095Y-108461904D01*
X166952380Y-107271428D02*
X166952380Y-107176190D01*
X167000000Y-107080952D01*
X167047619Y-107033333D01*
X167142857Y-106985714D01*
X167333333Y-106938095D01*
X167571428Y-106938095D01*
X167761904Y-106985714D01*
X167857142Y-107033333D01*
X167904761Y-107080952D01*
X167952380Y-107176190D01*
X167952380Y-107271428D01*
X167904761Y-107366666D01*
X167857142Y-107414285D01*
X167761904Y-107461904D01*
X167571428Y-107509523D01*
X167333333Y-107509523D01*
X167142857Y-107461904D01*
X167047619Y-107414285D01*
X167000000Y-107366666D01*
X166952380Y-107271428D01*
G04 #@! TO.C,R59*
X181357142Y-74752380D02*
X181023809Y-74276190D01*
X180785714Y-74752380D02*
X180785714Y-73752380D01*
X181166666Y-73752380D01*
X181261904Y-73800000D01*
X181309523Y-73847619D01*
X181357142Y-73942857D01*
X181357142Y-74085714D01*
X181309523Y-74180952D01*
X181261904Y-74228571D01*
X181166666Y-74276190D01*
X180785714Y-74276190D01*
X182261904Y-73752380D02*
X181785714Y-73752380D01*
X181738095Y-74228571D01*
X181785714Y-74180952D01*
X181880952Y-74133333D01*
X182119047Y-74133333D01*
X182214285Y-74180952D01*
X182261904Y-74228571D01*
X182309523Y-74323809D01*
X182309523Y-74561904D01*
X182261904Y-74657142D01*
X182214285Y-74704761D01*
X182119047Y-74752380D01*
X181880952Y-74752380D01*
X181785714Y-74704761D01*
X181738095Y-74657142D01*
X182785714Y-74752380D02*
X182976190Y-74752380D01*
X183071428Y-74704761D01*
X183119047Y-74657142D01*
X183214285Y-74514285D01*
X183261904Y-74323809D01*
X183261904Y-73942857D01*
X183214285Y-73847619D01*
X183166666Y-73800000D01*
X183071428Y-73752380D01*
X182880952Y-73752380D01*
X182785714Y-73800000D01*
X182738095Y-73847619D01*
X182690476Y-73942857D01*
X182690476Y-74180952D01*
X182738095Y-74276190D01*
X182785714Y-74323809D01*
X182880952Y-74371428D01*
X183071428Y-74371428D01*
X183166666Y-74323809D01*
X183214285Y-74276190D01*
X183261904Y-74180952D01*
G04 #@! TO.C,H2*
X195538095Y-49952380D02*
X195538095Y-48952380D01*
X195538095Y-49428571D02*
X196109523Y-49428571D01*
X196109523Y-49952380D02*
X196109523Y-48952380D01*
X196538095Y-49047619D02*
X196585714Y-49000000D01*
X196680952Y-48952380D01*
X196919047Y-48952380D01*
X197014285Y-49000000D01*
X197061904Y-49047619D01*
X197109523Y-49142857D01*
X197109523Y-49238095D01*
X197061904Y-49380952D01*
X196490476Y-49952380D01*
X197109523Y-49952380D01*
G04 #@! TO.C,R15*
X191257142Y-92452380D02*
X190923809Y-91976190D01*
X190685714Y-92452380D02*
X190685714Y-91452380D01*
X191066666Y-91452380D01*
X191161904Y-91500000D01*
X191209523Y-91547619D01*
X191257142Y-91642857D01*
X191257142Y-91785714D01*
X191209523Y-91880952D01*
X191161904Y-91928571D01*
X191066666Y-91976190D01*
X190685714Y-91976190D01*
X192209523Y-92452380D02*
X191638095Y-92452380D01*
X191923809Y-92452380D02*
X191923809Y-91452380D01*
X191828571Y-91595238D01*
X191733333Y-91690476D01*
X191638095Y-91738095D01*
X193114285Y-91452380D02*
X192638095Y-91452380D01*
X192590476Y-91928571D01*
X192638095Y-91880952D01*
X192733333Y-91833333D01*
X192971428Y-91833333D01*
X193066666Y-91880952D01*
X193114285Y-91928571D01*
X193161904Y-92023809D01*
X193161904Y-92261904D01*
X193114285Y-92357142D01*
X193066666Y-92404761D01*
X192971428Y-92452380D01*
X192733333Y-92452380D01*
X192638095Y-92404761D01*
X192590476Y-92357142D01*
G04 #@! TO.C,R51*
X108357142Y-91852380D02*
X108023809Y-91376190D01*
X107785714Y-91852380D02*
X107785714Y-90852380D01*
X108166666Y-90852380D01*
X108261904Y-90900000D01*
X108309523Y-90947619D01*
X108357142Y-91042857D01*
X108357142Y-91185714D01*
X108309523Y-91280952D01*
X108261904Y-91328571D01*
X108166666Y-91376190D01*
X107785714Y-91376190D01*
X109261904Y-90852380D02*
X108785714Y-90852380D01*
X108738095Y-91328571D01*
X108785714Y-91280952D01*
X108880952Y-91233333D01*
X109119047Y-91233333D01*
X109214285Y-91280952D01*
X109261904Y-91328571D01*
X109309523Y-91423809D01*
X109309523Y-91661904D01*
X109261904Y-91757142D01*
X109214285Y-91804761D01*
X109119047Y-91852380D01*
X108880952Y-91852380D01*
X108785714Y-91804761D01*
X108738095Y-91757142D01*
X110261904Y-91852380D02*
X109690476Y-91852380D01*
X109976190Y-91852380D02*
X109976190Y-90852380D01*
X109880952Y-90995238D01*
X109785714Y-91090476D01*
X109690476Y-91138095D01*
G04 #@! TO.C,C6*
X154733333Y-95327142D02*
X154685714Y-95374761D01*
X154542857Y-95422380D01*
X154447619Y-95422380D01*
X154304761Y-95374761D01*
X154209523Y-95279523D01*
X154161904Y-95184285D01*
X154114285Y-94993809D01*
X154114285Y-94850952D01*
X154161904Y-94660476D01*
X154209523Y-94565238D01*
X154304761Y-94470000D01*
X154447619Y-94422380D01*
X154542857Y-94422380D01*
X154685714Y-94470000D01*
X154733333Y-94517619D01*
X155590476Y-94422380D02*
X155400000Y-94422380D01*
X155304761Y-94470000D01*
X155257142Y-94517619D01*
X155161904Y-94660476D01*
X155114285Y-94850952D01*
X155114285Y-95231904D01*
X155161904Y-95327142D01*
X155209523Y-95374761D01*
X155304761Y-95422380D01*
X155495238Y-95422380D01*
X155590476Y-95374761D01*
X155638095Y-95327142D01*
X155685714Y-95231904D01*
X155685714Y-94993809D01*
X155638095Y-94898571D01*
X155590476Y-94850952D01*
X155495238Y-94803333D01*
X155304761Y-94803333D01*
X155209523Y-94850952D01*
X155161904Y-94898571D01*
X155114285Y-94993809D01*
G04 #@! TO.C,R68*
X181057142Y-97652380D02*
X180723809Y-97176190D01*
X180485714Y-97652380D02*
X180485714Y-96652380D01*
X180866666Y-96652380D01*
X180961904Y-96700000D01*
X181009523Y-96747619D01*
X181057142Y-96842857D01*
X181057142Y-96985714D01*
X181009523Y-97080952D01*
X180961904Y-97128571D01*
X180866666Y-97176190D01*
X180485714Y-97176190D01*
X181914285Y-96652380D02*
X181723809Y-96652380D01*
X181628571Y-96700000D01*
X181580952Y-96747619D01*
X181485714Y-96890476D01*
X181438095Y-97080952D01*
X181438095Y-97461904D01*
X181485714Y-97557142D01*
X181533333Y-97604761D01*
X181628571Y-97652380D01*
X181819047Y-97652380D01*
X181914285Y-97604761D01*
X181961904Y-97557142D01*
X182009523Y-97461904D01*
X182009523Y-97223809D01*
X181961904Y-97128571D01*
X181914285Y-97080952D01*
X181819047Y-97033333D01*
X181628571Y-97033333D01*
X181533333Y-97080952D01*
X181485714Y-97128571D01*
X181438095Y-97223809D01*
X182580952Y-97080952D02*
X182485714Y-97033333D01*
X182438095Y-96985714D01*
X182390476Y-96890476D01*
X182390476Y-96842857D01*
X182438095Y-96747619D01*
X182485714Y-96700000D01*
X182580952Y-96652380D01*
X182771428Y-96652380D01*
X182866666Y-96700000D01*
X182914285Y-96747619D01*
X182961904Y-96842857D01*
X182961904Y-96890476D01*
X182914285Y-96985714D01*
X182866666Y-97033333D01*
X182771428Y-97080952D01*
X182580952Y-97080952D01*
X182485714Y-97128571D01*
X182438095Y-97176190D01*
X182390476Y-97271428D01*
X182390476Y-97461904D01*
X182438095Y-97557142D01*
X182485714Y-97604761D01*
X182580952Y-97652380D01*
X182771428Y-97652380D01*
X182866666Y-97604761D01*
X182914285Y-97557142D01*
X182961904Y-97461904D01*
X182961904Y-97271428D01*
X182914285Y-97176190D01*
X182866666Y-97128571D01*
X182771428Y-97080952D01*
G04 #@! TO.C,D2*
X135961904Y-147122380D02*
X135961904Y-146122380D01*
X136200000Y-146122380D01*
X136342857Y-146170000D01*
X136438095Y-146265238D01*
X136485714Y-146360476D01*
X136533333Y-146550952D01*
X136533333Y-146693809D01*
X136485714Y-146884285D01*
X136438095Y-146979523D01*
X136342857Y-147074761D01*
X136200000Y-147122380D01*
X135961904Y-147122380D01*
X136914285Y-146217619D02*
X136961904Y-146170000D01*
X137057142Y-146122380D01*
X137295238Y-146122380D01*
X137390476Y-146170000D01*
X137438095Y-146217619D01*
X137485714Y-146312857D01*
X137485714Y-146408095D01*
X137438095Y-146550952D01*
X136866666Y-147122380D01*
X137485714Y-147122380D01*
G04 #@! TO.C,J5*
X144097380Y-55338333D02*
X144811666Y-55338333D01*
X144954523Y-55385952D01*
X145049761Y-55481190D01*
X145097380Y-55624047D01*
X145097380Y-55719285D01*
X144097380Y-54385952D02*
X144097380Y-54862142D01*
X144573571Y-54909761D01*
X144525952Y-54862142D01*
X144478333Y-54766904D01*
X144478333Y-54528809D01*
X144525952Y-54433571D01*
X144573571Y-54385952D01*
X144668809Y-54338333D01*
X144906904Y-54338333D01*
X145002142Y-54385952D01*
X145049761Y-54433571D01*
X145097380Y-54528809D01*
X145097380Y-54766904D01*
X145049761Y-54862142D01*
X145002142Y-54909761D01*
G04 #@! TO.C,C2*
X149933333Y-95897142D02*
X149885714Y-95944761D01*
X149742857Y-95992380D01*
X149647619Y-95992380D01*
X149504761Y-95944761D01*
X149409523Y-95849523D01*
X149361904Y-95754285D01*
X149314285Y-95563809D01*
X149314285Y-95420952D01*
X149361904Y-95230476D01*
X149409523Y-95135238D01*
X149504761Y-95040000D01*
X149647619Y-94992380D01*
X149742857Y-94992380D01*
X149885714Y-95040000D01*
X149933333Y-95087619D01*
X150314285Y-95087619D02*
X150361904Y-95040000D01*
X150457142Y-94992380D01*
X150695238Y-94992380D01*
X150790476Y-95040000D01*
X150838095Y-95087619D01*
X150885714Y-95182857D01*
X150885714Y-95278095D01*
X150838095Y-95420952D01*
X150266666Y-95992380D01*
X150885714Y-95992380D01*
G04 #@! TO.C,R73*
X156452380Y-147142857D02*
X155976190Y-147476190D01*
X156452380Y-147714285D02*
X155452380Y-147714285D01*
X155452380Y-147333333D01*
X155500000Y-147238095D01*
X155547619Y-147190476D01*
X155642857Y-147142857D01*
X155785714Y-147142857D01*
X155880952Y-147190476D01*
X155928571Y-147238095D01*
X155976190Y-147333333D01*
X155976190Y-147714285D01*
X155452380Y-146809523D02*
X155452380Y-146142857D01*
X156452380Y-146571428D01*
X155452380Y-145857142D02*
X155452380Y-145238095D01*
X155833333Y-145571428D01*
X155833333Y-145428571D01*
X155880952Y-145333333D01*
X155928571Y-145285714D01*
X156023809Y-145238095D01*
X156261904Y-145238095D01*
X156357142Y-145285714D01*
X156404761Y-145333333D01*
X156452380Y-145428571D01*
X156452380Y-145714285D01*
X156404761Y-145809523D01*
X156357142Y-145857142D01*
G04 #@! TO.C,R2*
X139233333Y-60552380D02*
X138900000Y-60076190D01*
X138661904Y-60552380D02*
X138661904Y-59552380D01*
X139042857Y-59552380D01*
X139138095Y-59600000D01*
X139185714Y-59647619D01*
X139233333Y-59742857D01*
X139233333Y-59885714D01*
X139185714Y-59980952D01*
X139138095Y-60028571D01*
X139042857Y-60076190D01*
X138661904Y-60076190D01*
X139614285Y-59647619D02*
X139661904Y-59600000D01*
X139757142Y-59552380D01*
X139995238Y-59552380D01*
X140090476Y-59600000D01*
X140138095Y-59647619D01*
X140185714Y-59742857D01*
X140185714Y-59838095D01*
X140138095Y-59980952D01*
X139566666Y-60552380D01*
X140185714Y-60552380D01*
G04 #@! TO.C,R13*
X191257142Y-87352380D02*
X190923809Y-86876190D01*
X190685714Y-87352380D02*
X190685714Y-86352380D01*
X191066666Y-86352380D01*
X191161904Y-86400000D01*
X191209523Y-86447619D01*
X191257142Y-86542857D01*
X191257142Y-86685714D01*
X191209523Y-86780952D01*
X191161904Y-86828571D01*
X191066666Y-86876190D01*
X190685714Y-86876190D01*
X192209523Y-87352380D02*
X191638095Y-87352380D01*
X191923809Y-87352380D02*
X191923809Y-86352380D01*
X191828571Y-86495238D01*
X191733333Y-86590476D01*
X191638095Y-86638095D01*
X192542857Y-86352380D02*
X193161904Y-86352380D01*
X192828571Y-86733333D01*
X192971428Y-86733333D01*
X193066666Y-86780952D01*
X193114285Y-86828571D01*
X193161904Y-86923809D01*
X193161904Y-87161904D01*
X193114285Y-87257142D01*
X193066666Y-87304761D01*
X192971428Y-87352380D01*
X192685714Y-87352380D01*
X192590476Y-87304761D01*
X192542857Y-87257142D01*
G04 #@! TO.C,C12*
X141910875Y-126357142D02*
X141863256Y-126404761D01*
X141720399Y-126452380D01*
X141625161Y-126452380D01*
X141482304Y-126404761D01*
X141387066Y-126309523D01*
X141339447Y-126214285D01*
X141291828Y-126023809D01*
X141291828Y-125880952D01*
X141339447Y-125690476D01*
X141387066Y-125595238D01*
X141482304Y-125500000D01*
X141625161Y-125452380D01*
X141720399Y-125452380D01*
X141863256Y-125500000D01*
X141910875Y-125547619D01*
X142863256Y-126452380D02*
X142291828Y-126452380D01*
X142577542Y-126452380D02*
X142577542Y-125452380D01*
X142482304Y-125595238D01*
X142387066Y-125690476D01*
X142291828Y-125738095D01*
X143244209Y-125547619D02*
X143291828Y-125500000D01*
X143387066Y-125452380D01*
X143625161Y-125452380D01*
X143720399Y-125500000D01*
X143768018Y-125547619D01*
X143815637Y-125642857D01*
X143815637Y-125738095D01*
X143768018Y-125880952D01*
X143196590Y-126452380D01*
X143815637Y-126452380D01*
G04 #@! TO.C,C9*
X164237142Y-121266666D02*
X164284761Y-121314285D01*
X164332380Y-121457142D01*
X164332380Y-121552380D01*
X164284761Y-121695238D01*
X164189523Y-121790476D01*
X164094285Y-121838095D01*
X163903809Y-121885714D01*
X163760952Y-121885714D01*
X163570476Y-121838095D01*
X163475238Y-121790476D01*
X163380000Y-121695238D01*
X163332380Y-121552380D01*
X163332380Y-121457142D01*
X163380000Y-121314285D01*
X163427619Y-121266666D01*
X164332380Y-120790476D02*
X164332380Y-120600000D01*
X164284761Y-120504761D01*
X164237142Y-120457142D01*
X164094285Y-120361904D01*
X163903809Y-120314285D01*
X163522857Y-120314285D01*
X163427619Y-120361904D01*
X163380000Y-120409523D01*
X163332380Y-120504761D01*
X163332380Y-120695238D01*
X163380000Y-120790476D01*
X163427619Y-120838095D01*
X163522857Y-120885714D01*
X163760952Y-120885714D01*
X163856190Y-120838095D01*
X163903809Y-120790476D01*
X163951428Y-120695238D01*
X163951428Y-120504761D01*
X163903809Y-120409523D01*
X163856190Y-120361904D01*
X163760952Y-120314285D01*
G04 #@! TO.C,R72*
X181057142Y-107752380D02*
X180723809Y-107276190D01*
X180485714Y-107752380D02*
X180485714Y-106752380D01*
X180866666Y-106752380D01*
X180961904Y-106800000D01*
X181009523Y-106847619D01*
X181057142Y-106942857D01*
X181057142Y-107085714D01*
X181009523Y-107180952D01*
X180961904Y-107228571D01*
X180866666Y-107276190D01*
X180485714Y-107276190D01*
X181390476Y-106752380D02*
X182057142Y-106752380D01*
X181628571Y-107752380D01*
X182390476Y-106847619D02*
X182438095Y-106800000D01*
X182533333Y-106752380D01*
X182771428Y-106752380D01*
X182866666Y-106800000D01*
X182914285Y-106847619D01*
X182961904Y-106942857D01*
X182961904Y-107038095D01*
X182914285Y-107180952D01*
X182342857Y-107752380D01*
X182961904Y-107752380D01*
G04 #@! TO.C,R50*
X107557142Y-89252380D02*
X107223809Y-88776190D01*
X106985714Y-89252380D02*
X106985714Y-88252380D01*
X107366666Y-88252380D01*
X107461904Y-88300000D01*
X107509523Y-88347619D01*
X107557142Y-88442857D01*
X107557142Y-88585714D01*
X107509523Y-88680952D01*
X107461904Y-88728571D01*
X107366666Y-88776190D01*
X106985714Y-88776190D01*
X108461904Y-88252380D02*
X107985714Y-88252380D01*
X107938095Y-88728571D01*
X107985714Y-88680952D01*
X108080952Y-88633333D01*
X108319047Y-88633333D01*
X108414285Y-88680952D01*
X108461904Y-88728571D01*
X108509523Y-88823809D01*
X108509523Y-89061904D01*
X108461904Y-89157142D01*
X108414285Y-89204761D01*
X108319047Y-89252380D01*
X108080952Y-89252380D01*
X107985714Y-89204761D01*
X107938095Y-89157142D01*
X109128571Y-88252380D02*
X109223809Y-88252380D01*
X109319047Y-88300000D01*
X109366666Y-88347619D01*
X109414285Y-88442857D01*
X109461904Y-88633333D01*
X109461904Y-88871428D01*
X109414285Y-89061904D01*
X109366666Y-89157142D01*
X109319047Y-89204761D01*
X109223809Y-89252380D01*
X109128571Y-89252380D01*
X109033333Y-89204761D01*
X108985714Y-89157142D01*
X108938095Y-89061904D01*
X108890476Y-88871428D01*
X108890476Y-88633333D01*
X108938095Y-88442857D01*
X108985714Y-88347619D01*
X109033333Y-88300000D01*
X109128571Y-88252380D01*
G04 #@! TO.C,C14*
X139657142Y-118442857D02*
X139704761Y-118490476D01*
X139752380Y-118633333D01*
X139752380Y-118728571D01*
X139704761Y-118871428D01*
X139609523Y-118966666D01*
X139514285Y-119014285D01*
X139323809Y-119061904D01*
X139180952Y-119061904D01*
X138990476Y-119014285D01*
X138895238Y-118966666D01*
X138800000Y-118871428D01*
X138752380Y-118728571D01*
X138752380Y-118633333D01*
X138800000Y-118490476D01*
X138847619Y-118442857D01*
X139752380Y-117490476D02*
X139752380Y-118061904D01*
X139752380Y-117776190D02*
X138752380Y-117776190D01*
X138895238Y-117871428D01*
X138990476Y-117966666D01*
X139038095Y-118061904D01*
X139085714Y-116633333D02*
X139752380Y-116633333D01*
X138704761Y-116871428D02*
X139419047Y-117109523D01*
X139419047Y-116490476D01*
G04 #@! TO.C,D1*
X151161904Y-149282380D02*
X151161904Y-148282380D01*
X151400000Y-148282380D01*
X151542857Y-148330000D01*
X151638095Y-148425238D01*
X151685714Y-148520476D01*
X151733333Y-148710952D01*
X151733333Y-148853809D01*
X151685714Y-149044285D01*
X151638095Y-149139523D01*
X151542857Y-149234761D01*
X151400000Y-149282380D01*
X151161904Y-149282380D01*
X152685714Y-149282380D02*
X152114285Y-149282380D01*
X152400000Y-149282380D02*
X152400000Y-148282380D01*
X152304761Y-148425238D01*
X152209523Y-148520476D01*
X152114285Y-148568095D01*
G04 #@! TO.C,R58*
X181157142Y-72252380D02*
X180823809Y-71776190D01*
X180585714Y-72252380D02*
X180585714Y-71252380D01*
X180966666Y-71252380D01*
X181061904Y-71300000D01*
X181109523Y-71347619D01*
X181157142Y-71442857D01*
X181157142Y-71585714D01*
X181109523Y-71680952D01*
X181061904Y-71728571D01*
X180966666Y-71776190D01*
X180585714Y-71776190D01*
X182061904Y-71252380D02*
X181585714Y-71252380D01*
X181538095Y-71728571D01*
X181585714Y-71680952D01*
X181680952Y-71633333D01*
X181919047Y-71633333D01*
X182014285Y-71680952D01*
X182061904Y-71728571D01*
X182109523Y-71823809D01*
X182109523Y-72061904D01*
X182061904Y-72157142D01*
X182014285Y-72204761D01*
X181919047Y-72252380D01*
X181680952Y-72252380D01*
X181585714Y-72204761D01*
X181538095Y-72157142D01*
X182680952Y-71680952D02*
X182585714Y-71633333D01*
X182538095Y-71585714D01*
X182490476Y-71490476D01*
X182490476Y-71442857D01*
X182538095Y-71347619D01*
X182585714Y-71300000D01*
X182680952Y-71252380D01*
X182871428Y-71252380D01*
X182966666Y-71300000D01*
X183014285Y-71347619D01*
X183061904Y-71442857D01*
X183061904Y-71490476D01*
X183014285Y-71585714D01*
X182966666Y-71633333D01*
X182871428Y-71680952D01*
X182680952Y-71680952D01*
X182585714Y-71728571D01*
X182538095Y-71776190D01*
X182490476Y-71871428D01*
X182490476Y-72061904D01*
X182538095Y-72157142D01*
X182585714Y-72204761D01*
X182680952Y-72252380D01*
X182871428Y-72252380D01*
X182966666Y-72204761D01*
X183014285Y-72157142D01*
X183061904Y-72061904D01*
X183061904Y-71871428D01*
X183014285Y-71776190D01*
X182966666Y-71728571D01*
X182871428Y-71680952D01*
G04 #@! TO.C,R33*
X120357142Y-81752380D02*
X120023809Y-81276190D01*
X119785714Y-81752380D02*
X119785714Y-80752380D01*
X120166666Y-80752380D01*
X120261904Y-80800000D01*
X120309523Y-80847619D01*
X120357142Y-80942857D01*
X120357142Y-81085714D01*
X120309523Y-81180952D01*
X120261904Y-81228571D01*
X120166666Y-81276190D01*
X119785714Y-81276190D01*
X120690476Y-80752380D02*
X121309523Y-80752380D01*
X120976190Y-81133333D01*
X121119047Y-81133333D01*
X121214285Y-81180952D01*
X121261904Y-81228571D01*
X121309523Y-81323809D01*
X121309523Y-81561904D01*
X121261904Y-81657142D01*
X121214285Y-81704761D01*
X121119047Y-81752380D01*
X120833333Y-81752380D01*
X120738095Y-81704761D01*
X120690476Y-81657142D01*
X121642857Y-80752380D02*
X122261904Y-80752380D01*
X121928571Y-81133333D01*
X122071428Y-81133333D01*
X122166666Y-81180952D01*
X122214285Y-81228571D01*
X122261904Y-81323809D01*
X122261904Y-81561904D01*
X122214285Y-81657142D01*
X122166666Y-81704761D01*
X122071428Y-81752380D01*
X121785714Y-81752380D01*
X121690476Y-81704761D01*
X121642857Y-81657142D01*
G04 #@! TO.C,H1*
X103138095Y-50452380D02*
X103138095Y-49452380D01*
X103138095Y-49928571D02*
X103709523Y-49928571D01*
X103709523Y-50452380D02*
X103709523Y-49452380D01*
X104709523Y-50452380D02*
X104138095Y-50452380D01*
X104423809Y-50452380D02*
X104423809Y-49452380D01*
X104328571Y-49595238D01*
X104233333Y-49690476D01*
X104138095Y-49738095D01*
G04 #@! TO.C,J7*
X183482380Y-141033333D02*
X184196666Y-141033333D01*
X184339523Y-141080952D01*
X184434761Y-141176190D01*
X184482380Y-141319047D01*
X184482380Y-141414285D01*
X183482380Y-140652380D02*
X183482380Y-139985714D01*
X184482380Y-140414285D01*
G04 #@! TO.C,R6*
X192333333Y-69652380D02*
X192000000Y-69176190D01*
X191761904Y-69652380D02*
X191761904Y-68652380D01*
X192142857Y-68652380D01*
X192238095Y-68700000D01*
X192285714Y-68747619D01*
X192333333Y-68842857D01*
X192333333Y-68985714D01*
X192285714Y-69080952D01*
X192238095Y-69128571D01*
X192142857Y-69176190D01*
X191761904Y-69176190D01*
X193190476Y-68652380D02*
X193000000Y-68652380D01*
X192904761Y-68700000D01*
X192857142Y-68747619D01*
X192761904Y-68890476D01*
X192714285Y-69080952D01*
X192714285Y-69461904D01*
X192761904Y-69557142D01*
X192809523Y-69604761D01*
X192904761Y-69652380D01*
X193095238Y-69652380D01*
X193190476Y-69604761D01*
X193238095Y-69557142D01*
X193285714Y-69461904D01*
X193285714Y-69223809D01*
X193238095Y-69128571D01*
X193190476Y-69080952D01*
X193095238Y-69033333D01*
X192904761Y-69033333D01*
X192809523Y-69080952D01*
X192761904Y-69128571D01*
X192714285Y-69223809D01*
G04 #@! TO.C,R11*
X191357142Y-82352380D02*
X191023809Y-81876190D01*
X190785714Y-82352380D02*
X190785714Y-81352380D01*
X191166666Y-81352380D01*
X191261904Y-81400000D01*
X191309523Y-81447619D01*
X191357142Y-81542857D01*
X191357142Y-81685714D01*
X191309523Y-81780952D01*
X191261904Y-81828571D01*
X191166666Y-81876190D01*
X190785714Y-81876190D01*
X192309523Y-82352380D02*
X191738095Y-82352380D01*
X192023809Y-82352380D02*
X192023809Y-81352380D01*
X191928571Y-81495238D01*
X191833333Y-81590476D01*
X191738095Y-81638095D01*
X193261904Y-82352380D02*
X192690476Y-82352380D01*
X192976190Y-82352380D02*
X192976190Y-81352380D01*
X192880952Y-81495238D01*
X192785714Y-81590476D01*
X192690476Y-81638095D01*
G04 #@! TO.C,R62*
X181257142Y-82452380D02*
X180923809Y-81976190D01*
X180685714Y-82452380D02*
X180685714Y-81452380D01*
X181066666Y-81452380D01*
X181161904Y-81500000D01*
X181209523Y-81547619D01*
X181257142Y-81642857D01*
X181257142Y-81785714D01*
X181209523Y-81880952D01*
X181161904Y-81928571D01*
X181066666Y-81976190D01*
X180685714Y-81976190D01*
X182114285Y-81452380D02*
X181923809Y-81452380D01*
X181828571Y-81500000D01*
X181780952Y-81547619D01*
X181685714Y-81690476D01*
X181638095Y-81880952D01*
X181638095Y-82261904D01*
X181685714Y-82357142D01*
X181733333Y-82404761D01*
X181828571Y-82452380D01*
X182019047Y-82452380D01*
X182114285Y-82404761D01*
X182161904Y-82357142D01*
X182209523Y-82261904D01*
X182209523Y-82023809D01*
X182161904Y-81928571D01*
X182114285Y-81880952D01*
X182019047Y-81833333D01*
X181828571Y-81833333D01*
X181733333Y-81880952D01*
X181685714Y-81928571D01*
X181638095Y-82023809D01*
X182590476Y-81547619D02*
X182638095Y-81500000D01*
X182733333Y-81452380D01*
X182971428Y-81452380D01*
X183066666Y-81500000D01*
X183114285Y-81547619D01*
X183161904Y-81642857D01*
X183161904Y-81738095D01*
X183114285Y-81880952D01*
X182542857Y-82452380D01*
X183161904Y-82452380D01*
G04 #@! TO.C,C5*
X142633333Y-123457142D02*
X142585714Y-123504761D01*
X142442857Y-123552380D01*
X142347619Y-123552380D01*
X142204761Y-123504761D01*
X142109523Y-123409523D01*
X142061904Y-123314285D01*
X142014285Y-123123809D01*
X142014285Y-122980952D01*
X142061904Y-122790476D01*
X142109523Y-122695238D01*
X142204761Y-122600000D01*
X142347619Y-122552380D01*
X142442857Y-122552380D01*
X142585714Y-122600000D01*
X142633333Y-122647619D01*
X143538095Y-122552380D02*
X143061904Y-122552380D01*
X143014285Y-123028571D01*
X143061904Y-122980952D01*
X143157142Y-122933333D01*
X143395238Y-122933333D01*
X143490476Y-122980952D01*
X143538095Y-123028571D01*
X143585714Y-123123809D01*
X143585714Y-123361904D01*
X143538095Y-123457142D01*
X143490476Y-123504761D01*
X143395238Y-123552380D01*
X143157142Y-123552380D01*
X143061904Y-123504761D01*
X143014285Y-123457142D01*
G04 #@! TO.C,R40*
X107357142Y-63852380D02*
X107023809Y-63376190D01*
X106785714Y-63852380D02*
X106785714Y-62852380D01*
X107166666Y-62852380D01*
X107261904Y-62900000D01*
X107309523Y-62947619D01*
X107357142Y-63042857D01*
X107357142Y-63185714D01*
X107309523Y-63280952D01*
X107261904Y-63328571D01*
X107166666Y-63376190D01*
X106785714Y-63376190D01*
X108214285Y-63185714D02*
X108214285Y-63852380D01*
X107976190Y-62804761D02*
X107738095Y-63519047D01*
X108357142Y-63519047D01*
X108928571Y-62852380D02*
X109023809Y-62852380D01*
X109119047Y-62900000D01*
X109166666Y-62947619D01*
X109214285Y-63042857D01*
X109261904Y-63233333D01*
X109261904Y-63471428D01*
X109214285Y-63661904D01*
X109166666Y-63757142D01*
X109119047Y-63804761D01*
X109023809Y-63852380D01*
X108928571Y-63852380D01*
X108833333Y-63804761D01*
X108785714Y-63757142D01*
X108738095Y-63661904D01*
X108690476Y-63471428D01*
X108690476Y-63233333D01*
X108738095Y-63042857D01*
X108785714Y-62947619D01*
X108833333Y-62900000D01*
X108928571Y-62852380D01*
G04 #@! TO.C,C11*
X140657142Y-96242857D02*
X140704761Y-96290476D01*
X140752380Y-96433333D01*
X140752380Y-96528571D01*
X140704761Y-96671428D01*
X140609523Y-96766666D01*
X140514285Y-96814285D01*
X140323809Y-96861904D01*
X140180952Y-96861904D01*
X139990476Y-96814285D01*
X139895238Y-96766666D01*
X139800000Y-96671428D01*
X139752380Y-96528571D01*
X139752380Y-96433333D01*
X139800000Y-96290476D01*
X139847619Y-96242857D01*
X140752380Y-95290476D02*
X140752380Y-95861904D01*
X140752380Y-95576190D02*
X139752380Y-95576190D01*
X139895238Y-95671428D01*
X139990476Y-95766666D01*
X140038095Y-95861904D01*
X140752380Y-94338095D02*
X140752380Y-94909523D01*
X140752380Y-94623809D02*
X139752380Y-94623809D01*
X139895238Y-94719047D01*
X139990476Y-94814285D01*
X140038095Y-94909523D01*
G04 #@! TO.C,R27*
X120257142Y-96952380D02*
X119923809Y-96476190D01*
X119685714Y-96952380D02*
X119685714Y-95952380D01*
X120066666Y-95952380D01*
X120161904Y-96000000D01*
X120209523Y-96047619D01*
X120257142Y-96142857D01*
X120257142Y-96285714D01*
X120209523Y-96380952D01*
X120161904Y-96428571D01*
X120066666Y-96476190D01*
X119685714Y-96476190D01*
X120638095Y-96047619D02*
X120685714Y-96000000D01*
X120780952Y-95952380D01*
X121019047Y-95952380D01*
X121114285Y-96000000D01*
X121161904Y-96047619D01*
X121209523Y-96142857D01*
X121209523Y-96238095D01*
X121161904Y-96380952D01*
X120590476Y-96952380D01*
X121209523Y-96952380D01*
X121542857Y-95952380D02*
X122209523Y-95952380D01*
X121780952Y-96952380D01*
G04 #@! TO.C,R3*
X195033333Y-60522380D02*
X194700000Y-60046190D01*
X194461904Y-60522380D02*
X194461904Y-59522380D01*
X194842857Y-59522380D01*
X194938095Y-59570000D01*
X194985714Y-59617619D01*
X195033333Y-59712857D01*
X195033333Y-59855714D01*
X194985714Y-59950952D01*
X194938095Y-59998571D01*
X194842857Y-60046190D01*
X194461904Y-60046190D01*
X195366666Y-59522380D02*
X195985714Y-59522380D01*
X195652380Y-59903333D01*
X195795238Y-59903333D01*
X195890476Y-59950952D01*
X195938095Y-59998571D01*
X195985714Y-60093809D01*
X195985714Y-60331904D01*
X195938095Y-60427142D01*
X195890476Y-60474761D01*
X195795238Y-60522380D01*
X195509523Y-60522380D01*
X195414285Y-60474761D01*
X195366666Y-60427142D01*
G04 #@! TO.C,R30*
X120357142Y-104552380D02*
X120023809Y-104076190D01*
X119785714Y-104552380D02*
X119785714Y-103552380D01*
X120166666Y-103552380D01*
X120261904Y-103600000D01*
X120309523Y-103647619D01*
X120357142Y-103742857D01*
X120357142Y-103885714D01*
X120309523Y-103980952D01*
X120261904Y-104028571D01*
X120166666Y-104076190D01*
X119785714Y-104076190D01*
X120690476Y-103552380D02*
X121309523Y-103552380D01*
X120976190Y-103933333D01*
X121119047Y-103933333D01*
X121214285Y-103980952D01*
X121261904Y-104028571D01*
X121309523Y-104123809D01*
X121309523Y-104361904D01*
X121261904Y-104457142D01*
X121214285Y-104504761D01*
X121119047Y-104552380D01*
X120833333Y-104552380D01*
X120738095Y-104504761D01*
X120690476Y-104457142D01*
X121928571Y-103552380D02*
X122023809Y-103552380D01*
X122119047Y-103600000D01*
X122166666Y-103647619D01*
X122214285Y-103742857D01*
X122261904Y-103933333D01*
X122261904Y-104171428D01*
X122214285Y-104361904D01*
X122166666Y-104457142D01*
X122119047Y-104504761D01*
X122023809Y-104552380D01*
X121928571Y-104552380D01*
X121833333Y-104504761D01*
X121785714Y-104457142D01*
X121738095Y-104361904D01*
X121690476Y-104171428D01*
X121690476Y-103933333D01*
X121738095Y-103742857D01*
X121785714Y-103647619D01*
X121833333Y-103600000D01*
X121928571Y-103552380D01*
G04 #@! TO.C,U2*
X136038095Y-135952380D02*
X136038095Y-136761904D01*
X136085714Y-136857142D01*
X136133333Y-136904761D01*
X136228571Y-136952380D01*
X136419047Y-136952380D01*
X136514285Y-136904761D01*
X136561904Y-136857142D01*
X136609523Y-136761904D01*
X136609523Y-135952380D01*
X137038095Y-136047619D02*
X137085714Y-136000000D01*
X137180952Y-135952380D01*
X137419047Y-135952380D01*
X137514285Y-136000000D01*
X137561904Y-136047619D01*
X137609523Y-136142857D01*
X137609523Y-136238095D01*
X137561904Y-136380952D01*
X136990476Y-136952380D01*
X137609523Y-136952380D01*
G04 #@! TO.C,R4*
X192333333Y-64552380D02*
X192000000Y-64076190D01*
X191761904Y-64552380D02*
X191761904Y-63552380D01*
X192142857Y-63552380D01*
X192238095Y-63600000D01*
X192285714Y-63647619D01*
X192333333Y-63742857D01*
X192333333Y-63885714D01*
X192285714Y-63980952D01*
X192238095Y-64028571D01*
X192142857Y-64076190D01*
X191761904Y-64076190D01*
X193190476Y-63885714D02*
X193190476Y-64552380D01*
X192952380Y-63504761D02*
X192714285Y-64219047D01*
X193333333Y-64219047D01*
G04 #@! TO.C,R64*
X181157142Y-87352380D02*
X180823809Y-86876190D01*
X180585714Y-87352380D02*
X180585714Y-86352380D01*
X180966666Y-86352380D01*
X181061904Y-86400000D01*
X181109523Y-86447619D01*
X181157142Y-86542857D01*
X181157142Y-86685714D01*
X181109523Y-86780952D01*
X181061904Y-86828571D01*
X180966666Y-86876190D01*
X180585714Y-86876190D01*
X182014285Y-86352380D02*
X181823809Y-86352380D01*
X181728571Y-86400000D01*
X181680952Y-86447619D01*
X181585714Y-86590476D01*
X181538095Y-86780952D01*
X181538095Y-87161904D01*
X181585714Y-87257142D01*
X181633333Y-87304761D01*
X181728571Y-87352380D01*
X181919047Y-87352380D01*
X182014285Y-87304761D01*
X182061904Y-87257142D01*
X182109523Y-87161904D01*
X182109523Y-86923809D01*
X182061904Y-86828571D01*
X182014285Y-86780952D01*
X181919047Y-86733333D01*
X181728571Y-86733333D01*
X181633333Y-86780952D01*
X181585714Y-86828571D01*
X181538095Y-86923809D01*
X182966666Y-86685714D02*
X182966666Y-87352380D01*
X182728571Y-86304761D02*
X182490476Y-87019047D01*
X183109523Y-87019047D01*
G04 #@! TO.C,R32*
X120157142Y-79052380D02*
X119823809Y-78576190D01*
X119585714Y-79052380D02*
X119585714Y-78052380D01*
X119966666Y-78052380D01*
X120061904Y-78100000D01*
X120109523Y-78147619D01*
X120157142Y-78242857D01*
X120157142Y-78385714D01*
X120109523Y-78480952D01*
X120061904Y-78528571D01*
X119966666Y-78576190D01*
X119585714Y-78576190D01*
X120490476Y-78052380D02*
X121109523Y-78052380D01*
X120776190Y-78433333D01*
X120919047Y-78433333D01*
X121014285Y-78480952D01*
X121061904Y-78528571D01*
X121109523Y-78623809D01*
X121109523Y-78861904D01*
X121061904Y-78957142D01*
X121014285Y-79004761D01*
X120919047Y-79052380D01*
X120633333Y-79052380D01*
X120538095Y-79004761D01*
X120490476Y-78957142D01*
X121490476Y-78147619D02*
X121538095Y-78100000D01*
X121633333Y-78052380D01*
X121871428Y-78052380D01*
X121966666Y-78100000D01*
X122014285Y-78147619D01*
X122061904Y-78242857D01*
X122061904Y-78338095D01*
X122014285Y-78480952D01*
X121442857Y-79052380D01*
X122061904Y-79052380D01*
G04 #@! TO.C,R21*
X191357142Y-107652380D02*
X191023809Y-107176190D01*
X190785714Y-107652380D02*
X190785714Y-106652380D01*
X191166666Y-106652380D01*
X191261904Y-106700000D01*
X191309523Y-106747619D01*
X191357142Y-106842857D01*
X191357142Y-106985714D01*
X191309523Y-107080952D01*
X191261904Y-107128571D01*
X191166666Y-107176190D01*
X190785714Y-107176190D01*
X191738095Y-106747619D02*
X191785714Y-106700000D01*
X191880952Y-106652380D01*
X192119047Y-106652380D01*
X192214285Y-106700000D01*
X192261904Y-106747619D01*
X192309523Y-106842857D01*
X192309523Y-106938095D01*
X192261904Y-107080952D01*
X191690476Y-107652380D01*
X192309523Y-107652380D01*
X193261904Y-107652380D02*
X192690476Y-107652380D01*
X192976190Y-107652380D02*
X192976190Y-106652380D01*
X192880952Y-106795238D01*
X192785714Y-106890476D01*
X192690476Y-106938095D01*
G04 #@! TO.C,R57*
X181157142Y-69652380D02*
X180823809Y-69176190D01*
X180585714Y-69652380D02*
X180585714Y-68652380D01*
X180966666Y-68652380D01*
X181061904Y-68700000D01*
X181109523Y-68747619D01*
X181157142Y-68842857D01*
X181157142Y-68985714D01*
X181109523Y-69080952D01*
X181061904Y-69128571D01*
X180966666Y-69176190D01*
X180585714Y-69176190D01*
X182061904Y-68652380D02*
X181585714Y-68652380D01*
X181538095Y-69128571D01*
X181585714Y-69080952D01*
X181680952Y-69033333D01*
X181919047Y-69033333D01*
X182014285Y-69080952D01*
X182061904Y-69128571D01*
X182109523Y-69223809D01*
X182109523Y-69461904D01*
X182061904Y-69557142D01*
X182014285Y-69604761D01*
X181919047Y-69652380D01*
X181680952Y-69652380D01*
X181585714Y-69604761D01*
X181538095Y-69557142D01*
X182442857Y-68652380D02*
X183109523Y-68652380D01*
X182680952Y-69652380D01*
G04 #@! TO.C,R35*
X120457142Y-86752380D02*
X120123809Y-86276190D01*
X119885714Y-86752380D02*
X119885714Y-85752380D01*
X120266666Y-85752380D01*
X120361904Y-85800000D01*
X120409523Y-85847619D01*
X120457142Y-85942857D01*
X120457142Y-86085714D01*
X120409523Y-86180952D01*
X120361904Y-86228571D01*
X120266666Y-86276190D01*
X119885714Y-86276190D01*
X120790476Y-85752380D02*
X121409523Y-85752380D01*
X121076190Y-86133333D01*
X121219047Y-86133333D01*
X121314285Y-86180952D01*
X121361904Y-86228571D01*
X121409523Y-86323809D01*
X121409523Y-86561904D01*
X121361904Y-86657142D01*
X121314285Y-86704761D01*
X121219047Y-86752380D01*
X120933333Y-86752380D01*
X120838095Y-86704761D01*
X120790476Y-86657142D01*
X122314285Y-85752380D02*
X121838095Y-85752380D01*
X121790476Y-86228571D01*
X121838095Y-86180952D01*
X121933333Y-86133333D01*
X122171428Y-86133333D01*
X122266666Y-86180952D01*
X122314285Y-86228571D01*
X122361904Y-86323809D01*
X122361904Y-86561904D01*
X122314285Y-86657142D01*
X122266666Y-86704761D01*
X122171428Y-86752380D01*
X121933333Y-86752380D01*
X121838095Y-86704761D01*
X121790476Y-86657142D01*
G04 #@! TO.C,R19*
X191357142Y-102652380D02*
X191023809Y-102176190D01*
X190785714Y-102652380D02*
X190785714Y-101652380D01*
X191166666Y-101652380D01*
X191261904Y-101700000D01*
X191309523Y-101747619D01*
X191357142Y-101842857D01*
X191357142Y-101985714D01*
X191309523Y-102080952D01*
X191261904Y-102128571D01*
X191166666Y-102176190D01*
X190785714Y-102176190D01*
X192309523Y-102652380D02*
X191738095Y-102652380D01*
X192023809Y-102652380D02*
X192023809Y-101652380D01*
X191928571Y-101795238D01*
X191833333Y-101890476D01*
X191738095Y-101938095D01*
X192785714Y-102652380D02*
X192976190Y-102652380D01*
X193071428Y-102604761D01*
X193119047Y-102557142D01*
X193214285Y-102414285D01*
X193261904Y-102223809D01*
X193261904Y-101842857D01*
X193214285Y-101747619D01*
X193166666Y-101700000D01*
X193071428Y-101652380D01*
X192880952Y-101652380D01*
X192785714Y-101700000D01*
X192738095Y-101747619D01*
X192690476Y-101842857D01*
X192690476Y-102080952D01*
X192738095Y-102176190D01*
X192785714Y-102223809D01*
X192880952Y-102271428D01*
X193071428Y-102271428D01*
X193166666Y-102223809D01*
X193214285Y-102176190D01*
X193261904Y-102080952D01*
G04 #@! TO.C,J9*
X156882380Y-67533333D02*
X157596666Y-67533333D01*
X157739523Y-67580952D01*
X157834761Y-67676190D01*
X157882380Y-67819047D01*
X157882380Y-67914285D01*
X157882380Y-67009523D02*
X157882380Y-66819047D01*
X157834761Y-66723809D01*
X157787142Y-66676190D01*
X157644285Y-66580952D01*
X157453809Y-66533333D01*
X157072857Y-66533333D01*
X156977619Y-66580952D01*
X156930000Y-66628571D01*
X156882380Y-66723809D01*
X156882380Y-66914285D01*
X156930000Y-67009523D01*
X156977619Y-67057142D01*
X157072857Y-67104761D01*
X157310952Y-67104761D01*
X157406190Y-67057142D01*
X157453809Y-67009523D01*
X157501428Y-66914285D01*
X157501428Y-66723809D01*
X157453809Y-66628571D01*
X157406190Y-66580952D01*
X157310952Y-66533333D01*
G04 #@! TO.C,R74*
X132157142Y-147052380D02*
X131823809Y-146576190D01*
X131585714Y-147052380D02*
X131585714Y-146052380D01*
X131966666Y-146052380D01*
X132061904Y-146100000D01*
X132109523Y-146147619D01*
X132157142Y-146242857D01*
X132157142Y-146385714D01*
X132109523Y-146480952D01*
X132061904Y-146528571D01*
X131966666Y-146576190D01*
X131585714Y-146576190D01*
X132490476Y-146052380D02*
X133157142Y-146052380D01*
X132728571Y-147052380D01*
X133966666Y-146385714D02*
X133966666Y-147052380D01*
X133728571Y-146004761D02*
X133490476Y-146719047D01*
X134109523Y-146719047D01*
G04 #@! TO.C,C18*
X148807142Y-144242857D02*
X148854761Y-144290476D01*
X148902380Y-144433333D01*
X148902380Y-144528571D01*
X148854761Y-144671428D01*
X148759523Y-144766666D01*
X148664285Y-144814285D01*
X148473809Y-144861904D01*
X148330952Y-144861904D01*
X148140476Y-144814285D01*
X148045238Y-144766666D01*
X147950000Y-144671428D01*
X147902380Y-144528571D01*
X147902380Y-144433333D01*
X147950000Y-144290476D01*
X147997619Y-144242857D01*
X148902380Y-143290476D02*
X148902380Y-143861904D01*
X148902380Y-143576190D02*
X147902380Y-143576190D01*
X148045238Y-143671428D01*
X148140476Y-143766666D01*
X148188095Y-143861904D01*
X148330952Y-142719047D02*
X148283333Y-142814285D01*
X148235714Y-142861904D01*
X148140476Y-142909523D01*
X148092857Y-142909523D01*
X147997619Y-142861904D01*
X147950000Y-142814285D01*
X147902380Y-142719047D01*
X147902380Y-142528571D01*
X147950000Y-142433333D01*
X147997619Y-142385714D01*
X148092857Y-142338095D01*
X148140476Y-142338095D01*
X148235714Y-142385714D01*
X148283333Y-142433333D01*
X148330952Y-142528571D01*
X148330952Y-142719047D01*
X148378571Y-142814285D01*
X148426190Y-142861904D01*
X148521428Y-142909523D01*
X148711904Y-142909523D01*
X148807142Y-142861904D01*
X148854761Y-142814285D01*
X148902380Y-142719047D01*
X148902380Y-142528571D01*
X148854761Y-142433333D01*
X148807142Y-142385714D01*
X148711904Y-142338095D01*
X148521428Y-142338095D01*
X148426190Y-142385714D01*
X148378571Y-142433333D01*
X148330952Y-142528571D01*
G04 #@! TO.C,R55*
X107557142Y-104552380D02*
X107223809Y-104076190D01*
X106985714Y-104552380D02*
X106985714Y-103552380D01*
X107366666Y-103552380D01*
X107461904Y-103600000D01*
X107509523Y-103647619D01*
X107557142Y-103742857D01*
X107557142Y-103885714D01*
X107509523Y-103980952D01*
X107461904Y-104028571D01*
X107366666Y-104076190D01*
X106985714Y-104076190D01*
X108461904Y-103552380D02*
X107985714Y-103552380D01*
X107938095Y-104028571D01*
X107985714Y-103980952D01*
X108080952Y-103933333D01*
X108319047Y-103933333D01*
X108414285Y-103980952D01*
X108461904Y-104028571D01*
X108509523Y-104123809D01*
X108509523Y-104361904D01*
X108461904Y-104457142D01*
X108414285Y-104504761D01*
X108319047Y-104552380D01*
X108080952Y-104552380D01*
X107985714Y-104504761D01*
X107938095Y-104457142D01*
X109414285Y-103552380D02*
X108938095Y-103552380D01*
X108890476Y-104028571D01*
X108938095Y-103980952D01*
X109033333Y-103933333D01*
X109271428Y-103933333D01*
X109366666Y-103980952D01*
X109414285Y-104028571D01*
X109461904Y-104123809D01*
X109461904Y-104361904D01*
X109414285Y-104457142D01*
X109366666Y-104504761D01*
X109271428Y-104552380D01*
X109033333Y-104552380D01*
X108938095Y-104504761D01*
X108890476Y-104457142D01*
G04 #@! TO.C,R71*
X182057142Y-105252380D02*
X181723809Y-104776190D01*
X181485714Y-105252380D02*
X181485714Y-104252380D01*
X181866666Y-104252380D01*
X181961904Y-104300000D01*
X182009523Y-104347619D01*
X182057142Y-104442857D01*
X182057142Y-104585714D01*
X182009523Y-104680952D01*
X181961904Y-104728571D01*
X181866666Y-104776190D01*
X181485714Y-104776190D01*
X182390476Y-104252380D02*
X183057142Y-104252380D01*
X182628571Y-105252380D01*
X183961904Y-105252380D02*
X183390476Y-105252380D01*
X183676190Y-105252380D02*
X183676190Y-104252380D01*
X183580952Y-104395238D01*
X183485714Y-104490476D01*
X183390476Y-104538095D01*
G04 #@! TO.C,R37*
X120357142Y-91852380D02*
X120023809Y-91376190D01*
X119785714Y-91852380D02*
X119785714Y-90852380D01*
X120166666Y-90852380D01*
X120261904Y-90900000D01*
X120309523Y-90947619D01*
X120357142Y-91042857D01*
X120357142Y-91185714D01*
X120309523Y-91280952D01*
X120261904Y-91328571D01*
X120166666Y-91376190D01*
X119785714Y-91376190D01*
X120690476Y-90852380D02*
X121309523Y-90852380D01*
X120976190Y-91233333D01*
X121119047Y-91233333D01*
X121214285Y-91280952D01*
X121261904Y-91328571D01*
X121309523Y-91423809D01*
X121309523Y-91661904D01*
X121261904Y-91757142D01*
X121214285Y-91804761D01*
X121119047Y-91852380D01*
X120833333Y-91852380D01*
X120738095Y-91804761D01*
X120690476Y-91757142D01*
X121642857Y-90852380D02*
X122309523Y-90852380D01*
X121880952Y-91852380D01*
G04 #@! TO.C,C15*
X130327142Y-55542857D02*
X130374761Y-55590476D01*
X130422380Y-55733333D01*
X130422380Y-55828571D01*
X130374761Y-55971428D01*
X130279523Y-56066666D01*
X130184285Y-56114285D01*
X129993809Y-56161904D01*
X129850952Y-56161904D01*
X129660476Y-56114285D01*
X129565238Y-56066666D01*
X129470000Y-55971428D01*
X129422380Y-55828571D01*
X129422380Y-55733333D01*
X129470000Y-55590476D01*
X129517619Y-55542857D01*
X130422380Y-54590476D02*
X130422380Y-55161904D01*
X130422380Y-54876190D02*
X129422380Y-54876190D01*
X129565238Y-54971428D01*
X129660476Y-55066666D01*
X129708095Y-55161904D01*
X129422380Y-53685714D02*
X129422380Y-54161904D01*
X129898571Y-54209523D01*
X129850952Y-54161904D01*
X129803333Y-54066666D01*
X129803333Y-53828571D01*
X129850952Y-53733333D01*
X129898571Y-53685714D01*
X129993809Y-53638095D01*
X130231904Y-53638095D01*
X130327142Y-53685714D01*
X130374761Y-53733333D01*
X130422380Y-53828571D01*
X130422380Y-54066666D01*
X130374761Y-54161904D01*
X130327142Y-54209523D01*
G04 #@! TO.C,C4*
X155133333Y-123357142D02*
X155085714Y-123404761D01*
X154942857Y-123452380D01*
X154847619Y-123452380D01*
X154704761Y-123404761D01*
X154609523Y-123309523D01*
X154561904Y-123214285D01*
X154514285Y-123023809D01*
X154514285Y-122880952D01*
X154561904Y-122690476D01*
X154609523Y-122595238D01*
X154704761Y-122500000D01*
X154847619Y-122452380D01*
X154942857Y-122452380D01*
X155085714Y-122500000D01*
X155133333Y-122547619D01*
X155990476Y-122785714D02*
X155990476Y-123452380D01*
X155752380Y-122404761D02*
X155514285Y-123119047D01*
X156133333Y-123119047D01*
G04 #@! TO.C,J10*
X156907380Y-71709523D02*
X157621666Y-71709523D01*
X157764523Y-71757142D01*
X157859761Y-71852380D01*
X157907380Y-71995238D01*
X157907380Y-72090476D01*
X157907380Y-70709523D02*
X157907380Y-71280952D01*
X157907380Y-70995238D02*
X156907380Y-70995238D01*
X157050238Y-71090476D01*
X157145476Y-71185714D01*
X157193095Y-71280952D01*
X156907380Y-70090476D02*
X156907380Y-69995238D01*
X156955000Y-69900000D01*
X157002619Y-69852380D01*
X157097857Y-69804761D01*
X157288333Y-69757142D01*
X157526428Y-69757142D01*
X157716904Y-69804761D01*
X157812142Y-69852380D01*
X157859761Y-69900000D01*
X157907380Y-69995238D01*
X157907380Y-70090476D01*
X157859761Y-70185714D01*
X157812142Y-70233333D01*
X157716904Y-70280952D01*
X157526428Y-70328571D01*
X157288333Y-70328571D01*
X157097857Y-70280952D01*
X157002619Y-70233333D01*
X156955000Y-70185714D01*
X156907380Y-70090476D01*
G04 #@! TO.C,R52*
X108157142Y-96952380D02*
X107823809Y-96476190D01*
X107585714Y-96952380D02*
X107585714Y-95952380D01*
X107966666Y-95952380D01*
X108061904Y-96000000D01*
X108109523Y-96047619D01*
X108157142Y-96142857D01*
X108157142Y-96285714D01*
X108109523Y-96380952D01*
X108061904Y-96428571D01*
X107966666Y-96476190D01*
X107585714Y-96476190D01*
X109061904Y-95952380D02*
X108585714Y-95952380D01*
X108538095Y-96428571D01*
X108585714Y-96380952D01*
X108680952Y-96333333D01*
X108919047Y-96333333D01*
X109014285Y-96380952D01*
X109061904Y-96428571D01*
X109109523Y-96523809D01*
X109109523Y-96761904D01*
X109061904Y-96857142D01*
X109014285Y-96904761D01*
X108919047Y-96952380D01*
X108680952Y-96952380D01*
X108585714Y-96904761D01*
X108538095Y-96857142D01*
X109490476Y-96047619D02*
X109538095Y-96000000D01*
X109633333Y-95952380D01*
X109871428Y-95952380D01*
X109966666Y-96000000D01*
X110014285Y-96047619D01*
X110061904Y-96142857D01*
X110061904Y-96238095D01*
X110014285Y-96380952D01*
X109442857Y-96952380D01*
X110061904Y-96952380D01*
G04 #@! TO.C,R54*
X107457142Y-101952380D02*
X107123809Y-101476190D01*
X106885714Y-101952380D02*
X106885714Y-100952380D01*
X107266666Y-100952380D01*
X107361904Y-101000000D01*
X107409523Y-101047619D01*
X107457142Y-101142857D01*
X107457142Y-101285714D01*
X107409523Y-101380952D01*
X107361904Y-101428571D01*
X107266666Y-101476190D01*
X106885714Y-101476190D01*
X108361904Y-100952380D02*
X107885714Y-100952380D01*
X107838095Y-101428571D01*
X107885714Y-101380952D01*
X107980952Y-101333333D01*
X108219047Y-101333333D01*
X108314285Y-101380952D01*
X108361904Y-101428571D01*
X108409523Y-101523809D01*
X108409523Y-101761904D01*
X108361904Y-101857142D01*
X108314285Y-101904761D01*
X108219047Y-101952380D01*
X107980952Y-101952380D01*
X107885714Y-101904761D01*
X107838095Y-101857142D01*
X109266666Y-101285714D02*
X109266666Y-101952380D01*
X109028571Y-100904761D02*
X108790476Y-101619047D01*
X109409523Y-101619047D01*
G04 #@! TO.C,R77*
X118522380Y-133442857D02*
X118046190Y-133776190D01*
X118522380Y-134014285D02*
X117522380Y-134014285D01*
X117522380Y-133633333D01*
X117570000Y-133538095D01*
X117617619Y-133490476D01*
X117712857Y-133442857D01*
X117855714Y-133442857D01*
X117950952Y-133490476D01*
X117998571Y-133538095D01*
X118046190Y-133633333D01*
X118046190Y-134014285D01*
X117522380Y-133109523D02*
X117522380Y-132442857D01*
X118522380Y-132871428D01*
X117522380Y-132157142D02*
X117522380Y-131490476D01*
X118522380Y-131919047D01*
G04 #@! TO.C,R31*
X120457142Y-107152380D02*
X120123809Y-106676190D01*
X119885714Y-107152380D02*
X119885714Y-106152380D01*
X120266666Y-106152380D01*
X120361904Y-106200000D01*
X120409523Y-106247619D01*
X120457142Y-106342857D01*
X120457142Y-106485714D01*
X120409523Y-106580952D01*
X120361904Y-106628571D01*
X120266666Y-106676190D01*
X119885714Y-106676190D01*
X120790476Y-106152380D02*
X121409523Y-106152380D01*
X121076190Y-106533333D01*
X121219047Y-106533333D01*
X121314285Y-106580952D01*
X121361904Y-106628571D01*
X121409523Y-106723809D01*
X121409523Y-106961904D01*
X121361904Y-107057142D01*
X121314285Y-107104761D01*
X121219047Y-107152380D01*
X120933333Y-107152380D01*
X120838095Y-107104761D01*
X120790476Y-107057142D01*
X122361904Y-107152380D02*
X121790476Y-107152380D01*
X122076190Y-107152380D02*
X122076190Y-106152380D01*
X121980952Y-106295238D01*
X121885714Y-106390476D01*
X121790476Y-106438095D01*
G04 #@! TO.C,J1*
X109566666Y-108622380D02*
X109566666Y-109336666D01*
X109519047Y-109479523D01*
X109423809Y-109574761D01*
X109280952Y-109622380D01*
X109185714Y-109622380D01*
X110566666Y-109622380D02*
X109995238Y-109622380D01*
X110280952Y-109622380D02*
X110280952Y-108622380D01*
X110185714Y-108765238D01*
X110090476Y-108860476D01*
X109995238Y-108908095D01*
G04 #@! TO.C,H4*
X102938095Y-142552380D02*
X102938095Y-141552380D01*
X102938095Y-142028571D02*
X103509523Y-142028571D01*
X103509523Y-142552380D02*
X103509523Y-141552380D01*
X104414285Y-141885714D02*
X104414285Y-142552380D01*
X104176190Y-141504761D02*
X103938095Y-142219047D01*
X104557142Y-142219047D01*
G04 #@! TO.C,R18*
X191357142Y-100152380D02*
X191023809Y-99676190D01*
X190785714Y-100152380D02*
X190785714Y-99152380D01*
X191166666Y-99152380D01*
X191261904Y-99200000D01*
X191309523Y-99247619D01*
X191357142Y-99342857D01*
X191357142Y-99485714D01*
X191309523Y-99580952D01*
X191261904Y-99628571D01*
X191166666Y-99676190D01*
X190785714Y-99676190D01*
X192309523Y-100152380D02*
X191738095Y-100152380D01*
X192023809Y-100152380D02*
X192023809Y-99152380D01*
X191928571Y-99295238D01*
X191833333Y-99390476D01*
X191738095Y-99438095D01*
X192880952Y-99580952D02*
X192785714Y-99533333D01*
X192738095Y-99485714D01*
X192690476Y-99390476D01*
X192690476Y-99342857D01*
X192738095Y-99247619D01*
X192785714Y-99200000D01*
X192880952Y-99152380D01*
X193071428Y-99152380D01*
X193166666Y-99200000D01*
X193214285Y-99247619D01*
X193261904Y-99342857D01*
X193261904Y-99390476D01*
X193214285Y-99485714D01*
X193166666Y-99533333D01*
X193071428Y-99580952D01*
X192880952Y-99580952D01*
X192785714Y-99628571D01*
X192738095Y-99676190D01*
X192690476Y-99771428D01*
X192690476Y-99961904D01*
X192738095Y-100057142D01*
X192785714Y-100104761D01*
X192880952Y-100152380D01*
X193071428Y-100152380D01*
X193166666Y-100104761D01*
X193214285Y-100057142D01*
X193261904Y-99961904D01*
X193261904Y-99771428D01*
X193214285Y-99676190D01*
X193166666Y-99628571D01*
X193071428Y-99580952D01*
G04 #@! TO.C,R44*
X108457142Y-74152380D02*
X108123809Y-73676190D01*
X107885714Y-74152380D02*
X107885714Y-73152380D01*
X108266666Y-73152380D01*
X108361904Y-73200000D01*
X108409523Y-73247619D01*
X108457142Y-73342857D01*
X108457142Y-73485714D01*
X108409523Y-73580952D01*
X108361904Y-73628571D01*
X108266666Y-73676190D01*
X107885714Y-73676190D01*
X109314285Y-73485714D02*
X109314285Y-74152380D01*
X109076190Y-73104761D02*
X108838095Y-73819047D01*
X109457142Y-73819047D01*
X110266666Y-73485714D02*
X110266666Y-74152380D01*
X110028571Y-73104761D02*
X109790476Y-73819047D01*
X110409523Y-73819047D01*
G04 #@! TO.C,R36*
X120357142Y-89252380D02*
X120023809Y-88776190D01*
X119785714Y-89252380D02*
X119785714Y-88252380D01*
X120166666Y-88252380D01*
X120261904Y-88300000D01*
X120309523Y-88347619D01*
X120357142Y-88442857D01*
X120357142Y-88585714D01*
X120309523Y-88680952D01*
X120261904Y-88728571D01*
X120166666Y-88776190D01*
X119785714Y-88776190D01*
X120690476Y-88252380D02*
X121309523Y-88252380D01*
X120976190Y-88633333D01*
X121119047Y-88633333D01*
X121214285Y-88680952D01*
X121261904Y-88728571D01*
X121309523Y-88823809D01*
X121309523Y-89061904D01*
X121261904Y-89157142D01*
X121214285Y-89204761D01*
X121119047Y-89252380D01*
X120833333Y-89252380D01*
X120738095Y-89204761D01*
X120690476Y-89157142D01*
X122166666Y-88252380D02*
X121976190Y-88252380D01*
X121880952Y-88300000D01*
X121833333Y-88347619D01*
X121738095Y-88490476D01*
X121690476Y-88680952D01*
X121690476Y-89061904D01*
X121738095Y-89157142D01*
X121785714Y-89204761D01*
X121880952Y-89252380D01*
X122071428Y-89252380D01*
X122166666Y-89204761D01*
X122214285Y-89157142D01*
X122261904Y-89061904D01*
X122261904Y-88823809D01*
X122214285Y-88728571D01*
X122166666Y-88680952D01*
X122071428Y-88633333D01*
X121880952Y-88633333D01*
X121785714Y-88680952D01*
X121738095Y-88728571D01*
X121690476Y-88823809D01*
G04 #@! TO.C,R67*
X181057142Y-95052380D02*
X180723809Y-94576190D01*
X180485714Y-95052380D02*
X180485714Y-94052380D01*
X180866666Y-94052380D01*
X180961904Y-94100000D01*
X181009523Y-94147619D01*
X181057142Y-94242857D01*
X181057142Y-94385714D01*
X181009523Y-94480952D01*
X180961904Y-94528571D01*
X180866666Y-94576190D01*
X180485714Y-94576190D01*
X181914285Y-94052380D02*
X181723809Y-94052380D01*
X181628571Y-94100000D01*
X181580952Y-94147619D01*
X181485714Y-94290476D01*
X181438095Y-94480952D01*
X181438095Y-94861904D01*
X181485714Y-94957142D01*
X181533333Y-95004761D01*
X181628571Y-95052380D01*
X181819047Y-95052380D01*
X181914285Y-95004761D01*
X181961904Y-94957142D01*
X182009523Y-94861904D01*
X182009523Y-94623809D01*
X181961904Y-94528571D01*
X181914285Y-94480952D01*
X181819047Y-94433333D01*
X181628571Y-94433333D01*
X181533333Y-94480952D01*
X181485714Y-94528571D01*
X181438095Y-94623809D01*
X182342857Y-94052380D02*
X183009523Y-94052380D01*
X182580952Y-95052380D01*
G04 #@! TO.C,R1*
X154622380Y-57366666D02*
X154146190Y-57700000D01*
X154622380Y-57938095D02*
X153622380Y-57938095D01*
X153622380Y-57557142D01*
X153670000Y-57461904D01*
X153717619Y-57414285D01*
X153812857Y-57366666D01*
X153955714Y-57366666D01*
X154050952Y-57414285D01*
X154098571Y-57461904D01*
X154146190Y-57557142D01*
X154146190Y-57938095D01*
X154622380Y-56414285D02*
X154622380Y-56985714D01*
X154622380Y-56700000D02*
X153622380Y-56700000D01*
X153765238Y-56795238D01*
X153860476Y-56890476D01*
X153908095Y-56985714D01*
G04 #@! TO.C,Y1*
X130526190Y-112176190D02*
X131002380Y-112176190D01*
X130002380Y-112509523D02*
X130526190Y-112176190D01*
X130002380Y-111842857D01*
X131002380Y-110985714D02*
X131002380Y-111557142D01*
X131002380Y-111271428D02*
X130002380Y-111271428D01*
X130145238Y-111366666D01*
X130240476Y-111461904D01*
X130288095Y-111557142D01*
G04 #@! TO.C,J2*
X198582380Y-125633333D02*
X199296666Y-125633333D01*
X199439523Y-125680952D01*
X199534761Y-125776190D01*
X199582380Y-125919047D01*
X199582380Y-126014285D01*
X198677619Y-125204761D02*
X198630000Y-125157142D01*
X198582380Y-125061904D01*
X198582380Y-124823809D01*
X198630000Y-124728571D01*
X198677619Y-124680952D01*
X198772857Y-124633333D01*
X198868095Y-124633333D01*
X199010952Y-124680952D01*
X199582380Y-125252380D01*
X199582380Y-124633333D01*
G04 #@! TO.C,R69*
X182057142Y-100152380D02*
X181723809Y-99676190D01*
X181485714Y-100152380D02*
X181485714Y-99152380D01*
X181866666Y-99152380D01*
X181961904Y-99200000D01*
X182009523Y-99247619D01*
X182057142Y-99342857D01*
X182057142Y-99485714D01*
X182009523Y-99580952D01*
X181961904Y-99628571D01*
X181866666Y-99676190D01*
X181485714Y-99676190D01*
X182914285Y-99152380D02*
X182723809Y-99152380D01*
X182628571Y-99200000D01*
X182580952Y-99247619D01*
X182485714Y-99390476D01*
X182438095Y-99580952D01*
X182438095Y-99961904D01*
X182485714Y-100057142D01*
X182533333Y-100104761D01*
X182628571Y-100152380D01*
X182819047Y-100152380D01*
X182914285Y-100104761D01*
X182961904Y-100057142D01*
X183009523Y-99961904D01*
X183009523Y-99723809D01*
X182961904Y-99628571D01*
X182914285Y-99580952D01*
X182819047Y-99533333D01*
X182628571Y-99533333D01*
X182533333Y-99580952D01*
X182485714Y-99628571D01*
X182438095Y-99723809D01*
X183485714Y-100152380D02*
X183676190Y-100152380D01*
X183771428Y-100104761D01*
X183819047Y-100057142D01*
X183914285Y-99914285D01*
X183961904Y-99723809D01*
X183961904Y-99342857D01*
X183914285Y-99247619D01*
X183866666Y-99200000D01*
X183771428Y-99152380D01*
X183580952Y-99152380D01*
X183485714Y-99200000D01*
X183438095Y-99247619D01*
X183390476Y-99342857D01*
X183390476Y-99580952D01*
X183438095Y-99676190D01*
X183485714Y-99723809D01*
X183580952Y-99771428D01*
X183771428Y-99771428D01*
X183866666Y-99723809D01*
X183914285Y-99676190D01*
X183961904Y-99580952D01*
D11*
G04 #@! TO.C,R5*
X194845276Y-67122500D02*
X195354724Y-67122500D01*
X194845276Y-66077500D02*
X195354724Y-66077500D01*
G04 #@! TO.C,R17*
X194945276Y-96577500D02*
X195454724Y-96577500D01*
X194945276Y-97622500D02*
X195454724Y-97622500D01*
G04 #@! TO.C,R76*
X121827500Y-137269724D02*
X121827500Y-136760276D01*
X122872500Y-137269724D02*
X122872500Y-136760276D01*
G04 #@! TO.C,J11*
X104870000Y-112770000D02*
X104870000Y-135690000D01*
X104870000Y-112770000D02*
X107530000Y-112770000D01*
X107530000Y-112770000D02*
X107530000Y-135690000D01*
X104870000Y-135690000D02*
X107530000Y-135690000D01*
X104870000Y-110170000D02*
X106200000Y-110170000D01*
X104870000Y-111500000D02*
X104870000Y-110170000D01*
G04 #@! TO.C,R65*
X178954724Y-90022500D02*
X178445276Y-90022500D01*
X178954724Y-88977500D02*
X178445276Y-88977500D01*
G04 #@! TO.C,R28*
X124454724Y-98477500D02*
X123945276Y-98477500D01*
X124454724Y-99522500D02*
X123945276Y-99522500D01*
G04 #@! TO.C,R53*
X105154724Y-98377500D02*
X104645276Y-98377500D01*
X105154724Y-99422500D02*
X104645276Y-99422500D01*
G04 #@! TO.C,R41*
X105054724Y-65377500D02*
X104545276Y-65377500D01*
X105054724Y-66422500D02*
X104545276Y-66422500D01*
G04 #@! TO.C,R49*
X105154724Y-85677500D02*
X104645276Y-85677500D01*
X105154724Y-86722500D02*
X104645276Y-86722500D01*
G04 #@! TO.C,C7*
X164190000Y-111653733D02*
X164190000Y-111946267D01*
X165210000Y-111653733D02*
X165210000Y-111946267D01*
G04 #@! TO.C,C1*
X138940000Y-107915835D02*
X138940000Y-107684165D01*
X139660000Y-107915835D02*
X139660000Y-107684165D01*
D12*
G04 #@! TO.C,U4*
X181500000Y-52500000D02*
X179400000Y-52500000D01*
X194400000Y-57600000D02*
X194400000Y-52500000D01*
X181500000Y-55000000D02*
X181500000Y-52500000D01*
X186900000Y-55000000D02*
X186900000Y-52500000D01*
X179400000Y-52500000D02*
X179400000Y-56000000D01*
X194400000Y-52500000D02*
X189400000Y-52500000D01*
X183900000Y-55000000D02*
X181500000Y-55000000D01*
X189400000Y-55000000D02*
X186900000Y-55000000D01*
X183900000Y-52500000D02*
X183900000Y-55000000D01*
X189400000Y-52500000D02*
X189400000Y-55000000D01*
X186900000Y-52500000D02*
X183900000Y-52500000D01*
X191900000Y-52500000D02*
X191900000Y-57600000D01*
D11*
X174200000Y-57730000D02*
X199600000Y-57730000D01*
X199600000Y-57730000D02*
X199600000Y-120470000D01*
X199600000Y-120470000D02*
X174200000Y-120470000D01*
X174200000Y-120470000D02*
X174200000Y-57730000D01*
X197060000Y-57730000D02*
X199600000Y-57730000D01*
X199600000Y-57730000D02*
X199600000Y-113610000D01*
X199600000Y-113610000D02*
X197060000Y-113610000D01*
X197060000Y-113610000D02*
X197060000Y-57730000D01*
X174200000Y-57730000D02*
X176740000Y-57730000D01*
X176740000Y-57730000D02*
X176740000Y-113610000D01*
X176740000Y-113610000D02*
X174200000Y-113610000D01*
X174200000Y-113610000D02*
X174200000Y-57730000D01*
X177900000Y-51630000D02*
X195900000Y-51630000D01*
X195900000Y-51630000D02*
X195900000Y-77130000D01*
X195900000Y-77130000D02*
X177900000Y-77130000D01*
X177900000Y-77130000D02*
X177900000Y-51630000D01*
G04 #@! TO.C,R47*
X105154724Y-80677500D02*
X104645276Y-80677500D01*
X105154724Y-81722500D02*
X104645276Y-81722500D01*
G04 #@! TO.C,J3*
X101170000Y-112770000D02*
X101170000Y-135690000D01*
X101170000Y-135690000D02*
X103830000Y-135690000D01*
X101170000Y-110170000D02*
X102500000Y-110170000D01*
X101170000Y-112770000D02*
X103830000Y-112770000D01*
X103830000Y-112770000D02*
X103830000Y-135690000D01*
X101170000Y-111500000D02*
X101170000Y-110170000D01*
G04 #@! TO.C,C17*
X129510000Y-141046267D02*
X129510000Y-140753733D01*
X128490000Y-141046267D02*
X128490000Y-140753733D01*
G04 #@! TO.C,R60*
X178954724Y-76277500D02*
X178445276Y-76277500D01*
X178954724Y-77322500D02*
X178445276Y-77322500D01*
G04 #@! TO.C,R43*
X105254724Y-71622500D02*
X104745276Y-71622500D01*
X105254724Y-70577500D02*
X104745276Y-70577500D01*
G04 #@! TO.C,R7*
X194845276Y-72222500D02*
X195354724Y-72222500D01*
X194845276Y-71177500D02*
X195354724Y-71177500D01*
G04 #@! TO.C,R10*
X194745276Y-78777500D02*
X195254724Y-78777500D01*
X194745276Y-79822500D02*
X195254724Y-79822500D01*
G04 #@! TO.C,R66*
X178954724Y-92522500D02*
X178445276Y-92522500D01*
X178954724Y-91477500D02*
X178445276Y-91477500D01*
G04 #@! TO.C,R14*
X194845276Y-88977500D02*
X195354724Y-88977500D01*
X194845276Y-90022500D02*
X195354724Y-90022500D01*
G04 #@! TO.C,J8*
X180455000Y-145730000D02*
X157535000Y-145730000D01*
X183055000Y-143070000D02*
X183055000Y-144400000D01*
X181725000Y-143070000D02*
X183055000Y-143070000D01*
X180455000Y-143070000D02*
X157535000Y-143070000D01*
X157535000Y-143070000D02*
X157535000Y-145730000D01*
X180455000Y-143070000D02*
X180455000Y-145730000D01*
G04 #@! TO.C,R63*
X179154724Y-84922500D02*
X178645276Y-84922500D01*
X179154724Y-83877500D02*
X178645276Y-83877500D01*
G04 #@! TO.C,R16*
X194832776Y-95122500D02*
X195342224Y-95122500D01*
X194832776Y-94077500D02*
X195342224Y-94077500D01*
G04 #@! TO.C,C3*
X163840000Y-99651665D02*
X163840000Y-99883335D01*
X164560000Y-99651665D02*
X164560000Y-99883335D01*
G04 #@! TO.C,R48*
X105054724Y-83177500D02*
X104545276Y-83177500D01*
X105054724Y-84222500D02*
X104545276Y-84222500D01*
G04 #@! TO.C,R29*
X124354724Y-102022500D02*
X123845276Y-102022500D01*
X124354724Y-100977500D02*
X123845276Y-100977500D01*
D13*
G04 #@! TO.C,U3*
X128450000Y-53450000D02*
X128450000Y-107850000D01*
D11*
X108200000Y-71200000D02*
X121150000Y-71200000D01*
D13*
X100550000Y-107850000D02*
X100550000Y-53450000D01*
D11*
X108200000Y-53500000D02*
X108200000Y-71200000D01*
D13*
X128450000Y-107850000D02*
X100550000Y-107850000D01*
D11*
X121150000Y-71200000D02*
X121150000Y-53450000D01*
X128450000Y-53450000D02*
X100550000Y-53450000D01*
G04 #@! TO.C,R23*
X124354724Y-65377500D02*
X123845276Y-65377500D01*
X124354724Y-66422500D02*
X123845276Y-66422500D01*
G04 #@! TO.C,J6*
X116020000Y-143950000D02*
X116020000Y-145870000D01*
X125180000Y-145870000D02*
X125180000Y-143950000D01*
X125180000Y-147880000D02*
X125180000Y-149585000D01*
X125180000Y-149585000D02*
X116020000Y-149585000D01*
X116020000Y-149585000D02*
X116020000Y-147880000D01*
G04 #@! TO.C,R9*
X194832776Y-77322500D02*
X195342224Y-77322500D01*
X194832776Y-76277500D02*
X195342224Y-76277500D01*
G04 #@! TO.C,R24*
X124354724Y-69022500D02*
X123845276Y-69022500D01*
X124354724Y-67977500D02*
X123845276Y-67977500D01*
G04 #@! TO.C,U1*
X162110000Y-119010000D02*
X162110000Y-118060000D01*
X141890000Y-98790000D02*
X141890000Y-99740000D01*
X161160000Y-98790000D02*
X162110000Y-98790000D01*
X141890000Y-119010000D02*
X141890000Y-118060000D01*
X141890000Y-99740000D02*
X140600000Y-99740000D01*
X142840000Y-98790000D02*
X141890000Y-98790000D01*
X142840000Y-119010000D02*
X141890000Y-119010000D01*
X161160000Y-119010000D02*
X162110000Y-119010000D01*
X162110000Y-98790000D02*
X162110000Y-99740000D01*
G04 #@! TO.C,R70*
X178854724Y-101677500D02*
X178345276Y-101677500D01*
X178854724Y-102722500D02*
X178345276Y-102722500D01*
G04 #@! TO.C,R39*
X143277500Y-54854724D02*
X143277500Y-54345276D01*
X144322500Y-54854724D02*
X144322500Y-54345276D01*
G04 #@! TO.C,R22*
X124354724Y-63922500D02*
X123845276Y-63922500D01*
X124354724Y-62877500D02*
X123845276Y-62877500D01*
G04 #@! TO.C,R79*
X138254724Y-133977500D02*
X137745276Y-133977500D01*
X138254724Y-135022500D02*
X137745276Y-135022500D01*
G04 #@! TO.C,C19*
X133146267Y-115010000D02*
X132853733Y-115010000D01*
X133146267Y-113990000D02*
X132853733Y-113990000D01*
G04 #@! TO.C,R8*
X194832776Y-73677500D02*
X195342224Y-73677500D01*
X194832776Y-74722500D02*
X195342224Y-74722500D01*
G04 #@! TO.C,R78*
X122922500Y-133054724D02*
X122922500Y-132545276D01*
X121877500Y-133054724D02*
X121877500Y-132545276D01*
G04 #@! TO.C,C20*
X132853733Y-109010000D02*
X133146267Y-109010000D01*
X132853733Y-107990000D02*
X133146267Y-107990000D01*
G04 #@! TO.C,R45*
X105142224Y-75577500D02*
X104632776Y-75577500D01*
X105142224Y-76622500D02*
X104632776Y-76622500D01*
G04 #@! TO.C,R20*
X194745276Y-105222500D02*
X195254724Y-105222500D01*
X194745276Y-104177500D02*
X195254724Y-104177500D01*
G04 #@! TO.C,R42*
X105254724Y-69022500D02*
X104745276Y-69022500D01*
X105254724Y-67977500D02*
X104745276Y-67977500D01*
G04 #@! TO.C,R46*
X105054724Y-79122500D02*
X104545276Y-79122500D01*
X105054724Y-78077500D02*
X104545276Y-78077500D01*
G04 #@! TO.C,C8*
X150646267Y-121910000D02*
X150353733Y-121910000D01*
X150646267Y-120890000D02*
X150353733Y-120890000D01*
G04 #@! TO.C,J4*
X198130000Y-131370000D02*
X198130000Y-132700000D01*
X195530000Y-131370000D02*
X172610000Y-131370000D01*
X195530000Y-134030000D02*
X172610000Y-134030000D01*
X172610000Y-131370000D02*
X172610000Y-134030000D01*
X196800000Y-131370000D02*
X198130000Y-131370000D01*
X195530000Y-131370000D02*
X195530000Y-134030000D01*
G04 #@! TO.C,R26*
X124354724Y-72977500D02*
X123845276Y-72977500D01*
X124354724Y-74022500D02*
X123845276Y-74022500D01*
G04 #@! TO.C,R34*
X124354724Y-83277500D02*
X123845276Y-83277500D01*
X124354724Y-84322500D02*
X123845276Y-84322500D01*
G04 #@! TO.C,SW1*
X135300000Y-52500000D02*
X135750000Y-52050000D01*
X135750000Y-57550000D02*
X138250000Y-57550000D01*
X138700000Y-52500000D02*
X138250000Y-52050000D01*
X134250000Y-53800000D02*
X134250000Y-55800000D01*
X135300000Y-57100000D02*
X135750000Y-57550000D01*
X139750000Y-53800000D02*
X139750000Y-55800000D01*
X135750000Y-52050000D02*
X138250000Y-52050000D01*
X138700000Y-57100000D02*
X138250000Y-57550000D01*
G04 #@! TO.C,R12*
X194845276Y-84922500D02*
X195354724Y-84922500D01*
X194845276Y-83877500D02*
X195354724Y-83877500D01*
G04 #@! TO.C,R75*
X118827500Y-137269724D02*
X118827500Y-136760276D01*
X119872500Y-137269724D02*
X119872500Y-136760276D01*
G04 #@! TO.C,C13*
X137910000Y-114746267D02*
X137910000Y-114453733D01*
X136890000Y-114746267D02*
X136890000Y-114453733D01*
G04 #@! TO.C,R38*
X124354724Y-94422500D02*
X123845276Y-94422500D01*
X124354724Y-93377500D02*
X123845276Y-93377500D01*
G04 #@! TO.C,R56*
X178954724Y-67222500D02*
X178445276Y-67222500D01*
X178954724Y-66177500D02*
X178445276Y-66177500D01*
G04 #@! TO.C,R61*
X178954724Y-78777500D02*
X178445276Y-78777500D01*
X178954724Y-79822500D02*
X178445276Y-79822500D01*
G04 #@! TO.C,R25*
X124354724Y-71622500D02*
X123845276Y-71622500D01*
X124354724Y-70577500D02*
X123845276Y-70577500D01*
G04 #@! TO.C,J12*
X196800000Y-127670000D02*
X198130000Y-127670000D01*
X195530000Y-127670000D02*
X172610000Y-127670000D01*
X172610000Y-127670000D02*
X172610000Y-130330000D01*
X198130000Y-127670000D02*
X198130000Y-129000000D01*
X195530000Y-130330000D02*
X172610000Y-130330000D01*
X195530000Y-127670000D02*
X195530000Y-130330000D01*
G04 #@! TO.C,C10*
X164165000Y-107938748D02*
X164165000Y-108461252D01*
X165635000Y-107938748D02*
X165635000Y-108461252D01*
G04 #@! TO.C,R59*
X179154724Y-74822500D02*
X178645276Y-74822500D01*
X179154724Y-73777500D02*
X178645276Y-73777500D01*
G04 #@! TO.C,R15*
X194945276Y-92522500D02*
X195454724Y-92522500D01*
X194945276Y-91477500D02*
X195454724Y-91477500D01*
G04 #@! TO.C,R51*
X105354724Y-90777500D02*
X104845276Y-90777500D01*
X105354724Y-91822500D02*
X104845276Y-91822500D01*
G04 #@! TO.C,C6*
X154753733Y-96910000D02*
X155046267Y-96910000D01*
X154753733Y-95890000D02*
X155046267Y-95890000D01*
G04 #@! TO.C,R68*
X178854724Y-97622500D02*
X178345276Y-97622500D01*
X178854724Y-96577500D02*
X178345276Y-96577500D01*
G04 #@! TO.C,D2*
X135040000Y-148835000D02*
X137500000Y-148835000D01*
X137500000Y-147365000D02*
X135040000Y-147365000D01*
X135040000Y-147365000D02*
X135040000Y-148835000D01*
G04 #@! TO.C,J5*
X148245000Y-57605000D02*
X148245000Y-55005000D01*
X153385000Y-57605000D02*
X153385000Y-52405000D01*
X145645000Y-57605000D02*
X145645000Y-56275000D01*
X146975000Y-57605000D02*
X145645000Y-57605000D01*
X145645000Y-52405000D02*
X153385000Y-52405000D01*
X148245000Y-57605000D02*
X153385000Y-57605000D01*
X148245000Y-55005000D02*
X145645000Y-55005000D01*
X145645000Y-55005000D02*
X145645000Y-52405000D01*
G04 #@! TO.C,C2*
X149984165Y-96340000D02*
X150215835Y-96340000D01*
X149984165Y-97060000D02*
X150215835Y-97060000D01*
G04 #@! TO.C,R73*
X153977500Y-146754724D02*
X153977500Y-146245276D01*
X155022500Y-146754724D02*
X155022500Y-146245276D01*
G04 #@! TO.C,R2*
X138945276Y-58177500D02*
X139454724Y-58177500D01*
X138945276Y-59222500D02*
X139454724Y-59222500D01*
G04 #@! TO.C,R13*
X194845276Y-87422500D02*
X195354724Y-87422500D01*
X194845276Y-86377500D02*
X195354724Y-86377500D01*
G04 #@! TO.C,C12*
X142846267Y-123990000D02*
X142553733Y-123990000D01*
X142846267Y-125010000D02*
X142553733Y-125010000D01*
G04 #@! TO.C,C9*
X161465000Y-120838748D02*
X161465000Y-121361252D01*
X162935000Y-120838748D02*
X162935000Y-121361252D01*
G04 #@! TO.C,R72*
X178854724Y-106677500D02*
X178345276Y-106677500D01*
X178854724Y-107722500D02*
X178345276Y-107722500D01*
G04 #@! TO.C,R50*
X105354724Y-88277500D02*
X104845276Y-88277500D01*
X105354724Y-89322500D02*
X104845276Y-89322500D01*
G04 #@! TO.C,C14*
X138565000Y-114761252D02*
X138565000Y-114238748D01*
X140035000Y-114761252D02*
X140035000Y-114238748D01*
G04 #@! TO.C,D1*
X153560000Y-148135000D02*
X153560000Y-146665000D01*
X153560000Y-146665000D02*
X151100000Y-146665000D01*
X151100000Y-148135000D02*
X153560000Y-148135000D01*
G04 #@! TO.C,R58*
X178954724Y-72222500D02*
X178445276Y-72222500D01*
X178954724Y-71177500D02*
X178445276Y-71177500D01*
G04 #@! TO.C,R33*
X124354724Y-81722500D02*
X123845276Y-81722500D01*
X124354724Y-80677500D02*
X123845276Y-80677500D01*
G04 #@! TO.C,J7*
X180430000Y-139370000D02*
X180430000Y-142030000D01*
X180430000Y-142030000D02*
X157510000Y-142030000D01*
X181700000Y-139370000D02*
X183030000Y-139370000D01*
X183030000Y-139370000D02*
X183030000Y-140700000D01*
X180430000Y-139370000D02*
X157510000Y-139370000D01*
X157510000Y-139370000D02*
X157510000Y-142030000D01*
G04 #@! TO.C,R6*
X194845276Y-69722500D02*
X195354724Y-69722500D01*
X194845276Y-68677500D02*
X195354724Y-68677500D01*
G04 #@! TO.C,R11*
X194845276Y-81377500D02*
X195354724Y-81377500D01*
X194845276Y-82422500D02*
X195354724Y-82422500D01*
G04 #@! TO.C,R62*
X179054724Y-81377500D02*
X178545276Y-81377500D01*
X179054724Y-82422500D02*
X178545276Y-82422500D01*
G04 #@! TO.C,C5*
X143046267Y-122110000D02*
X142753733Y-122110000D01*
X143046267Y-121090000D02*
X142753733Y-121090000D01*
G04 #@! TO.C,R40*
X105154724Y-62877500D02*
X104645276Y-62877500D01*
X105154724Y-63922500D02*
X104645276Y-63922500D01*
G04 #@! TO.C,C11*
X142535000Y-96961252D02*
X142535000Y-96438748D01*
X141065000Y-96961252D02*
X141065000Y-96438748D01*
G04 #@! TO.C,R27*
X124354724Y-96922500D02*
X123845276Y-96922500D01*
X124354724Y-95877500D02*
X123845276Y-95877500D01*
G04 #@! TO.C,R3*
X194945276Y-60977500D02*
X195454724Y-60977500D01*
X194945276Y-62022500D02*
X195454724Y-62022500D01*
G04 #@! TO.C,R30*
X124354724Y-104522500D02*
X123845276Y-104522500D01*
X124354724Y-103477500D02*
X123845276Y-103477500D01*
G04 #@! TO.C,U2*
X135830000Y-137550000D02*
X134330000Y-137550000D01*
X134330000Y-137820000D02*
X131500000Y-137820000D01*
X134330000Y-144450000D02*
X134330000Y-144180000D01*
X134330000Y-137550000D02*
X134330000Y-137820000D01*
X134330000Y-144180000D02*
X133230000Y-144180000D01*
X135830000Y-144450000D02*
X134330000Y-144450000D01*
G04 #@! TO.C,R4*
X194945276Y-63577500D02*
X195454724Y-63577500D01*
X194945276Y-64622500D02*
X195454724Y-64622500D01*
G04 #@! TO.C,R64*
X178954724Y-87422500D02*
X178445276Y-87422500D01*
X178954724Y-86377500D02*
X178445276Y-86377500D01*
G04 #@! TO.C,R32*
X124254724Y-79122500D02*
X123745276Y-79122500D01*
X124254724Y-78077500D02*
X123745276Y-78077500D01*
G04 #@! TO.C,R21*
X194845276Y-107722500D02*
X195354724Y-107722500D01*
X194845276Y-106677500D02*
X195354724Y-106677500D01*
G04 #@! TO.C,R57*
X178954724Y-69722500D02*
X178445276Y-69722500D01*
X178954724Y-68677500D02*
X178445276Y-68677500D01*
G04 #@! TO.C,R35*
X124454724Y-85677500D02*
X123945276Y-85677500D01*
X124454724Y-86722500D02*
X123945276Y-86722500D01*
G04 #@! TO.C,R19*
X194945276Y-102722500D02*
X195454724Y-102722500D01*
X194945276Y-101677500D02*
X195454724Y-101677500D01*
G04 #@! TO.C,J9*
X130910000Y-65870000D02*
X130910000Y-68530000D01*
X156430000Y-65870000D02*
X156430000Y-67200000D01*
X153830000Y-65870000D02*
X153830000Y-68530000D01*
X153830000Y-68530000D02*
X130910000Y-68530000D01*
X155100000Y-65870000D02*
X156430000Y-65870000D01*
X153830000Y-65870000D02*
X130910000Y-65870000D01*
G04 #@! TO.C,R74*
X133054724Y-147577500D02*
X132545276Y-147577500D01*
X133054724Y-148622500D02*
X132545276Y-148622500D01*
G04 #@! TO.C,C18*
X147610000Y-146600000D02*
X147610000Y-139665000D01*
X147610000Y-139665000D02*
X144190000Y-139665000D01*
X144190000Y-139665000D02*
X144190000Y-146600000D01*
G04 #@! TO.C,R55*
X105354724Y-103577500D02*
X104845276Y-103577500D01*
X105354724Y-104622500D02*
X104845276Y-104622500D01*
G04 #@! TO.C,R71*
X178954724Y-104177500D02*
X178445276Y-104177500D01*
X178954724Y-105222500D02*
X178445276Y-105222500D01*
G04 #@! TO.C,R37*
X124354724Y-91822500D02*
X123845276Y-91822500D01*
X124354724Y-90777500D02*
X123845276Y-90777500D01*
G04 #@! TO.C,C15*
X130890000Y-55046267D02*
X130890000Y-54753733D01*
X131910000Y-55046267D02*
X131910000Y-54753733D01*
G04 #@! TO.C,C4*
X155415835Y-120740000D02*
X155184165Y-120740000D01*
X155415835Y-121460000D02*
X155184165Y-121460000D01*
G04 #@! TO.C,J10*
X153855000Y-69570000D02*
X153855000Y-72230000D01*
X153855000Y-69570000D02*
X130935000Y-69570000D01*
X153855000Y-72230000D02*
X130935000Y-72230000D01*
X155125000Y-69570000D02*
X156455000Y-69570000D01*
X130935000Y-69570000D02*
X130935000Y-72230000D01*
X156455000Y-69570000D02*
X156455000Y-70900000D01*
G04 #@! TO.C,R52*
X105054724Y-95877500D02*
X104545276Y-95877500D01*
X105054724Y-96922500D02*
X104545276Y-96922500D01*
G04 #@! TO.C,R54*
X105142224Y-100977500D02*
X104632776Y-100977500D01*
X105142224Y-102022500D02*
X104632776Y-102022500D01*
G04 #@! TO.C,R77*
X118977500Y-133054724D02*
X118977500Y-132545276D01*
X120022500Y-133054724D02*
X120022500Y-132545276D01*
G04 #@! TO.C,R31*
X124454724Y-107222500D02*
X123945276Y-107222500D01*
X124454724Y-106177500D02*
X123945276Y-106177500D01*
G04 #@! TO.C,J1*
X108570000Y-111500000D02*
X108570000Y-110170000D01*
X108570000Y-110170000D02*
X109900000Y-110170000D01*
X108570000Y-135690000D02*
X111230000Y-135690000D01*
X111230000Y-112770000D02*
X111230000Y-135690000D01*
X108570000Y-112770000D02*
X111230000Y-112770000D01*
X108570000Y-112770000D02*
X108570000Y-135690000D01*
G04 #@! TO.C,R18*
X194945276Y-99077500D02*
X195454724Y-99077500D01*
X194945276Y-100122500D02*
X195454724Y-100122500D01*
G04 #@! TO.C,R44*
X105154724Y-74122500D02*
X104645276Y-74122500D01*
X105154724Y-73077500D02*
X104645276Y-73077500D01*
G04 #@! TO.C,R36*
X124342224Y-88277500D02*
X123832776Y-88277500D01*
X124342224Y-89322500D02*
X123832776Y-89322500D01*
G04 #@! TO.C,R67*
X178854724Y-95022500D02*
X178345276Y-95022500D01*
X178854724Y-93977500D02*
X178345276Y-93977500D01*
G04 #@! TO.C,R1*
X156122500Y-57454724D02*
X156122500Y-56945276D01*
X155077500Y-57454724D02*
X155077500Y-56945276D01*
G04 #@! TO.C,Y1*
X131350000Y-113500000D02*
X134650000Y-113500000D01*
X134650000Y-113500000D02*
X134650000Y-109500000D01*
G04 #@! TO.C,J2*
X195530000Y-123970000D02*
X172610000Y-123970000D01*
X172610000Y-123970000D02*
X172610000Y-126630000D01*
X195530000Y-123970000D02*
X195530000Y-126630000D01*
X198130000Y-123970000D02*
X198130000Y-125300000D01*
X196800000Y-123970000D02*
X198130000Y-123970000D01*
X195530000Y-126630000D02*
X172610000Y-126630000D01*
G04 #@! TO.C,R69*
X178954724Y-99077500D02*
X178445276Y-99077500D01*
X178954724Y-100122500D02*
X178445276Y-100122500D01*
G04 #@! TD*
M02*
