M48
; DRILL file {KiCad (6.0.9)} date Fri Jan 26 15:08:13 2024
; FORMAT={-:-/ absolute / metric / decimal}
; #@! TF.CreationDate,2024-01-26T15:08:13+01:00
; #@! TF.GenerationSoftware,Kicad,Pcbnew,(6.0.9)
; #@! TF.FileFunction,MixedPlating,1,4
FMAT,2
METRIC
; #@! TA.AperFunction,Plated,PTH,ViaDrill
T1C0.400
; #@! TA.AperFunction,Plated,PTH,ComponentDrill
T2C0.600
; #@! TA.AperFunction,Plated,PTH,ComponentDrill
T3C0.762
; #@! TA.AperFunction,Plated,PTH,ComponentDrill
T4C1.000
; #@! TA.AperFunction,Plated,PTH,ComponentDrill
T5C1.040
; #@! TA.AperFunction,NonPlated,NPTH,ComponentDrill
T6C0.650
; #@! TA.AperFunction,NonPlated,NPTH,ComponentDrill
T7C3.200
%
G90
G05
T1
X103.9Y-93.9
X107.0Y-76.1
X107.0Y-98.9
X107.1Y-78.6
X107.1Y-96.4
X107.3Y-73.6
X107.3Y-91.3
X115.1Y-118.2
X115.4Y-109.3
X116.8Y-140.6
X118.1Y-128.6
X118.2Y-63.4
X118.276Y-140.976
X119.0Y-108.8
X119.5Y-68.5
X119.5Y-134.9
X119.7Y-114.4
X119.9Y-127.649
X120.85Y-139.265
X121.1Y-73.6
X121.3Y-81.3
X121.3Y-114.2
X121.3Y-128.4
X121.575Y-140.3
X122.0Y-78.6
X122.4Y-135.0
X123.1Y-67.2
X123.175Y-90.0
X123.2Y-84.9
X123.3Y-72.3
X123.3Y-87.5
X123.4Y-140.5
X124.0Y-136.1
X124.3Y-76.0
X124.8Y-140.6
X124.9Y-60.8
X127.4Y-118.2
X128.149Y-117.4
X128.899Y-116.65
X129.0Y-138.7
X129.648Y-115.912
X130.3Y-146.8
X130.641Y-115.795
X130.7Y-110.4
X130.8Y-114.5
X131.0Y-82.2
X131.03Y-81.17
X131.3Y-80.15
X131.6Y-52.9
X131.9Y-57.5
X135.1Y-108.5
X135.5Y-110.9
X136.0Y-83.3
X136.2Y-113.7
X136.8Y-58.8
X137.1Y-83.3
X137.1Y-132.1
X137.549Y-101.201
X137.549Y-102.2
X137.549Y-103.2
X137.549Y-104.4
X137.549Y-105.4
X137.549Y-106.52
X137.6Y-98.1
X137.6Y-99.1
X137.612Y-100.203
X138.2Y-131.4
X138.3Y-83.3
X138.433Y-108.367
X138.468Y-107.233
X139.4Y-98.9
X139.6Y-83.3
X139.7Y-129.4
X140.12Y-97.12
X140.75Y-94.0
X140.8Y-129.4
X141.5Y-122.8
X141.8Y-129.3
X142.674Y-115.6
X142.7Y-105.2
X142.8Y-129.3
X143.3Y-107.9
X143.3Y-139.0
X143.506Y-115.045
X143.8Y-59.6
X143.8Y-122.9
X143.88Y-113.726
X143.9Y-108.8
X143.9Y-129.3
X143.907Y-112.693
X144.8Y-109.6
X145.0Y-133.2
X145.08Y-75.08
X145.1Y-132.1
X145.2Y-129.7
X145.2Y-131.0
X146.232Y-100.668
X146.25Y-86.45
X147.0Y-59.0
X147.022Y-101.459
X147.111Y-105.411
X147.6Y-99.7
X149.21Y-126.799
X149.4Y-122.6
X149.4Y-146.1
X149.5Y-51.5
X149.5Y-59.1
X149.505Y-113.195
X149.6Y-84.0
X149.6Y-95.7
X149.675Y-86.075
X150.0Y-127.7
X150.4Y-109.8
X150.499Y-117.233
X150.499Y-118.233
X150.5Y-144.4
X150.671Y-91.395
X150.7Y-95.9
X150.707Y-128.407
X150.75Y-92.391
X150.899Y-108.205
X151.0Y-145.3
X151.173Y-109.167
X151.25Y-75.9
X151.25Y-101.2
X151.25Y-102.2
X151.25Y-107.0
X151.4Y-124.0
X151.5Y-122.6
X151.9Y-124.9
X152.0Y-116.7
X152.005Y-112.545
X152.754Y-111.625
X152.8Y-125.401
X152.824Y-113.349
X152.9Y-139.268
X152.9Y-145.6
X152.944Y-137.769
X153.11Y-140.767
X153.3Y-114.9
X153.604Y-111.07
X153.7Y-137.019
X153.816Y-141.516
X153.85Y-138.518
X153.85Y-140.017
X154.4Y-73.9
X154.664Y-110.717
X154.7Y-114.099
X154.799Y-121.9
X155.2Y-53.8
X155.749Y-110.35
X155.8Y-121.9
X156.0Y-114.599
X156.341Y-109.545
X156.4Y-74.1
X156.749Y-108.549
X156.8Y-124.1
X157.1Y-114.7
X157.249Y-94.1
X157.249Y-99.575
X157.5Y-105.9
X157.53Y-123.23
X157.549Y-132.249
X157.67Y-55.67
X157.8Y-74.1
X158.066Y-93.524
X158.2Y-114.7
X158.28Y-92.548
X158.3Y-99.9
X158.549Y-132.249
X158.918Y-74.158
X159.176Y-100.846
X159.2Y-105.9
X159.3Y-114.7
X159.7Y-132.249
X159.952Y-100.216
X160.012Y-74.293
X160.4Y-114.8
X160.7Y-132.249
X160.9Y-99.9
X160.973Y-92.424
X161.0Y-74.5
X161.08Y-102.28
X161.1Y-105.6
X161.1Y-112.5
X161.1Y-118.2
X161.11Y-103.31
X161.699Y-132.249
X161.799Y-91.599
X161.8Y-89.5
X161.9Y-124.649
X161.951Y-90.5
X162.13Y-74.43
X162.75Y-88.019
X162.75Y-89.1
X163.0Y-75.2
X163.562Y-126.019
X163.57Y-127.071
X163.6Y-119.7
X163.6Y-128.1
X163.6Y-129.1
X163.7Y-122.5
X163.85Y-73.5
X165.0Y-99.2
X165.0Y-100.3
X165.35Y-71.266
X165.35Y-73.4
X165.8Y-111.0
X165.8Y-112.7
X166.129Y-72.059
X166.137Y-109.237
X166.2Y-107.1
X166.35Y-69.766
X167.099Y-69.0
X167.61Y-106.39
X167.73Y-127.87
X168.609Y-104.542
X168.9Y-106.6
X169.3Y-102.4
X169.4Y-101.4
X169.491Y-120.582
X169.593Y-104.365
X169.63Y-123.27
X169.662Y-119.35
X170.1Y-99.9
X170.43Y-130.57
X170.498Y-128.538
X170.52Y-129.575
X170.7Y-122.1
X170.717Y-121.023
X171.3Y-99.8
X171.4Y-108.4
X171.955Y-101.428
X172.951Y-101.52
X174.7Y-115.8
X175.8Y-115.749
X176.8Y-115.749
X177.799Y-115.749
X177.8Y-112.3
X178.5Y-137.5
X179.5Y-109.2
X179.6Y-65.3
X179.6Y-68.1
X179.6Y-70.6
X179.6Y-75.6
X179.6Y-78.1
X179.7Y-80.6
X179.8Y-73.0
X180.9Y-99.6
X181.0Y-102.3
X181.0Y-104.8
X181.5Y-121.201
X184.0Y-121.95
X189.1Y-113.25
X192.8Y-99.6
X195.2Y-114.9
X195.6Y-112.4
X195.9Y-59.0
X196.3Y-115.8
X197.1Y-116.8
X197.9Y-117.7
T3
X175.47Y-59.0
X175.47Y-61.54
X175.47Y-64.08
X175.47Y-66.62
X175.47Y-69.16
X175.47Y-71.7
X175.47Y-74.24
X175.47Y-76.78
X175.47Y-79.32
X175.47Y-81.86
X175.47Y-84.4
X175.47Y-86.94
X175.47Y-89.48
X175.47Y-92.02
X175.47Y-94.56
X175.47Y-97.1
X175.47Y-99.64
X175.47Y-102.18
X175.47Y-104.72
X175.47Y-107.26
X175.47Y-109.8
X175.47Y-112.34
X198.33Y-59.0
X198.33Y-61.54
X198.33Y-64.08
X198.33Y-66.62
X198.33Y-69.16
X198.33Y-71.7
X198.33Y-74.24
X198.33Y-76.78
X198.33Y-79.32
X198.33Y-81.86
X198.33Y-84.4
X198.33Y-86.94
X198.33Y-89.48
X198.33Y-92.02
X198.33Y-94.56
X198.33Y-97.1
X198.33Y-99.64
X198.33Y-102.18
X198.33Y-104.72
X198.33Y-107.26
X198.33Y-109.8
X198.33Y-112.34
T4
X102.5Y-111.5
X102.5Y-114.04
X102.5Y-116.58
X102.5Y-119.12
X102.5Y-121.66
X102.5Y-124.2
X102.5Y-126.74
X102.5Y-129.28
X102.5Y-131.82
X102.5Y-134.36
X106.2Y-111.5
X106.2Y-114.04
X106.2Y-116.58
X106.2Y-119.12
X106.2Y-121.66
X106.2Y-124.2
X106.2Y-126.74
X106.2Y-129.28
X106.2Y-131.82
X106.2Y-134.36
X109.9Y-111.5
X109.9Y-114.04
X109.9Y-116.58
X109.9Y-119.12
X109.9Y-121.66
X109.9Y-124.2
X109.9Y-126.74
X109.9Y-129.28
X109.9Y-131.82
X109.9Y-134.36
X132.24Y-67.2
X132.265Y-70.9
X134.78Y-67.2
X134.805Y-70.9
X137.32Y-67.2
X137.345Y-70.9
X139.86Y-67.2
X139.885Y-70.9
X142.4Y-67.2
X142.425Y-70.9
X144.94Y-67.2
X144.965Y-70.9
X146.975Y-53.735
X146.975Y-56.275
X147.48Y-67.2
X147.505Y-70.9
X149.515Y-53.735
X149.515Y-56.275
X150.02Y-67.2
X150.045Y-70.9
X152.055Y-53.735
X152.055Y-56.275
X152.56Y-67.2
X152.585Y-70.9
X155.1Y-67.2
X155.125Y-70.9
X158.84Y-140.7
X158.865Y-144.4
X161.38Y-140.7
X161.405Y-144.4
X163.92Y-140.7
X163.945Y-144.4
X166.46Y-140.7
X166.485Y-144.4
X169.0Y-140.7
X169.025Y-144.4
X171.54Y-140.7
X171.565Y-144.4
X173.94Y-125.3
X173.94Y-129.0
X173.94Y-132.7
X174.08Y-140.7
X174.105Y-144.4
X176.48Y-125.3
X176.48Y-129.0
X176.48Y-132.7
X176.62Y-140.7
X176.645Y-144.4
X179.02Y-125.3
X179.02Y-129.0
X179.02Y-132.7
X179.16Y-140.7
X179.185Y-144.4
X181.56Y-125.3
X181.56Y-129.0
X181.56Y-132.7
X181.7Y-140.7
X181.725Y-144.4
X184.1Y-125.3
X184.1Y-129.0
X184.1Y-132.7
X186.64Y-125.3
X186.64Y-129.0
X186.64Y-132.7
X189.18Y-125.3
X189.18Y-129.0
X189.18Y-132.7
X191.72Y-125.3
X191.72Y-129.0
X191.72Y-132.7
X194.26Y-125.3
X194.26Y-129.0
X194.26Y-132.7
X196.8Y-125.3
X196.8Y-129.0
X196.8Y-132.7
T5
X101.8Y-60.84
X101.8Y-63.38
X101.8Y-65.92
X101.8Y-68.46
X101.8Y-71.0
X101.8Y-73.54
X101.8Y-76.08
X101.8Y-78.62
X101.8Y-81.16
X101.8Y-83.7
X101.8Y-86.24
X101.8Y-88.78
X101.8Y-91.32
X101.8Y-93.86
X101.8Y-96.4
X101.8Y-98.94
X101.8Y-101.48
X101.8Y-104.02
X101.8Y-106.56
X127.2Y-60.84
X127.2Y-63.38
X127.2Y-65.92
X127.2Y-68.46
X127.2Y-71.0
X127.2Y-73.54
X127.2Y-76.08
X127.2Y-78.62
X127.2Y-81.16
X127.2Y-83.7
X127.2Y-86.24
X127.2Y-88.78
X127.2Y-91.32
X127.2Y-93.86
X127.2Y-96.4
X127.2Y-98.94
X127.2Y-101.48
X127.2Y-104.02
X127.2Y-106.56
T6
X117.71Y-143.195
X123.49Y-143.195
T7
X103.7Y-146.3
X103.9Y-54.2
X196.2Y-146.2
X196.3Y-53.7
T2
X116.28Y-142.145G85X116.28Y-143.245
G05
X116.28Y-146.575G85X116.28Y-147.175
G05
X124.92Y-142.145G85X124.92Y-143.245
G05
X124.92Y-146.575G85X124.92Y-147.175
G05
T0
M30
