G04 #@! TF.GenerationSoftware,KiCad,Pcbnew,(6.0.9)*
G04 #@! TF.CreationDate,2024-01-26T15:08:13+01:00*
G04 #@! TF.ProjectId,Univerzalni_testovaci_platforma_nejen_pro_IoT_v1,556e6976-6572-47a6-916c-6e695f746573,rev?*
G04 #@! TF.SameCoordinates,Original*
G04 #@! TF.FileFunction,Paste,Top*
G04 #@! TF.FilePolarity,Positive*
%FSLAX46Y46*%
G04 Gerber Fmt 4.6, Leading zero omitted, Abs format (unit mm)*
G04 Created by KiCad (PCBNEW (6.0.9)) date 2024-01-26 15:08:13*
%MOMM*%
%LPD*%
G01*
G04 APERTURE LIST*
G04 Aperture macros list*
%AMRoundRect*
0 Rectangle with rounded corners*
0 $1 Rounding radius*
0 $2 $3 $4 $5 $6 $7 $8 $9 X,Y pos of 4 corners*
0 Add a 4 corners polygon primitive as box body*
4,1,4,$2,$3,$4,$5,$6,$7,$8,$9,$2,$3,0*
0 Add four circle primitives for the rounded corners*
1,1,$1+$1,$2,$3*
1,1,$1+$1,$4,$5*
1,1,$1+$1,$6,$7*
1,1,$1+$1,$8,$9*
0 Add four rect primitives between the rounded corners*
20,1,$1+$1,$2,$3,$4,$5,0*
20,1,$1+$1,$4,$5,$6,$7,0*
20,1,$1+$1,$6,$7,$8,$9,0*
20,1,$1+$1,$8,$9,$2,$3,0*%
G04 Aperture macros list end*
%ADD10RoundRect,0.237500X-0.250000X-0.237500X0.250000X-0.237500X0.250000X0.237500X-0.250000X0.237500X0*%
%ADD11RoundRect,0.237500X0.237500X-0.250000X0.237500X0.250000X-0.237500X0.250000X-0.237500X-0.250000X0*%
%ADD12RoundRect,0.237500X0.250000X0.237500X-0.250000X0.237500X-0.250000X-0.237500X0.250000X-0.237500X0*%
%ADD13RoundRect,0.237500X-0.237500X0.300000X-0.237500X-0.300000X0.237500X-0.300000X0.237500X0.300000X0*%
%ADD14RoundRect,0.155000X0.155000X-0.212500X0.155000X0.212500X-0.155000X0.212500X-0.155000X-0.212500X0*%
%ADD15RoundRect,0.237500X0.237500X-0.300000X0.237500X0.300000X-0.237500X0.300000X-0.237500X-0.300000X0*%
%ADD16RoundRect,0.155000X-0.155000X0.212500X-0.155000X-0.212500X0.155000X-0.212500X0.155000X0.212500X0*%
%ADD17R,0.300000X1.150000*%
%ADD18RoundRect,0.075000X-0.662500X-0.075000X0.662500X-0.075000X0.662500X0.075000X-0.662500X0.075000X0*%
%ADD19RoundRect,0.075000X-0.075000X-0.662500X0.075000X-0.662500X0.075000X0.662500X-0.075000X0.662500X0*%
%ADD20RoundRect,0.237500X0.300000X0.237500X-0.300000X0.237500X-0.300000X-0.237500X0.300000X-0.237500X0*%
%ADD21RoundRect,0.237500X-0.300000X-0.237500X0.300000X-0.237500X0.300000X0.237500X-0.300000X0.237500X0*%
%ADD22R,1.700000X1.000000*%
%ADD23RoundRect,0.250000X-0.475000X0.337500X-0.475000X-0.337500X0.475000X-0.337500X0.475000X0.337500X0*%
%ADD24RoundRect,0.237500X-0.287500X-0.237500X0.287500X-0.237500X0.287500X0.237500X-0.287500X0.237500X0*%
%ADD25RoundRect,0.155000X-0.212500X-0.155000X0.212500X-0.155000X0.212500X0.155000X-0.212500X0.155000X0*%
%ADD26RoundRect,0.250000X0.475000X-0.337500X0.475000X0.337500X-0.475000X0.337500X-0.475000X-0.337500X0*%
%ADD27RoundRect,0.237500X0.287500X0.237500X-0.287500X0.237500X-0.287500X-0.237500X0.287500X-0.237500X0*%
%ADD28R,3.050000X2.750000*%
%ADD29R,2.200000X1.200000*%
%ADD30RoundRect,0.250000X-0.925000X0.875000X-0.925000X-0.875000X0.925000X-0.875000X0.925000X0.875000X0*%
%ADD31RoundRect,0.155000X0.212500X0.155000X-0.212500X0.155000X-0.212500X-0.155000X0.212500X-0.155000X0*%
%ADD32R,1.200000X1.400000*%
G04 APERTURE END LIST*
D10*
G04 #@! TO.C,R5*
X194187500Y-66600000D03*
X196012500Y-66600000D03*
G04 #@! TD*
G04 #@! TO.C,R17*
X194287500Y-97100000D03*
X196112500Y-97100000D03*
G04 #@! TD*
D11*
G04 #@! TO.C,R76*
X122350000Y-137927500D03*
X122350000Y-136102500D03*
G04 #@! TD*
D12*
G04 #@! TO.C,R65*
X179612500Y-89500000D03*
X177787500Y-89500000D03*
G04 #@! TD*
G04 #@! TO.C,R28*
X125112500Y-99000000D03*
X123287500Y-99000000D03*
G04 #@! TD*
G04 #@! TO.C,R53*
X105812500Y-98900000D03*
X103987500Y-98900000D03*
G04 #@! TD*
G04 #@! TO.C,R41*
X105712500Y-65900000D03*
X103887500Y-65900000D03*
G04 #@! TD*
G04 #@! TO.C,R49*
X105812500Y-86200000D03*
X103987500Y-86200000D03*
G04 #@! TD*
D13*
G04 #@! TO.C,C7*
X164700000Y-110937500D03*
X164700000Y-112662500D03*
G04 #@! TD*
D14*
G04 #@! TO.C,C1*
X139300000Y-108367500D03*
X139300000Y-107232500D03*
G04 #@! TD*
D12*
G04 #@! TO.C,R47*
X105812500Y-81200000D03*
X103987500Y-81200000D03*
G04 #@! TD*
D15*
G04 #@! TO.C,C17*
X129000000Y-141762500D03*
X129000000Y-140037500D03*
G04 #@! TD*
D12*
G04 #@! TO.C,R60*
X179612500Y-76800000D03*
X177787500Y-76800000D03*
G04 #@! TD*
G04 #@! TO.C,R43*
X105912500Y-71100000D03*
X104087500Y-71100000D03*
G04 #@! TD*
D10*
G04 #@! TO.C,R7*
X194187500Y-71700000D03*
X196012500Y-71700000D03*
G04 #@! TD*
G04 #@! TO.C,R10*
X194087500Y-79300000D03*
X195912500Y-79300000D03*
G04 #@! TD*
D12*
G04 #@! TO.C,R66*
X179612500Y-92000000D03*
X177787500Y-92000000D03*
G04 #@! TD*
D10*
G04 #@! TO.C,R14*
X194187500Y-89500000D03*
X196012500Y-89500000D03*
G04 #@! TD*
D12*
G04 #@! TO.C,R63*
X179812500Y-84400000D03*
X177987500Y-84400000D03*
G04 #@! TD*
D10*
G04 #@! TO.C,R16*
X194175000Y-94600000D03*
X196000000Y-94600000D03*
G04 #@! TD*
D16*
G04 #@! TO.C,C3*
X164200000Y-99200000D03*
X164200000Y-100335000D03*
G04 #@! TD*
D12*
G04 #@! TO.C,R48*
X105712500Y-83700000D03*
X103887500Y-83700000D03*
G04 #@! TD*
G04 #@! TO.C,R29*
X125012500Y-101500000D03*
X123187500Y-101500000D03*
G04 #@! TD*
G04 #@! TO.C,R23*
X125012500Y-65900000D03*
X123187500Y-65900000D03*
G04 #@! TD*
D17*
G04 #@! TO.C,J6*
X117250000Y-142130000D03*
X118050000Y-142130000D03*
X119350000Y-142130000D03*
X120350000Y-142130000D03*
X120850000Y-142130000D03*
X121850000Y-142130000D03*
X123150000Y-142130000D03*
X123950000Y-142130000D03*
X123650000Y-142130000D03*
X122850000Y-142130000D03*
X122350000Y-142130000D03*
X121350000Y-142130000D03*
X119850000Y-142130000D03*
X118850000Y-142130000D03*
X118350000Y-142130000D03*
X117550000Y-142130000D03*
G04 #@! TD*
D10*
G04 #@! TO.C,R9*
X194175000Y-76800000D03*
X196000000Y-76800000D03*
G04 #@! TD*
D12*
G04 #@! TO.C,R24*
X125012500Y-68500000D03*
X123187500Y-68500000D03*
G04 #@! TD*
D18*
G04 #@! TO.C,U1*
X141337500Y-100150000D03*
X141337500Y-100650000D03*
X141337500Y-101150000D03*
X141337500Y-101650000D03*
X141337500Y-102150000D03*
X141337500Y-102650000D03*
X141337500Y-103150000D03*
X141337500Y-103650000D03*
X141337500Y-104150000D03*
X141337500Y-104650000D03*
X141337500Y-105150000D03*
X141337500Y-105650000D03*
X141337500Y-106150000D03*
X141337500Y-106650000D03*
X141337500Y-107150000D03*
X141337500Y-107650000D03*
X141337500Y-108150000D03*
X141337500Y-108650000D03*
X141337500Y-109150000D03*
X141337500Y-109650000D03*
X141337500Y-110150000D03*
X141337500Y-110650000D03*
X141337500Y-111150000D03*
X141337500Y-111650000D03*
X141337500Y-112150000D03*
X141337500Y-112650000D03*
X141337500Y-113150000D03*
X141337500Y-113650000D03*
X141337500Y-114150000D03*
X141337500Y-114650000D03*
X141337500Y-115150000D03*
X141337500Y-115650000D03*
X141337500Y-116150000D03*
X141337500Y-116650000D03*
X141337500Y-117150000D03*
X141337500Y-117650000D03*
D19*
X143250000Y-119562500D03*
X143750000Y-119562500D03*
X144250000Y-119562500D03*
X144750000Y-119562500D03*
X145250000Y-119562500D03*
X145750000Y-119562500D03*
X146250000Y-119562500D03*
X146750000Y-119562500D03*
X147250000Y-119562500D03*
X147750000Y-119562500D03*
X148250000Y-119562500D03*
X148750000Y-119562500D03*
X149250000Y-119562500D03*
X149750000Y-119562500D03*
X150250000Y-119562500D03*
X150750000Y-119562500D03*
X151250000Y-119562500D03*
X151750000Y-119562500D03*
X152250000Y-119562500D03*
X152750000Y-119562500D03*
X153250000Y-119562500D03*
X153750000Y-119562500D03*
X154250000Y-119562500D03*
X154750000Y-119562500D03*
X155250000Y-119562500D03*
X155750000Y-119562500D03*
X156250000Y-119562500D03*
X156750000Y-119562500D03*
X157250000Y-119562500D03*
X157750000Y-119562500D03*
X158250000Y-119562500D03*
X158750000Y-119562500D03*
X159250000Y-119562500D03*
X159750000Y-119562500D03*
X160250000Y-119562500D03*
X160750000Y-119562500D03*
D18*
X162662500Y-117650000D03*
X162662500Y-117150000D03*
X162662500Y-116650000D03*
X162662500Y-116150000D03*
X162662500Y-115650000D03*
X162662500Y-115150000D03*
X162662500Y-114650000D03*
X162662500Y-114150000D03*
X162662500Y-113650000D03*
X162662500Y-113150000D03*
X162662500Y-112650000D03*
X162662500Y-112150000D03*
X162662500Y-111650000D03*
X162662500Y-111150000D03*
X162662500Y-110650000D03*
X162662500Y-110150000D03*
X162662500Y-109650000D03*
X162662500Y-109150000D03*
X162662500Y-108650000D03*
X162662500Y-108150000D03*
X162662500Y-107650000D03*
X162662500Y-107150000D03*
X162662500Y-106650000D03*
X162662500Y-106150000D03*
X162662500Y-105650000D03*
X162662500Y-105150000D03*
X162662500Y-104650000D03*
X162662500Y-104150000D03*
X162662500Y-103650000D03*
X162662500Y-103150000D03*
X162662500Y-102650000D03*
X162662500Y-102150000D03*
X162662500Y-101650000D03*
X162662500Y-101150000D03*
X162662500Y-100650000D03*
X162662500Y-100150000D03*
D19*
X160750000Y-98237500D03*
X160250000Y-98237500D03*
X159750000Y-98237500D03*
X159250000Y-98237500D03*
X158750000Y-98237500D03*
X158250000Y-98237500D03*
X157750000Y-98237500D03*
X157250000Y-98237500D03*
X156750000Y-98237500D03*
X156250000Y-98237500D03*
X155750000Y-98237500D03*
X155250000Y-98237500D03*
X154750000Y-98237500D03*
X154250000Y-98237500D03*
X153750000Y-98237500D03*
X153250000Y-98237500D03*
X152750000Y-98237500D03*
X152250000Y-98237500D03*
X151750000Y-98237500D03*
X151250000Y-98237500D03*
X150750000Y-98237500D03*
X150250000Y-98237500D03*
X149750000Y-98237500D03*
X149250000Y-98237500D03*
X148750000Y-98237500D03*
X148250000Y-98237500D03*
X147750000Y-98237500D03*
X147250000Y-98237500D03*
X146750000Y-98237500D03*
X146250000Y-98237500D03*
X145750000Y-98237500D03*
X145250000Y-98237500D03*
X144750000Y-98237500D03*
X144250000Y-98237500D03*
X143750000Y-98237500D03*
X143250000Y-98237500D03*
G04 #@! TD*
D12*
G04 #@! TO.C,R70*
X179512500Y-102200000D03*
X177687500Y-102200000D03*
G04 #@! TD*
D11*
G04 #@! TO.C,R39*
X143800000Y-55512500D03*
X143800000Y-53687500D03*
G04 #@! TD*
D12*
G04 #@! TO.C,R22*
X125012500Y-63400000D03*
X123187500Y-63400000D03*
G04 #@! TD*
G04 #@! TO.C,R79*
X138912500Y-134500000D03*
X137087500Y-134500000D03*
G04 #@! TD*
D20*
G04 #@! TO.C,C19*
X133862500Y-114500000D03*
X132137500Y-114500000D03*
G04 #@! TD*
D10*
G04 #@! TO.C,R8*
X194175000Y-74200000D03*
X196000000Y-74200000D03*
G04 #@! TD*
D11*
G04 #@! TO.C,R78*
X122400000Y-133712500D03*
X122400000Y-131887500D03*
G04 #@! TD*
D21*
G04 #@! TO.C,C20*
X132137500Y-108500000D03*
X133862500Y-108500000D03*
G04 #@! TD*
D12*
G04 #@! TO.C,R45*
X105800000Y-76100000D03*
X103975000Y-76100000D03*
G04 #@! TD*
D10*
G04 #@! TO.C,R20*
X194087500Y-104700000D03*
X195912500Y-104700000D03*
G04 #@! TD*
D12*
G04 #@! TO.C,R42*
X105912500Y-68500000D03*
X104087500Y-68500000D03*
G04 #@! TD*
G04 #@! TO.C,R46*
X105712500Y-78600000D03*
X103887500Y-78600000D03*
G04 #@! TD*
D20*
G04 #@! TO.C,C8*
X151362500Y-121400000D03*
X149637500Y-121400000D03*
G04 #@! TD*
D12*
G04 #@! TO.C,R26*
X125012500Y-73500000D03*
X123187500Y-73500000D03*
G04 #@! TD*
G04 #@! TO.C,R34*
X125012500Y-83800000D03*
X123187500Y-83800000D03*
G04 #@! TD*
D22*
G04 #@! TO.C,SW1*
X140150000Y-52900000D03*
X133850000Y-52900000D03*
X140150000Y-56700000D03*
X133850000Y-56700000D03*
G04 #@! TD*
D10*
G04 #@! TO.C,R12*
X194187500Y-84400000D03*
X196012500Y-84400000D03*
G04 #@! TD*
D11*
G04 #@! TO.C,R75*
X119350000Y-137927500D03*
X119350000Y-136102500D03*
G04 #@! TD*
D15*
G04 #@! TO.C,C13*
X137400000Y-115462500D03*
X137400000Y-113737500D03*
G04 #@! TD*
D12*
G04 #@! TO.C,R38*
X125012500Y-93900000D03*
X123187500Y-93900000D03*
G04 #@! TD*
G04 #@! TO.C,R56*
X179612500Y-66700000D03*
X177787500Y-66700000D03*
G04 #@! TD*
G04 #@! TO.C,R61*
X179612500Y-79300000D03*
X177787500Y-79300000D03*
G04 #@! TD*
G04 #@! TO.C,R25*
X125012500Y-71100000D03*
X123187500Y-71100000D03*
G04 #@! TD*
D23*
G04 #@! TO.C,C10*
X164900000Y-107162500D03*
X164900000Y-109237500D03*
G04 #@! TD*
D12*
G04 #@! TO.C,R59*
X179812500Y-74300000D03*
X177987500Y-74300000D03*
G04 #@! TD*
D10*
G04 #@! TO.C,R15*
X194287500Y-92000000D03*
X196112500Y-92000000D03*
G04 #@! TD*
D12*
G04 #@! TO.C,R51*
X106012500Y-91300000D03*
X104187500Y-91300000D03*
G04 #@! TD*
D21*
G04 #@! TO.C,C6*
X154037500Y-96400000D03*
X155762500Y-96400000D03*
G04 #@! TD*
D12*
G04 #@! TO.C,R68*
X179512500Y-97100000D03*
X177687500Y-97100000D03*
G04 #@! TD*
D24*
G04 #@! TO.C,D2*
X135825000Y-148100000D03*
X137575000Y-148100000D03*
G04 #@! TD*
D25*
G04 #@! TO.C,C2*
X149532500Y-96700000D03*
X150667500Y-96700000D03*
G04 #@! TD*
D11*
G04 #@! TO.C,R73*
X154500000Y-147412500D03*
X154500000Y-145587500D03*
G04 #@! TD*
D10*
G04 #@! TO.C,R2*
X138287500Y-58700000D03*
X140112500Y-58700000D03*
G04 #@! TD*
G04 #@! TO.C,R13*
X194187500Y-86900000D03*
X196012500Y-86900000D03*
G04 #@! TD*
D20*
G04 #@! TO.C,C12*
X143562500Y-124500000D03*
X141837500Y-124500000D03*
G04 #@! TD*
D23*
G04 #@! TO.C,C9*
X162200000Y-120062500D03*
X162200000Y-122137500D03*
G04 #@! TD*
D12*
G04 #@! TO.C,R72*
X179512500Y-107200000D03*
X177687500Y-107200000D03*
G04 #@! TD*
G04 #@! TO.C,R50*
X106012500Y-88800000D03*
X104187500Y-88800000D03*
G04 #@! TD*
D26*
G04 #@! TO.C,C14*
X139300000Y-115537500D03*
X139300000Y-113462500D03*
G04 #@! TD*
D27*
G04 #@! TO.C,D1*
X152775000Y-147400000D03*
X151025000Y-147400000D03*
G04 #@! TD*
D12*
G04 #@! TO.C,R58*
X179612500Y-71700000D03*
X177787500Y-71700000D03*
G04 #@! TD*
G04 #@! TO.C,R33*
X125012500Y-81200000D03*
X123187500Y-81200000D03*
G04 #@! TD*
D10*
G04 #@! TO.C,R6*
X194187500Y-69200000D03*
X196012500Y-69200000D03*
G04 #@! TD*
G04 #@! TO.C,R11*
X194187500Y-81900000D03*
X196012500Y-81900000D03*
G04 #@! TD*
D12*
G04 #@! TO.C,R62*
X179712500Y-81900000D03*
X177887500Y-81900000D03*
G04 #@! TD*
D20*
G04 #@! TO.C,C5*
X143762500Y-121600000D03*
X142037500Y-121600000D03*
G04 #@! TD*
D12*
G04 #@! TO.C,R40*
X105812500Y-63400000D03*
X103987500Y-63400000D03*
G04 #@! TD*
D26*
G04 #@! TO.C,C11*
X141800000Y-97737500D03*
X141800000Y-95662500D03*
G04 #@! TD*
D12*
G04 #@! TO.C,R27*
X125012500Y-96400000D03*
X123187500Y-96400000D03*
G04 #@! TD*
D10*
G04 #@! TO.C,R3*
X194287500Y-61500000D03*
X196112500Y-61500000D03*
G04 #@! TD*
D12*
G04 #@! TO.C,R30*
X125012500Y-104000000D03*
X123187500Y-104000000D03*
G04 #@! TD*
D28*
G04 #@! TO.C,U2*
X140575000Y-142525000D03*
X140575000Y-139475000D03*
X137225000Y-139475000D03*
X137225000Y-142525000D03*
D29*
X132600000Y-138720000D03*
X132600000Y-143280000D03*
G04 #@! TD*
D10*
G04 #@! TO.C,R4*
X194287500Y-64100000D03*
X196112500Y-64100000D03*
G04 #@! TD*
D12*
G04 #@! TO.C,R64*
X179612500Y-86900000D03*
X177787500Y-86900000D03*
G04 #@! TD*
G04 #@! TO.C,R32*
X124912500Y-78600000D03*
X123087500Y-78600000D03*
G04 #@! TD*
D10*
G04 #@! TO.C,R21*
X194187500Y-107200000D03*
X196012500Y-107200000D03*
G04 #@! TD*
D12*
G04 #@! TO.C,R57*
X179612500Y-69200000D03*
X177787500Y-69200000D03*
G04 #@! TD*
G04 #@! TO.C,R35*
X125112500Y-86200000D03*
X123287500Y-86200000D03*
G04 #@! TD*
D10*
G04 #@! TO.C,R19*
X194287500Y-102200000D03*
X196112500Y-102200000D03*
G04 #@! TD*
D12*
G04 #@! TO.C,R74*
X133712500Y-148100000D03*
X131887500Y-148100000D03*
G04 #@! TD*
D30*
G04 #@! TO.C,C18*
X145900000Y-141050000D03*
X145900000Y-146150000D03*
G04 #@! TD*
D12*
G04 #@! TO.C,R55*
X106012500Y-104100000D03*
X104187500Y-104100000D03*
G04 #@! TD*
G04 #@! TO.C,R71*
X179612500Y-104700000D03*
X177787500Y-104700000D03*
G04 #@! TD*
G04 #@! TO.C,R37*
X125012500Y-91300000D03*
X123187500Y-91300000D03*
G04 #@! TD*
D15*
G04 #@! TO.C,C15*
X131400000Y-55762500D03*
X131400000Y-54037500D03*
G04 #@! TD*
D31*
G04 #@! TO.C,C4*
X155867500Y-121100000D03*
X154732500Y-121100000D03*
G04 #@! TD*
D12*
G04 #@! TO.C,R52*
X105712500Y-96400000D03*
X103887500Y-96400000D03*
G04 #@! TD*
G04 #@! TO.C,R54*
X105800000Y-101500000D03*
X103975000Y-101500000D03*
G04 #@! TD*
D11*
G04 #@! TO.C,R77*
X119500000Y-133712500D03*
X119500000Y-131887500D03*
G04 #@! TD*
D12*
G04 #@! TO.C,R31*
X125112500Y-106700000D03*
X123287500Y-106700000D03*
G04 #@! TD*
D10*
G04 #@! TO.C,R18*
X194287500Y-99600000D03*
X196112500Y-99600000D03*
G04 #@! TD*
D12*
G04 #@! TO.C,R44*
X105812500Y-73600000D03*
X103987500Y-73600000D03*
G04 #@! TD*
G04 #@! TO.C,R36*
X125000000Y-88800000D03*
X123175000Y-88800000D03*
G04 #@! TD*
G04 #@! TO.C,R67*
X179512500Y-94500000D03*
X177687500Y-94500000D03*
G04 #@! TD*
D11*
G04 #@! TO.C,R1*
X155600000Y-58112500D03*
X155600000Y-56287500D03*
G04 #@! TD*
D32*
G04 #@! TO.C,Y1*
X133850000Y-112600000D03*
X133850000Y-110400000D03*
X132150000Y-110400000D03*
X132150000Y-112600000D03*
G04 #@! TD*
D12*
G04 #@! TO.C,R69*
X179612500Y-99600000D03*
X177787500Y-99600000D03*
G04 #@! TD*
M02*
